%TF.GenerationSoftware,KiCad,Pcbnew,7.0.8-7.0.8~ubuntu22.04.1*%
%TF.CreationDate,2023-12-23T17:01:05+01:00*%
%TF.ProjectId,Smart_Light,536d6172-745f-44c6-9967-68742e6b6963,rev?*%
%TF.SameCoordinates,Original*%
%TF.FileFunction,Legend,Top*%
%TF.FilePolarity,Positive*%
%FSLAX46Y46*%
G04 Gerber Fmt 4.6, Leading zero omitted, Abs format (unit mm)*
G04 Created by KiCad (PCBNEW 7.0.8-7.0.8~ubuntu22.04.1) date 2023-12-23 17:01:05*
%MOMM*%
%LPD*%
G01*
G04 APERTURE LIST*
%ADD10C,0.100000*%
%ADD11C,0.150000*%
%ADD12C,0.120000*%
G04 APERTURE END LIST*
D10*
X142017419Y-108013094D02*
X141017419Y-108013094D01*
X141017419Y-108013094D02*
X141017419Y-107774999D01*
X141017419Y-107774999D02*
X141065038Y-107632142D01*
X141065038Y-107632142D02*
X141160276Y-107536904D01*
X141160276Y-107536904D02*
X141255514Y-107489285D01*
X141255514Y-107489285D02*
X141445990Y-107441666D01*
X141445990Y-107441666D02*
X141588847Y-107441666D01*
X141588847Y-107441666D02*
X141779323Y-107489285D01*
X141779323Y-107489285D02*
X141874561Y-107536904D01*
X141874561Y-107536904D02*
X141969800Y-107632142D01*
X141969800Y-107632142D02*
X142017419Y-107774999D01*
X142017419Y-107774999D02*
X142017419Y-108013094D01*
X141017419Y-107108332D02*
X141017419Y-106489285D01*
X141017419Y-106489285D02*
X141398371Y-106822618D01*
X141398371Y-106822618D02*
X141398371Y-106679761D01*
X141398371Y-106679761D02*
X141445990Y-106584523D01*
X141445990Y-106584523D02*
X141493609Y-106536904D01*
X141493609Y-106536904D02*
X141588847Y-106489285D01*
X141588847Y-106489285D02*
X141826942Y-106489285D01*
X141826942Y-106489285D02*
X141922180Y-106536904D01*
X141922180Y-106536904D02*
X141969800Y-106584523D01*
X141969800Y-106584523D02*
X142017419Y-106679761D01*
X142017419Y-106679761D02*
X142017419Y-106965475D01*
X142017419Y-106965475D02*
X141969800Y-107060713D01*
X141969800Y-107060713D02*
X141922180Y-107108332D01*
D11*
X130414819Y-100920357D02*
X129938628Y-101253690D01*
X130414819Y-101491785D02*
X129414819Y-101491785D01*
X129414819Y-101491785D02*
X129414819Y-101110833D01*
X129414819Y-101110833D02*
X129462438Y-101015595D01*
X129462438Y-101015595D02*
X129510057Y-100967976D01*
X129510057Y-100967976D02*
X129605295Y-100920357D01*
X129605295Y-100920357D02*
X129748152Y-100920357D01*
X129748152Y-100920357D02*
X129843390Y-100967976D01*
X129843390Y-100967976D02*
X129891009Y-101015595D01*
X129891009Y-101015595D02*
X129938628Y-101110833D01*
X129938628Y-101110833D02*
X129938628Y-101491785D01*
X130414819Y-99967976D02*
X130414819Y-100539404D01*
X130414819Y-100253690D02*
X129414819Y-100253690D01*
X129414819Y-100253690D02*
X129557676Y-100348928D01*
X129557676Y-100348928D02*
X129652914Y-100444166D01*
X129652914Y-100444166D02*
X129700533Y-100539404D01*
X130414819Y-99015595D02*
X130414819Y-99587023D01*
X130414819Y-99301309D02*
X129414819Y-99301309D01*
X129414819Y-99301309D02*
X129557676Y-99396547D01*
X129557676Y-99396547D02*
X129652914Y-99491785D01*
X129652914Y-99491785D02*
X129700533Y-99587023D01*
D10*
X140162580Y-75966905D02*
X141162580Y-75966905D01*
X141162580Y-75966905D02*
X141162580Y-76205000D01*
X141162580Y-76205000D02*
X141114961Y-76347857D01*
X141114961Y-76347857D02*
X141019723Y-76443095D01*
X141019723Y-76443095D02*
X140924485Y-76490714D01*
X140924485Y-76490714D02*
X140734009Y-76538333D01*
X140734009Y-76538333D02*
X140591152Y-76538333D01*
X140591152Y-76538333D02*
X140400676Y-76490714D01*
X140400676Y-76490714D02*
X140305438Y-76443095D01*
X140305438Y-76443095D02*
X140210200Y-76347857D01*
X140210200Y-76347857D02*
X140162580Y-76205000D01*
X140162580Y-76205000D02*
X140162580Y-75966905D01*
X141162580Y-77395476D02*
X141162580Y-77205000D01*
X141162580Y-77205000D02*
X141114961Y-77109762D01*
X141114961Y-77109762D02*
X141067342Y-77062143D01*
X141067342Y-77062143D02*
X140924485Y-76966905D01*
X140924485Y-76966905D02*
X140734009Y-76919286D01*
X140734009Y-76919286D02*
X140353057Y-76919286D01*
X140353057Y-76919286D02*
X140257819Y-76966905D01*
X140257819Y-76966905D02*
X140210200Y-77014524D01*
X140210200Y-77014524D02*
X140162580Y-77109762D01*
X140162580Y-77109762D02*
X140162580Y-77300238D01*
X140162580Y-77300238D02*
X140210200Y-77395476D01*
X140210200Y-77395476D02*
X140257819Y-77443095D01*
X140257819Y-77443095D02*
X140353057Y-77490714D01*
X140353057Y-77490714D02*
X140591152Y-77490714D01*
X140591152Y-77490714D02*
X140686390Y-77443095D01*
X140686390Y-77443095D02*
X140734009Y-77395476D01*
X140734009Y-77395476D02*
X140781628Y-77300238D01*
X140781628Y-77300238D02*
X140781628Y-77109762D01*
X140781628Y-77109762D02*
X140734009Y-77014524D01*
X140734009Y-77014524D02*
X140686390Y-76966905D01*
X140686390Y-76966905D02*
X140591152Y-76919286D01*
D11*
X142004819Y-111139166D02*
X141528628Y-111472499D01*
X142004819Y-111710594D02*
X141004819Y-111710594D01*
X141004819Y-111710594D02*
X141004819Y-111329642D01*
X141004819Y-111329642D02*
X141052438Y-111234404D01*
X141052438Y-111234404D02*
X141100057Y-111186785D01*
X141100057Y-111186785D02*
X141195295Y-111139166D01*
X141195295Y-111139166D02*
X141338152Y-111139166D01*
X141338152Y-111139166D02*
X141433390Y-111186785D01*
X141433390Y-111186785D02*
X141481009Y-111234404D01*
X141481009Y-111234404D02*
X141528628Y-111329642D01*
X141528628Y-111329642D02*
X141528628Y-111710594D01*
X141004819Y-110805832D02*
X141004819Y-110186785D01*
X141004819Y-110186785D02*
X141385771Y-110520118D01*
X141385771Y-110520118D02*
X141385771Y-110377261D01*
X141385771Y-110377261D02*
X141433390Y-110282023D01*
X141433390Y-110282023D02*
X141481009Y-110234404D01*
X141481009Y-110234404D02*
X141576247Y-110186785D01*
X141576247Y-110186785D02*
X141814342Y-110186785D01*
X141814342Y-110186785D02*
X141909580Y-110234404D01*
X141909580Y-110234404D02*
X141957200Y-110282023D01*
X141957200Y-110282023D02*
X142004819Y-110377261D01*
X142004819Y-110377261D02*
X142004819Y-110662975D01*
X142004819Y-110662975D02*
X141957200Y-110758213D01*
X141957200Y-110758213D02*
X141909580Y-110805832D01*
D10*
X137997419Y-108033094D02*
X136997419Y-108033094D01*
X136997419Y-108033094D02*
X136997419Y-107794999D01*
X136997419Y-107794999D02*
X137045038Y-107652142D01*
X137045038Y-107652142D02*
X137140276Y-107556904D01*
X137140276Y-107556904D02*
X137235514Y-107509285D01*
X137235514Y-107509285D02*
X137425990Y-107461666D01*
X137425990Y-107461666D02*
X137568847Y-107461666D01*
X137568847Y-107461666D02*
X137759323Y-107509285D01*
X137759323Y-107509285D02*
X137854561Y-107556904D01*
X137854561Y-107556904D02*
X137949800Y-107652142D01*
X137949800Y-107652142D02*
X137997419Y-107794999D01*
X137997419Y-107794999D02*
X137997419Y-108033094D01*
X136997419Y-106556904D02*
X136997419Y-107033094D01*
X136997419Y-107033094D02*
X137473609Y-107080713D01*
X137473609Y-107080713D02*
X137425990Y-107033094D01*
X137425990Y-107033094D02*
X137378371Y-106937856D01*
X137378371Y-106937856D02*
X137378371Y-106699761D01*
X137378371Y-106699761D02*
X137425990Y-106604523D01*
X137425990Y-106604523D02*
X137473609Y-106556904D01*
X137473609Y-106556904D02*
X137568847Y-106509285D01*
X137568847Y-106509285D02*
X137806942Y-106509285D01*
X137806942Y-106509285D02*
X137902180Y-106556904D01*
X137902180Y-106556904D02*
X137949800Y-106604523D01*
X137949800Y-106604523D02*
X137997419Y-106699761D01*
X137997419Y-106699761D02*
X137997419Y-106937856D01*
X137997419Y-106937856D02*
X137949800Y-107033094D01*
X137949800Y-107033094D02*
X137902180Y-107080713D01*
D11*
X137954819Y-111129166D02*
X137478628Y-111462499D01*
X137954819Y-111700594D02*
X136954819Y-111700594D01*
X136954819Y-111700594D02*
X136954819Y-111319642D01*
X136954819Y-111319642D02*
X137002438Y-111224404D01*
X137002438Y-111224404D02*
X137050057Y-111176785D01*
X137050057Y-111176785D02*
X137145295Y-111129166D01*
X137145295Y-111129166D02*
X137288152Y-111129166D01*
X137288152Y-111129166D02*
X137383390Y-111176785D01*
X137383390Y-111176785D02*
X137431009Y-111224404D01*
X137431009Y-111224404D02*
X137478628Y-111319642D01*
X137478628Y-111319642D02*
X137478628Y-111700594D01*
X136954819Y-110224404D02*
X136954819Y-110700594D01*
X136954819Y-110700594D02*
X137431009Y-110748213D01*
X137431009Y-110748213D02*
X137383390Y-110700594D01*
X137383390Y-110700594D02*
X137335771Y-110605356D01*
X137335771Y-110605356D02*
X137335771Y-110367261D01*
X137335771Y-110367261D02*
X137383390Y-110272023D01*
X137383390Y-110272023D02*
X137431009Y-110224404D01*
X137431009Y-110224404D02*
X137526247Y-110176785D01*
X137526247Y-110176785D02*
X137764342Y-110176785D01*
X137764342Y-110176785D02*
X137859580Y-110224404D01*
X137859580Y-110224404D02*
X137907200Y-110272023D01*
X137907200Y-110272023D02*
X137954819Y-110367261D01*
X137954819Y-110367261D02*
X137954819Y-110605356D01*
X137954819Y-110605356D02*
X137907200Y-110700594D01*
X137907200Y-110700594D02*
X137859580Y-110748213D01*
X147214819Y-73539166D02*
X146738628Y-73872499D01*
X147214819Y-74110594D02*
X146214819Y-74110594D01*
X146214819Y-74110594D02*
X146214819Y-73729642D01*
X146214819Y-73729642D02*
X146262438Y-73634404D01*
X146262438Y-73634404D02*
X146310057Y-73586785D01*
X146310057Y-73586785D02*
X146405295Y-73539166D01*
X146405295Y-73539166D02*
X146548152Y-73539166D01*
X146548152Y-73539166D02*
X146643390Y-73586785D01*
X146643390Y-73586785D02*
X146691009Y-73634404D01*
X146691009Y-73634404D02*
X146738628Y-73729642D01*
X146738628Y-73729642D02*
X146738628Y-74110594D01*
X147214819Y-73062975D02*
X147214819Y-72872499D01*
X147214819Y-72872499D02*
X147167200Y-72777261D01*
X147167200Y-72777261D02*
X147119580Y-72729642D01*
X147119580Y-72729642D02*
X146976723Y-72634404D01*
X146976723Y-72634404D02*
X146786247Y-72586785D01*
X146786247Y-72586785D02*
X146405295Y-72586785D01*
X146405295Y-72586785D02*
X146310057Y-72634404D01*
X146310057Y-72634404D02*
X146262438Y-72682023D01*
X146262438Y-72682023D02*
X146214819Y-72777261D01*
X146214819Y-72777261D02*
X146214819Y-72967737D01*
X146214819Y-72967737D02*
X146262438Y-73062975D01*
X146262438Y-73062975D02*
X146310057Y-73110594D01*
X146310057Y-73110594D02*
X146405295Y-73158213D01*
X146405295Y-73158213D02*
X146643390Y-73158213D01*
X146643390Y-73158213D02*
X146738628Y-73110594D01*
X146738628Y-73110594D02*
X146786247Y-73062975D01*
X146786247Y-73062975D02*
X146833866Y-72967737D01*
X146833866Y-72967737D02*
X146833866Y-72777261D01*
X146833866Y-72777261D02*
X146786247Y-72682023D01*
X146786247Y-72682023D02*
X146738628Y-72634404D01*
X146738628Y-72634404D02*
X146643390Y-72586785D01*
X144074819Y-111119166D02*
X143598628Y-111452499D01*
X144074819Y-111690594D02*
X143074819Y-111690594D01*
X143074819Y-111690594D02*
X143074819Y-111309642D01*
X143074819Y-111309642D02*
X143122438Y-111214404D01*
X143122438Y-111214404D02*
X143170057Y-111166785D01*
X143170057Y-111166785D02*
X143265295Y-111119166D01*
X143265295Y-111119166D02*
X143408152Y-111119166D01*
X143408152Y-111119166D02*
X143503390Y-111166785D01*
X143503390Y-111166785D02*
X143551009Y-111214404D01*
X143551009Y-111214404D02*
X143598628Y-111309642D01*
X143598628Y-111309642D02*
X143598628Y-111690594D01*
X143170057Y-110738213D02*
X143122438Y-110690594D01*
X143122438Y-110690594D02*
X143074819Y-110595356D01*
X143074819Y-110595356D02*
X143074819Y-110357261D01*
X143074819Y-110357261D02*
X143122438Y-110262023D01*
X143122438Y-110262023D02*
X143170057Y-110214404D01*
X143170057Y-110214404D02*
X143265295Y-110166785D01*
X143265295Y-110166785D02*
X143360533Y-110166785D01*
X143360533Y-110166785D02*
X143503390Y-110214404D01*
X143503390Y-110214404D02*
X144074819Y-110785832D01*
X144074819Y-110785832D02*
X144074819Y-110166785D01*
D10*
X144017419Y-107953094D02*
X143017419Y-107953094D01*
X143017419Y-107953094D02*
X143017419Y-107714999D01*
X143017419Y-107714999D02*
X143065038Y-107572142D01*
X143065038Y-107572142D02*
X143160276Y-107476904D01*
X143160276Y-107476904D02*
X143255514Y-107429285D01*
X143255514Y-107429285D02*
X143445990Y-107381666D01*
X143445990Y-107381666D02*
X143588847Y-107381666D01*
X143588847Y-107381666D02*
X143779323Y-107429285D01*
X143779323Y-107429285D02*
X143874561Y-107476904D01*
X143874561Y-107476904D02*
X143969800Y-107572142D01*
X143969800Y-107572142D02*
X144017419Y-107714999D01*
X144017419Y-107714999D02*
X144017419Y-107953094D01*
X143112657Y-107000713D02*
X143065038Y-106953094D01*
X143065038Y-106953094D02*
X143017419Y-106857856D01*
X143017419Y-106857856D02*
X143017419Y-106619761D01*
X143017419Y-106619761D02*
X143065038Y-106524523D01*
X143065038Y-106524523D02*
X143112657Y-106476904D01*
X143112657Y-106476904D02*
X143207895Y-106429285D01*
X143207895Y-106429285D02*
X143303133Y-106429285D01*
X143303133Y-106429285D02*
X143445990Y-106476904D01*
X143445990Y-106476904D02*
X144017419Y-107048332D01*
X144017419Y-107048332D02*
X144017419Y-106429285D01*
D11*
X149284819Y-74015357D02*
X148808628Y-74348690D01*
X149284819Y-74586785D02*
X148284819Y-74586785D01*
X148284819Y-74586785D02*
X148284819Y-74205833D01*
X148284819Y-74205833D02*
X148332438Y-74110595D01*
X148332438Y-74110595D02*
X148380057Y-74062976D01*
X148380057Y-74062976D02*
X148475295Y-74015357D01*
X148475295Y-74015357D02*
X148618152Y-74015357D01*
X148618152Y-74015357D02*
X148713390Y-74062976D01*
X148713390Y-74062976D02*
X148761009Y-74110595D01*
X148761009Y-74110595D02*
X148808628Y-74205833D01*
X148808628Y-74205833D02*
X148808628Y-74586785D01*
X149284819Y-73062976D02*
X149284819Y-73634404D01*
X149284819Y-73348690D02*
X148284819Y-73348690D01*
X148284819Y-73348690D02*
X148427676Y-73443928D01*
X148427676Y-73443928D02*
X148522914Y-73539166D01*
X148522914Y-73539166D02*
X148570533Y-73634404D01*
X148284819Y-72443928D02*
X148284819Y-72348690D01*
X148284819Y-72348690D02*
X148332438Y-72253452D01*
X148332438Y-72253452D02*
X148380057Y-72205833D01*
X148380057Y-72205833D02*
X148475295Y-72158214D01*
X148475295Y-72158214D02*
X148665771Y-72110595D01*
X148665771Y-72110595D02*
X148903866Y-72110595D01*
X148903866Y-72110595D02*
X149094342Y-72158214D01*
X149094342Y-72158214D02*
X149189580Y-72205833D01*
X149189580Y-72205833D02*
X149237200Y-72253452D01*
X149237200Y-72253452D02*
X149284819Y-72348690D01*
X149284819Y-72348690D02*
X149284819Y-72443928D01*
X149284819Y-72443928D02*
X149237200Y-72539166D01*
X149237200Y-72539166D02*
X149189580Y-72586785D01*
X149189580Y-72586785D02*
X149094342Y-72634404D01*
X149094342Y-72634404D02*
X148903866Y-72682023D01*
X148903866Y-72682023D02*
X148665771Y-72682023D01*
X148665771Y-72682023D02*
X148475295Y-72634404D01*
X148475295Y-72634404D02*
X148380057Y-72586785D01*
X148380057Y-72586785D02*
X148332438Y-72539166D01*
X148332438Y-72539166D02*
X148284819Y-72443928D01*
X146034819Y-111119166D02*
X145558628Y-111452499D01*
X146034819Y-111690594D02*
X145034819Y-111690594D01*
X145034819Y-111690594D02*
X145034819Y-111309642D01*
X145034819Y-111309642D02*
X145082438Y-111214404D01*
X145082438Y-111214404D02*
X145130057Y-111166785D01*
X145130057Y-111166785D02*
X145225295Y-111119166D01*
X145225295Y-111119166D02*
X145368152Y-111119166D01*
X145368152Y-111119166D02*
X145463390Y-111166785D01*
X145463390Y-111166785D02*
X145511009Y-111214404D01*
X145511009Y-111214404D02*
X145558628Y-111309642D01*
X145558628Y-111309642D02*
X145558628Y-111690594D01*
X146034819Y-110166785D02*
X146034819Y-110738213D01*
X146034819Y-110452499D02*
X145034819Y-110452499D01*
X145034819Y-110452499D02*
X145177676Y-110547737D01*
X145177676Y-110547737D02*
X145272914Y-110642975D01*
X145272914Y-110642975D02*
X145320533Y-110738213D01*
X141104819Y-73569166D02*
X140628628Y-73902499D01*
X141104819Y-74140594D02*
X140104819Y-74140594D01*
X140104819Y-74140594D02*
X140104819Y-73759642D01*
X140104819Y-73759642D02*
X140152438Y-73664404D01*
X140152438Y-73664404D02*
X140200057Y-73616785D01*
X140200057Y-73616785D02*
X140295295Y-73569166D01*
X140295295Y-73569166D02*
X140438152Y-73569166D01*
X140438152Y-73569166D02*
X140533390Y-73616785D01*
X140533390Y-73616785D02*
X140581009Y-73664404D01*
X140581009Y-73664404D02*
X140628628Y-73759642D01*
X140628628Y-73759642D02*
X140628628Y-74140594D01*
X140104819Y-72712023D02*
X140104819Y-72902499D01*
X140104819Y-72902499D02*
X140152438Y-72997737D01*
X140152438Y-72997737D02*
X140200057Y-73045356D01*
X140200057Y-73045356D02*
X140342914Y-73140594D01*
X140342914Y-73140594D02*
X140533390Y-73188213D01*
X140533390Y-73188213D02*
X140914342Y-73188213D01*
X140914342Y-73188213D02*
X141009580Y-73140594D01*
X141009580Y-73140594D02*
X141057200Y-73092975D01*
X141057200Y-73092975D02*
X141104819Y-72997737D01*
X141104819Y-72997737D02*
X141104819Y-72807261D01*
X141104819Y-72807261D02*
X141057200Y-72712023D01*
X141057200Y-72712023D02*
X141009580Y-72664404D01*
X141009580Y-72664404D02*
X140914342Y-72616785D01*
X140914342Y-72616785D02*
X140676247Y-72616785D01*
X140676247Y-72616785D02*
X140581009Y-72664404D01*
X140581009Y-72664404D02*
X140533390Y-72712023D01*
X140533390Y-72712023D02*
X140485771Y-72807261D01*
X140485771Y-72807261D02*
X140485771Y-72997737D01*
X140485771Y-72997737D02*
X140533390Y-73092975D01*
X140533390Y-73092975D02*
X140581009Y-73140594D01*
X140581009Y-73140594D02*
X140676247Y-73188213D01*
X130660057Y-89855238D02*
X130612438Y-89950476D01*
X130612438Y-89950476D02*
X130517200Y-90045714D01*
X130517200Y-90045714D02*
X130374342Y-90188571D01*
X130374342Y-90188571D02*
X130326723Y-90283809D01*
X130326723Y-90283809D02*
X130326723Y-90379047D01*
X130564819Y-90331428D02*
X130517200Y-90426666D01*
X130517200Y-90426666D02*
X130421961Y-90521904D01*
X130421961Y-90521904D02*
X130231485Y-90569523D01*
X130231485Y-90569523D02*
X129898152Y-90569523D01*
X129898152Y-90569523D02*
X129707676Y-90521904D01*
X129707676Y-90521904D02*
X129612438Y-90426666D01*
X129612438Y-90426666D02*
X129564819Y-90331428D01*
X129564819Y-90331428D02*
X129564819Y-90140952D01*
X129564819Y-90140952D02*
X129612438Y-90045714D01*
X129612438Y-90045714D02*
X129707676Y-89950476D01*
X129707676Y-89950476D02*
X129898152Y-89902857D01*
X129898152Y-89902857D02*
X130231485Y-89902857D01*
X130231485Y-89902857D02*
X130421961Y-89950476D01*
X130421961Y-89950476D02*
X130517200Y-90045714D01*
X130517200Y-90045714D02*
X130564819Y-90140952D01*
X130564819Y-90140952D02*
X130564819Y-90331428D01*
X130564819Y-88950476D02*
X130564819Y-89521904D01*
X130564819Y-89236190D02*
X129564819Y-89236190D01*
X129564819Y-89236190D02*
X129707676Y-89331428D01*
X129707676Y-89331428D02*
X129802914Y-89426666D01*
X129802914Y-89426666D02*
X129850533Y-89521904D01*
X140004819Y-111129166D02*
X139528628Y-111462499D01*
X140004819Y-111700594D02*
X139004819Y-111700594D01*
X139004819Y-111700594D02*
X139004819Y-111319642D01*
X139004819Y-111319642D02*
X139052438Y-111224404D01*
X139052438Y-111224404D02*
X139100057Y-111176785D01*
X139100057Y-111176785D02*
X139195295Y-111129166D01*
X139195295Y-111129166D02*
X139338152Y-111129166D01*
X139338152Y-111129166D02*
X139433390Y-111176785D01*
X139433390Y-111176785D02*
X139481009Y-111224404D01*
X139481009Y-111224404D02*
X139528628Y-111319642D01*
X139528628Y-111319642D02*
X139528628Y-111700594D01*
X139338152Y-110272023D02*
X140004819Y-110272023D01*
X138957200Y-110510118D02*
X139671485Y-110748213D01*
X139671485Y-110748213D02*
X139671485Y-110129166D01*
X143124819Y-73569166D02*
X142648628Y-73902499D01*
X143124819Y-74140594D02*
X142124819Y-74140594D01*
X142124819Y-74140594D02*
X142124819Y-73759642D01*
X142124819Y-73759642D02*
X142172438Y-73664404D01*
X142172438Y-73664404D02*
X142220057Y-73616785D01*
X142220057Y-73616785D02*
X142315295Y-73569166D01*
X142315295Y-73569166D02*
X142458152Y-73569166D01*
X142458152Y-73569166D02*
X142553390Y-73616785D01*
X142553390Y-73616785D02*
X142601009Y-73664404D01*
X142601009Y-73664404D02*
X142648628Y-73759642D01*
X142648628Y-73759642D02*
X142648628Y-74140594D01*
X142124819Y-73235832D02*
X142124819Y-72569166D01*
X142124819Y-72569166D02*
X143124819Y-72997737D01*
D10*
X142092580Y-75966905D02*
X143092580Y-75966905D01*
X143092580Y-75966905D02*
X143092580Y-76205000D01*
X143092580Y-76205000D02*
X143044961Y-76347857D01*
X143044961Y-76347857D02*
X142949723Y-76443095D01*
X142949723Y-76443095D02*
X142854485Y-76490714D01*
X142854485Y-76490714D02*
X142664009Y-76538333D01*
X142664009Y-76538333D02*
X142521152Y-76538333D01*
X142521152Y-76538333D02*
X142330676Y-76490714D01*
X142330676Y-76490714D02*
X142235438Y-76443095D01*
X142235438Y-76443095D02*
X142140200Y-76347857D01*
X142140200Y-76347857D02*
X142092580Y-76205000D01*
X142092580Y-76205000D02*
X142092580Y-75966905D01*
X143092580Y-76871667D02*
X143092580Y-77538333D01*
X143092580Y-77538333D02*
X142092580Y-77109762D01*
D11*
X145144819Y-73549166D02*
X144668628Y-73882499D01*
X145144819Y-74120594D02*
X144144819Y-74120594D01*
X144144819Y-74120594D02*
X144144819Y-73739642D01*
X144144819Y-73739642D02*
X144192438Y-73644404D01*
X144192438Y-73644404D02*
X144240057Y-73596785D01*
X144240057Y-73596785D02*
X144335295Y-73549166D01*
X144335295Y-73549166D02*
X144478152Y-73549166D01*
X144478152Y-73549166D02*
X144573390Y-73596785D01*
X144573390Y-73596785D02*
X144621009Y-73644404D01*
X144621009Y-73644404D02*
X144668628Y-73739642D01*
X144668628Y-73739642D02*
X144668628Y-74120594D01*
X144573390Y-72977737D02*
X144525771Y-73072975D01*
X144525771Y-73072975D02*
X144478152Y-73120594D01*
X144478152Y-73120594D02*
X144382914Y-73168213D01*
X144382914Y-73168213D02*
X144335295Y-73168213D01*
X144335295Y-73168213D02*
X144240057Y-73120594D01*
X144240057Y-73120594D02*
X144192438Y-73072975D01*
X144192438Y-73072975D02*
X144144819Y-72977737D01*
X144144819Y-72977737D02*
X144144819Y-72787261D01*
X144144819Y-72787261D02*
X144192438Y-72692023D01*
X144192438Y-72692023D02*
X144240057Y-72644404D01*
X144240057Y-72644404D02*
X144335295Y-72596785D01*
X144335295Y-72596785D02*
X144382914Y-72596785D01*
X144382914Y-72596785D02*
X144478152Y-72644404D01*
X144478152Y-72644404D02*
X144525771Y-72692023D01*
X144525771Y-72692023D02*
X144573390Y-72787261D01*
X144573390Y-72787261D02*
X144573390Y-72977737D01*
X144573390Y-72977737D02*
X144621009Y-73072975D01*
X144621009Y-73072975D02*
X144668628Y-73120594D01*
X144668628Y-73120594D02*
X144763866Y-73168213D01*
X144763866Y-73168213D02*
X144954342Y-73168213D01*
X144954342Y-73168213D02*
X145049580Y-73120594D01*
X145049580Y-73120594D02*
X145097200Y-73072975D01*
X145097200Y-73072975D02*
X145144819Y-72977737D01*
X145144819Y-72977737D02*
X145144819Y-72787261D01*
X145144819Y-72787261D02*
X145097200Y-72692023D01*
X145097200Y-72692023D02*
X145049580Y-72644404D01*
X145049580Y-72644404D02*
X144954342Y-72596785D01*
X144954342Y-72596785D02*
X144763866Y-72596785D01*
X144763866Y-72596785D02*
X144668628Y-72644404D01*
X144668628Y-72644404D02*
X144621009Y-72692023D01*
X144621009Y-72692023D02*
X144573390Y-72787261D01*
D10*
X148322580Y-75520714D02*
X149322580Y-75520714D01*
X149322580Y-75520714D02*
X149322580Y-75758809D01*
X149322580Y-75758809D02*
X149274961Y-75901666D01*
X149274961Y-75901666D02*
X149179723Y-75996904D01*
X149179723Y-75996904D02*
X149084485Y-76044523D01*
X149084485Y-76044523D02*
X148894009Y-76092142D01*
X148894009Y-76092142D02*
X148751152Y-76092142D01*
X148751152Y-76092142D02*
X148560676Y-76044523D01*
X148560676Y-76044523D02*
X148465438Y-75996904D01*
X148465438Y-75996904D02*
X148370200Y-75901666D01*
X148370200Y-75901666D02*
X148322580Y-75758809D01*
X148322580Y-75758809D02*
X148322580Y-75520714D01*
X148322580Y-77044523D02*
X148322580Y-76473095D01*
X148322580Y-76758809D02*
X149322580Y-76758809D01*
X149322580Y-76758809D02*
X149179723Y-76663571D01*
X149179723Y-76663571D02*
X149084485Y-76568333D01*
X149084485Y-76568333D02*
X149036866Y-76473095D01*
X149322580Y-77663571D02*
X149322580Y-77758809D01*
X149322580Y-77758809D02*
X149274961Y-77854047D01*
X149274961Y-77854047D02*
X149227342Y-77901666D01*
X149227342Y-77901666D02*
X149132104Y-77949285D01*
X149132104Y-77949285D02*
X148941628Y-77996904D01*
X148941628Y-77996904D02*
X148703533Y-77996904D01*
X148703533Y-77996904D02*
X148513057Y-77949285D01*
X148513057Y-77949285D02*
X148417819Y-77901666D01*
X148417819Y-77901666D02*
X148370200Y-77854047D01*
X148370200Y-77854047D02*
X148322580Y-77758809D01*
X148322580Y-77758809D02*
X148322580Y-77663571D01*
X148322580Y-77663571D02*
X148370200Y-77568333D01*
X148370200Y-77568333D02*
X148417819Y-77520714D01*
X148417819Y-77520714D02*
X148513057Y-77473095D01*
X148513057Y-77473095D02*
X148703533Y-77425476D01*
X148703533Y-77425476D02*
X148941628Y-77425476D01*
X148941628Y-77425476D02*
X149132104Y-77473095D01*
X149132104Y-77473095D02*
X149227342Y-77520714D01*
X149227342Y-77520714D02*
X149274961Y-77568333D01*
X149274961Y-77568333D02*
X149322580Y-77663571D01*
X144222580Y-75986905D02*
X145222580Y-75986905D01*
X145222580Y-75986905D02*
X145222580Y-76225000D01*
X145222580Y-76225000D02*
X145174961Y-76367857D01*
X145174961Y-76367857D02*
X145079723Y-76463095D01*
X145079723Y-76463095D02*
X144984485Y-76510714D01*
X144984485Y-76510714D02*
X144794009Y-76558333D01*
X144794009Y-76558333D02*
X144651152Y-76558333D01*
X144651152Y-76558333D02*
X144460676Y-76510714D01*
X144460676Y-76510714D02*
X144365438Y-76463095D01*
X144365438Y-76463095D02*
X144270200Y-76367857D01*
X144270200Y-76367857D02*
X144222580Y-76225000D01*
X144222580Y-76225000D02*
X144222580Y-75986905D01*
X144794009Y-77129762D02*
X144841628Y-77034524D01*
X144841628Y-77034524D02*
X144889247Y-76986905D01*
X144889247Y-76986905D02*
X144984485Y-76939286D01*
X144984485Y-76939286D02*
X145032104Y-76939286D01*
X145032104Y-76939286D02*
X145127342Y-76986905D01*
X145127342Y-76986905D02*
X145174961Y-77034524D01*
X145174961Y-77034524D02*
X145222580Y-77129762D01*
X145222580Y-77129762D02*
X145222580Y-77320238D01*
X145222580Y-77320238D02*
X145174961Y-77415476D01*
X145174961Y-77415476D02*
X145127342Y-77463095D01*
X145127342Y-77463095D02*
X145032104Y-77510714D01*
X145032104Y-77510714D02*
X144984485Y-77510714D01*
X144984485Y-77510714D02*
X144889247Y-77463095D01*
X144889247Y-77463095D02*
X144841628Y-77415476D01*
X144841628Y-77415476D02*
X144794009Y-77320238D01*
X144794009Y-77320238D02*
X144794009Y-77129762D01*
X144794009Y-77129762D02*
X144746390Y-77034524D01*
X144746390Y-77034524D02*
X144698771Y-76986905D01*
X144698771Y-76986905D02*
X144603533Y-76939286D01*
X144603533Y-76939286D02*
X144413057Y-76939286D01*
X144413057Y-76939286D02*
X144317819Y-76986905D01*
X144317819Y-76986905D02*
X144270200Y-77034524D01*
X144270200Y-77034524D02*
X144222580Y-77129762D01*
X144222580Y-77129762D02*
X144222580Y-77320238D01*
X144222580Y-77320238D02*
X144270200Y-77415476D01*
X144270200Y-77415476D02*
X144317819Y-77463095D01*
X144317819Y-77463095D02*
X144413057Y-77510714D01*
X144413057Y-77510714D02*
X144603533Y-77510714D01*
X144603533Y-77510714D02*
X144698771Y-77463095D01*
X144698771Y-77463095D02*
X144746390Y-77415476D01*
X144746390Y-77415476D02*
X144794009Y-77320238D01*
X146282580Y-75986905D02*
X147282580Y-75986905D01*
X147282580Y-75986905D02*
X147282580Y-76225000D01*
X147282580Y-76225000D02*
X147234961Y-76367857D01*
X147234961Y-76367857D02*
X147139723Y-76463095D01*
X147139723Y-76463095D02*
X147044485Y-76510714D01*
X147044485Y-76510714D02*
X146854009Y-76558333D01*
X146854009Y-76558333D02*
X146711152Y-76558333D01*
X146711152Y-76558333D02*
X146520676Y-76510714D01*
X146520676Y-76510714D02*
X146425438Y-76463095D01*
X146425438Y-76463095D02*
X146330200Y-76367857D01*
X146330200Y-76367857D02*
X146282580Y-76225000D01*
X146282580Y-76225000D02*
X146282580Y-75986905D01*
X146282580Y-77034524D02*
X146282580Y-77225000D01*
X146282580Y-77225000D02*
X146330200Y-77320238D01*
X146330200Y-77320238D02*
X146377819Y-77367857D01*
X146377819Y-77367857D02*
X146520676Y-77463095D01*
X146520676Y-77463095D02*
X146711152Y-77510714D01*
X146711152Y-77510714D02*
X147092104Y-77510714D01*
X147092104Y-77510714D02*
X147187342Y-77463095D01*
X147187342Y-77463095D02*
X147234961Y-77415476D01*
X147234961Y-77415476D02*
X147282580Y-77320238D01*
X147282580Y-77320238D02*
X147282580Y-77129762D01*
X147282580Y-77129762D02*
X147234961Y-77034524D01*
X147234961Y-77034524D02*
X147187342Y-76986905D01*
X147187342Y-76986905D02*
X147092104Y-76939286D01*
X147092104Y-76939286D02*
X146854009Y-76939286D01*
X146854009Y-76939286D02*
X146758771Y-76986905D01*
X146758771Y-76986905D02*
X146711152Y-77034524D01*
X146711152Y-77034524D02*
X146663533Y-77129762D01*
X146663533Y-77129762D02*
X146663533Y-77320238D01*
X146663533Y-77320238D02*
X146711152Y-77415476D01*
X146711152Y-77415476D02*
X146758771Y-77463095D01*
X146758771Y-77463095D02*
X146854009Y-77510714D01*
X145804919Y-107958094D02*
X144804919Y-107958094D01*
X144804919Y-107958094D02*
X144804919Y-107719999D01*
X144804919Y-107719999D02*
X144852538Y-107577142D01*
X144852538Y-107577142D02*
X144947776Y-107481904D01*
X144947776Y-107481904D02*
X145043014Y-107434285D01*
X145043014Y-107434285D02*
X145233490Y-107386666D01*
X145233490Y-107386666D02*
X145376347Y-107386666D01*
X145376347Y-107386666D02*
X145566823Y-107434285D01*
X145566823Y-107434285D02*
X145662061Y-107481904D01*
X145662061Y-107481904D02*
X145757300Y-107577142D01*
X145757300Y-107577142D02*
X145804919Y-107719999D01*
X145804919Y-107719999D02*
X145804919Y-107958094D01*
X145804919Y-106434285D02*
X145804919Y-107005713D01*
X145804919Y-106719999D02*
X144804919Y-106719999D01*
X144804919Y-106719999D02*
X144947776Y-106815237D01*
X144947776Y-106815237D02*
X145043014Y-106910475D01*
X145043014Y-106910475D02*
X145090633Y-107005713D01*
X140027419Y-108013094D02*
X139027419Y-108013094D01*
X139027419Y-108013094D02*
X139027419Y-107774999D01*
X139027419Y-107774999D02*
X139075038Y-107632142D01*
X139075038Y-107632142D02*
X139170276Y-107536904D01*
X139170276Y-107536904D02*
X139265514Y-107489285D01*
X139265514Y-107489285D02*
X139455990Y-107441666D01*
X139455990Y-107441666D02*
X139598847Y-107441666D01*
X139598847Y-107441666D02*
X139789323Y-107489285D01*
X139789323Y-107489285D02*
X139884561Y-107536904D01*
X139884561Y-107536904D02*
X139979800Y-107632142D01*
X139979800Y-107632142D02*
X140027419Y-107774999D01*
X140027419Y-107774999D02*
X140027419Y-108013094D01*
X139360752Y-106584523D02*
X140027419Y-106584523D01*
X138979800Y-106822618D02*
X139694085Y-107060713D01*
X139694085Y-107060713D02*
X139694085Y-106441666D01*
%TO.C,D3*%
X142360000Y-108375000D02*
X142460000Y-108375000D01*
X142360000Y-108375000D02*
X142360000Y-106175000D01*
X143950000Y-108375000D02*
X143850000Y-108375000D01*
X143960000Y-108375000D02*
X143960000Y-106175000D01*
X142360000Y-106175000D02*
X142440000Y-106175000D01*
X143960000Y-106175000D02*
X143850000Y-106175000D01*
D12*
%TO.C,R11*%
X130875000Y-100504564D02*
X130875000Y-100050436D01*
X132345000Y-100504564D02*
X132345000Y-100050436D01*
D10*
%TO.C,D6*%
X139820000Y-75605000D02*
X139720000Y-75605000D01*
X139820000Y-75605000D02*
X139820000Y-77805000D01*
X138230000Y-75605000D02*
X138330000Y-75605000D01*
X138220000Y-75605000D02*
X138220000Y-77805000D01*
X139820000Y-77805000D02*
X139740000Y-77805000D01*
X138220000Y-77805000D02*
X138330000Y-77805000D01*
D12*
%TO.C,R3*%
X142465000Y-111199564D02*
X142465000Y-110745436D01*
X143935000Y-111199564D02*
X143935000Y-110745436D01*
D10*
%TO.C,D5*%
X138340000Y-108395000D02*
X138440000Y-108395000D01*
X138340000Y-108395000D02*
X138340000Y-106195000D01*
X139930000Y-108395000D02*
X139830000Y-108395000D01*
X139940000Y-108395000D02*
X139940000Y-106195000D01*
X138340000Y-106195000D02*
X138420000Y-106195000D01*
X139940000Y-106195000D02*
X139830000Y-106195000D01*
D12*
%TO.C,R5*%
X138415000Y-111189564D02*
X138415000Y-110735436D01*
X139885000Y-111189564D02*
X139885000Y-110735436D01*
%TO.C,R9*%
X145845000Y-73145436D02*
X145845000Y-73599564D01*
X144375000Y-73145436D02*
X144375000Y-73599564D01*
%TO.C,R2*%
X144475000Y-111179564D02*
X144475000Y-110725436D01*
X145945000Y-111179564D02*
X145945000Y-110725436D01*
D10*
%TO.C,D2*%
X144360000Y-108315000D02*
X144460000Y-108315000D01*
X144360000Y-108315000D02*
X144360000Y-106115000D01*
X145950000Y-108315000D02*
X145850000Y-108315000D01*
X145960000Y-108315000D02*
X145960000Y-106115000D01*
X144360000Y-106115000D02*
X144440000Y-106115000D01*
X145960000Y-106115000D02*
X145850000Y-106115000D01*
D12*
%TO.C,R10*%
X147915000Y-73145436D02*
X147915000Y-73599564D01*
X146445000Y-73145436D02*
X146445000Y-73599564D01*
%TO.C,R1*%
X146495000Y-111179564D02*
X146495000Y-110725436D01*
X147965000Y-111179564D02*
X147965000Y-110725436D01*
%TO.C,R6*%
X139735000Y-73175436D02*
X139735000Y-73629564D01*
X138265000Y-73175436D02*
X138265000Y-73629564D01*
%TO.C,Q1*%
X133220000Y-90390000D02*
X133220000Y-88980000D01*
X130900000Y-88980000D02*
X130900000Y-91010000D01*
X130900000Y-88980000D02*
X131560000Y-88980000D01*
X132560000Y-88980000D02*
X133220000Y-88980000D01*
%TO.C,R4*%
X140465000Y-111189564D02*
X140465000Y-110735436D01*
X141935000Y-111189564D02*
X141935000Y-110735436D01*
%TO.C,R7*%
X141755000Y-73175436D02*
X141755000Y-73629564D01*
X140285000Y-73175436D02*
X140285000Y-73629564D01*
D10*
%TO.C,D7*%
X141750000Y-75605000D02*
X141650000Y-75605000D01*
X141750000Y-75605000D02*
X141750000Y-77805000D01*
X140160000Y-75605000D02*
X140260000Y-75605000D01*
X140150000Y-75605000D02*
X140150000Y-77805000D01*
X141750000Y-77805000D02*
X141670000Y-77805000D01*
X140150000Y-77805000D02*
X140260000Y-77805000D01*
D12*
%TO.C,R8*%
X143775000Y-73155436D02*
X143775000Y-73609564D01*
X142305000Y-73155436D02*
X142305000Y-73609564D01*
D10*
%TO.C,D10*%
X147980000Y-75635000D02*
X147880000Y-75635000D01*
X147980000Y-75635000D02*
X147980000Y-77835000D01*
X146390000Y-75635000D02*
X146490000Y-75635000D01*
X146380000Y-75635000D02*
X146380000Y-77835000D01*
X147980000Y-77835000D02*
X147900000Y-77835000D01*
X146380000Y-77835000D02*
X146490000Y-77835000D01*
%TO.C,D8*%
X143880000Y-75625000D02*
X143780000Y-75625000D01*
X143880000Y-75625000D02*
X143880000Y-77825000D01*
X142290000Y-75625000D02*
X142390000Y-75625000D01*
X142280000Y-75625000D02*
X142280000Y-77825000D01*
X143880000Y-77825000D02*
X143800000Y-77825000D01*
X142280000Y-77825000D02*
X142390000Y-77825000D01*
%TO.C,D9*%
X145940000Y-75625000D02*
X145840000Y-75625000D01*
X145940000Y-75625000D02*
X145940000Y-77825000D01*
X144350000Y-75625000D02*
X144450000Y-75625000D01*
X144340000Y-75625000D02*
X144340000Y-77825000D01*
X145940000Y-77825000D02*
X145860000Y-77825000D01*
X144340000Y-77825000D02*
X144450000Y-77825000D01*
%TO.C,D1*%
X146147500Y-108320000D02*
X146247500Y-108320000D01*
X146147500Y-108320000D02*
X146147500Y-106120000D01*
X147737500Y-108320000D02*
X147637500Y-108320000D01*
X147747500Y-108320000D02*
X147747500Y-106120000D01*
X146147500Y-106120000D02*
X146227500Y-106120000D01*
X147747500Y-106120000D02*
X147637500Y-106120000D01*
%TO.C,D4*%
X140370000Y-108375000D02*
X140470000Y-108375000D01*
X140370000Y-108375000D02*
X140370000Y-106175000D01*
X141960000Y-108375000D02*
X141860000Y-108375000D01*
X141970000Y-108375000D02*
X141970000Y-106175000D01*
X140370000Y-106175000D02*
X140450000Y-106175000D01*
X141970000Y-106175000D02*
X141860000Y-106175000D01*
%TD*%
M02*
