M48
; DRILL file {KiCad 7.0.8-7.0.8~ubuntu22.04.1} date Sat 23 Dec 2023 05:01:10 PM CET
; FORMAT={-:-/ absolute / inch / decimal}
; #@! TF.CreationDate,2023-12-23T17:01:10+01:00
; #@! TF.GenerationSoftware,Kicad,Pcbnew,7.0.8-7.0.8~ubuntu22.04.1
; #@! TF.FileFunction,Plated,1,2,PTH
FMAT,2
INCH
; #@! TA.AperFunction,Plated,PTH,ComponentDrill
T1C0.0300
%
G90
G05
T1
X4.9703Y-2.9882
X4.9703Y-3.0882
X4.9703Y-3.1882
X4.9703Y-3.2882
X4.9703Y-3.3882
X4.9703Y-3.4882
X4.9703Y-3.5882
X4.9703Y-3.6882
X4.9703Y-3.7882
X4.9703Y-3.8882
X4.9703Y-3.9882
X4.9703Y-4.0882
X4.9703Y-4.1882
X4.9703Y-4.2882
X4.9703Y-4.3882
X5.9703Y-2.9882
X5.9703Y-3.0882
X5.9703Y-3.1882
X5.9703Y-3.2882
X5.9703Y-3.3882
X5.9703Y-3.4882
X5.9703Y-3.5882
X5.9703Y-3.6882
X5.9703Y-3.7882
X5.9703Y-3.8882
X5.9703Y-3.9882
X5.9703Y-4.0882
X5.9703Y-4.1882
X5.9703Y-4.2882
X5.9703Y-4.3882
T0
M30
