%TF.GenerationSoftware,KiCad,Pcbnew,7.0.8-7.0.8~ubuntu22.04.1*%
%TF.CreationDate,2023-12-23T17:01:05+01:00*%
%TF.ProjectId,Smart_Light,536d6172-745f-44c6-9967-68742e6b6963,rev?*%
%TF.SameCoordinates,Original*%
%TF.FileFunction,Paste,Top*%
%TF.FilePolarity,Positive*%
%FSLAX46Y46*%
G04 Gerber Fmt 4.6, Leading zero omitted, Abs format (unit mm)*
G04 Created by KiCad (PCBNEW 7.0.8-7.0.8~ubuntu22.04.1) date 2023-12-23 17:01:05*
%MOMM*%
%LPD*%
G01*
G04 APERTURE LIST*
G04 Aperture macros list*
%AMRoundRect*
0 Rectangle with rounded corners*
0 $1 Rounding radius*
0 $2 $3 $4 $5 $6 $7 $8 $9 X,Y pos of 4 corners*
0 Add a 4 corners polygon primitive as box body*
4,1,4,$2,$3,$4,$5,$6,$7,$8,$9,$2,$3,0*
0 Add four circle primitives for the rounded corners*
1,1,$1+$1,$2,$3*
1,1,$1+$1,$4,$5*
1,1,$1+$1,$6,$7*
1,1,$1+$1,$8,$9*
0 Add four rect primitives between the rounded corners*
20,1,$1+$1,$2,$3,$4,$5,0*
20,1,$1+$1,$4,$5,$6,$7,0*
20,1,$1+$1,$6,$7,$8,$9,0*
20,1,$1+$1,$8,$9,$2,$3,0*%
G04 Aperture macros list end*
%ADD10RoundRect,0.050000X0.530000X-0.325000X0.530000X0.325000X-0.530000X0.325000X-0.530000X-0.325000X0*%
%ADD11RoundRect,0.077333X0.502667X-0.672667X0.502667X0.672667X-0.502667X0.672667X-0.502667X-0.672667X0*%
%ADD12RoundRect,0.250000X0.450000X-0.262500X0.450000X0.262500X-0.450000X0.262500X-0.450000X-0.262500X0*%
%ADD13RoundRect,0.050000X-0.530000X0.325000X-0.530000X-0.325000X0.530000X-0.325000X0.530000X0.325000X0*%
%ADD14RoundRect,0.077333X-0.502667X0.672667X-0.502667X-0.672667X0.502667X-0.672667X0.502667X0.672667X0*%
%ADD15RoundRect,0.250000X-0.450000X0.262500X-0.450000X-0.262500X0.450000X-0.262500X0.450000X0.262500X0*%
%ADD16R,0.450000X0.700000*%
G04 APERTURE END LIST*
D10*
%TO.C,D3*%
X143160000Y-106350000D03*
D11*
X143160000Y-107825000D03*
%TD*%
D12*
%TO.C,R11*%
X131610000Y-101190000D03*
X131610000Y-99365000D03*
%TD*%
D13*
%TO.C,D6*%
X139020000Y-77630000D03*
D14*
X139020000Y-76155000D03*
%TD*%
D12*
%TO.C,R3*%
X143200000Y-111885000D03*
X143200000Y-110060000D03*
%TD*%
D10*
%TO.C,D5*%
X139140000Y-106370000D03*
D11*
X139140000Y-107845000D03*
%TD*%
D12*
%TO.C,R5*%
X139150000Y-111875000D03*
X139150000Y-110050000D03*
%TD*%
D15*
%TO.C,R9*%
X145110000Y-72460000D03*
X145110000Y-74285000D03*
%TD*%
D12*
%TO.C,R2*%
X145210000Y-111865000D03*
X145210000Y-110040000D03*
%TD*%
D10*
%TO.C,D2*%
X145160000Y-106290000D03*
D11*
X145160000Y-107765000D03*
%TD*%
D15*
%TO.C,R10*%
X147180000Y-72460000D03*
X147180000Y-74285000D03*
%TD*%
D12*
%TO.C,R1*%
X147230000Y-111865000D03*
X147230000Y-110040000D03*
%TD*%
D15*
%TO.C,R6*%
X139000000Y-72490000D03*
X139000000Y-74315000D03*
%TD*%
D16*
%TO.C,Q1*%
X131410000Y-90710000D03*
X132710000Y-90710000D03*
X132060000Y-88710000D03*
%TD*%
D12*
%TO.C,R4*%
X141200000Y-111875000D03*
X141200000Y-110050000D03*
%TD*%
D15*
%TO.C,R7*%
X141020000Y-72490000D03*
X141020000Y-74315000D03*
%TD*%
D13*
%TO.C,D7*%
X140950000Y-77630000D03*
D14*
X140950000Y-76155000D03*
%TD*%
D15*
%TO.C,R8*%
X143040000Y-72470000D03*
X143040000Y-74295000D03*
%TD*%
D13*
%TO.C,D10*%
X147180000Y-77660000D03*
D14*
X147180000Y-76185000D03*
%TD*%
D13*
%TO.C,D8*%
X143080000Y-77650000D03*
D14*
X143080000Y-76175000D03*
%TD*%
D13*
%TO.C,D9*%
X145140000Y-77650000D03*
D14*
X145140000Y-76175000D03*
%TD*%
D10*
%TO.C,D1*%
X146947500Y-106295000D03*
D11*
X146947500Y-107770000D03*
%TD*%
D10*
%TO.C,D4*%
X141170000Y-106350000D03*
D11*
X141170000Y-107825000D03*
%TD*%
M02*
