%TF.GenerationSoftware,KiCad,Pcbnew,7.0.8-7.0.8~ubuntu22.04.1*%
%TF.CreationDate,2023-12-23T17:01:04+01:00*%
%TF.ProjectId,Smart_Light,536d6172-745f-44c6-9967-68742e6b6963,rev?*%
%TF.SameCoordinates,Original*%
%TF.FileFunction,Copper,L1,Top*%
%TF.FilePolarity,Positive*%
%FSLAX46Y46*%
G04 Gerber Fmt 4.6, Leading zero omitted, Abs format (unit mm)*
G04 Created by KiCad (PCBNEW 7.0.8-7.0.8~ubuntu22.04.1) date 2023-12-23 17:01:04*
%MOMM*%
%LPD*%
G01*
G04 APERTURE LIST*
G04 Aperture macros list*
%AMRoundRect*
0 Rectangle with rounded corners*
0 $1 Rounding radius*
0 $2 $3 $4 $5 $6 $7 $8 $9 X,Y pos of 4 corners*
0 Add a 4 corners polygon primitive as box body*
4,1,4,$2,$3,$4,$5,$6,$7,$8,$9,$2,$3,0*
0 Add four circle primitives for the rounded corners*
1,1,$1+$1,$2,$3*
1,1,$1+$1,$4,$5*
1,1,$1+$1,$6,$7*
1,1,$1+$1,$8,$9*
0 Add four rect primitives between the rounded corners*
20,1,$1+$1,$2,$3,$4,$5,0*
20,1,$1+$1,$4,$5,$6,$7,0*
20,1,$1+$1,$6,$7,$8,$9,0*
20,1,$1+$1,$8,$9,$2,$3,0*%
G04 Aperture macros list end*
%ADD10C,0.300000*%
%TA.AperFunction,SMDPad,CuDef*%
%ADD11RoundRect,0.050000X0.530000X-0.325000X0.530000X0.325000X-0.530000X0.325000X-0.530000X-0.325000X0*%
%TD*%
%TA.AperFunction,SMDPad,CuDef*%
%ADD12RoundRect,0.077333X0.502667X-0.672667X0.502667X0.672667X-0.502667X0.672667X-0.502667X-0.672667X0*%
%TD*%
%TA.AperFunction,SMDPad,CuDef*%
%ADD13RoundRect,0.250000X0.450000X-0.262500X0.450000X0.262500X-0.450000X0.262500X-0.450000X-0.262500X0*%
%TD*%
%TA.AperFunction,SMDPad,CuDef*%
%ADD14RoundRect,0.050000X-0.530000X0.325000X-0.530000X-0.325000X0.530000X-0.325000X0.530000X0.325000X0*%
%TD*%
%TA.AperFunction,SMDPad,CuDef*%
%ADD15RoundRect,0.077333X-0.502667X0.672667X-0.502667X-0.672667X0.502667X-0.672667X0.502667X0.672667X0*%
%TD*%
%TA.AperFunction,SMDPad,CuDef*%
%ADD16RoundRect,0.250000X-0.450000X0.262500X-0.450000X-0.262500X0.450000X-0.262500X0.450000X0.262500X0*%
%TD*%
%TA.AperFunction,SMDPad,CuDef*%
%ADD17R,0.450000X0.700000*%
%TD*%
%TA.AperFunction,ComponentPad*%
%ADD18C,1.524000*%
%TD*%
%TA.AperFunction,Conductor*%
%ADD19C,0.400000*%
%TD*%
G04 APERTURE END LIST*
D10*
G36*
X134571654Y-116906694D02*
G01*
X134543387Y-116920828D01*
X134257063Y-116920828D01*
X134190600Y-116887597D01*
X134157368Y-116821133D01*
X134157368Y-116749094D01*
X134190599Y-116682631D01*
X134257063Y-116649400D01*
X134571654Y-116649400D01*
X134571654Y-116906694D01*
G37*
G36*
X136643083Y-116906694D02*
G01*
X136614816Y-116920828D01*
X136328492Y-116920828D01*
X136262029Y-116887597D01*
X136228797Y-116821133D01*
X136228797Y-116749094D01*
X136262028Y-116682631D01*
X136328492Y-116649400D01*
X136643083Y-116649400D01*
X136643083Y-116906694D01*
G37*
G36*
X141132801Y-116265535D02*
G01*
X141169805Y-116302539D01*
X141214511Y-116391951D01*
X141214511Y-116749704D01*
X141169804Y-116839117D01*
X141132799Y-116876122D01*
X141043387Y-116920828D01*
X140899921Y-116920828D01*
X140810507Y-116876121D01*
X140773502Y-116839116D01*
X140728797Y-116749704D01*
X140728797Y-116391951D01*
X140773502Y-116302540D01*
X140810507Y-116265535D01*
X140899921Y-116220828D01*
X141043387Y-116220828D01*
X141132801Y-116265535D01*
G37*
G36*
X142489944Y-116265535D02*
G01*
X142526948Y-116302539D01*
X142571654Y-116391951D01*
X142571654Y-116749704D01*
X142526947Y-116839117D01*
X142489942Y-116876122D01*
X142400530Y-116920828D01*
X142185635Y-116920828D01*
X142157368Y-116906694D01*
X142157368Y-116234962D01*
X142185636Y-116220828D01*
X142400530Y-116220828D01*
X142489944Y-116265535D01*
G37*
G36*
X146512073Y-117935114D02*
G01*
X132357367Y-117935114D01*
X132357367Y-117570828D01*
X135000225Y-117570828D01*
X135020321Y-117645828D01*
X135075225Y-117700732D01*
X135150225Y-117720828D01*
X135221654Y-117720828D01*
X135254957Y-117711904D01*
X135288736Y-117704992D01*
X135431593Y-117633564D01*
X135438457Y-117627476D01*
X135447160Y-117624576D01*
X135467143Y-117602040D01*
X135489688Y-117582049D01*
X135492589Y-117573343D01*
X135498675Y-117566481D01*
X135500996Y-117561840D01*
X145286209Y-117561840D01*
X145301776Y-117637910D01*
X145353291Y-117696005D01*
X145426952Y-117720559D01*
X145503022Y-117704992D01*
X145645879Y-117633564D01*
X145663948Y-117617540D01*
X145684863Y-117605466D01*
X145756292Y-117534037D01*
X145771396Y-117507875D01*
X145789498Y-117483680D01*
X145932355Y-117126536D01*
X145932698Y-117123659D01*
X145934344Y-117121278D01*
X146291487Y-116121279D01*
X146297787Y-116043889D01*
X146264548Y-115973717D01*
X146200676Y-115929567D01*
X146123287Y-115923267D01*
X146053115Y-115956506D01*
X146008965Y-116020378D01*
X145793083Y-116624847D01*
X145577201Y-116020378D01*
X145533051Y-115956506D01*
X145462879Y-115923267D01*
X145385490Y-115929567D01*
X145321618Y-115973717D01*
X145288379Y-116043889D01*
X145294679Y-116121278D01*
X145632730Y-117067822D01*
X145522388Y-117343676D01*
X145489942Y-117376122D01*
X145368858Y-117436664D01*
X145310763Y-117488179D01*
X145286209Y-117561840D01*
X135500996Y-117561840D01*
X135570104Y-117423623D01*
X135577017Y-117389838D01*
X135585939Y-117356542D01*
X135585939Y-116856542D01*
X135928797Y-116856542D01*
X135937721Y-116889847D01*
X135944633Y-116923623D01*
X136016061Y-117066482D01*
X136022148Y-117073346D01*
X136025049Y-117082049D01*
X136047584Y-117102032D01*
X136067576Y-117124577D01*
X136076281Y-117127478D01*
X136083144Y-117133564D01*
X136226002Y-117204993D01*
X136259786Y-117211906D01*
X136293083Y-117220828D01*
X136650225Y-117220828D01*
X136683530Y-117211903D01*
X136717306Y-117204992D01*
X136723124Y-117202082D01*
X136793083Y-117220828D01*
X136868083Y-117200732D01*
X136922987Y-117145828D01*
X136943083Y-117070828D01*
X136943083Y-116785114D01*
X137285940Y-116785114D01*
X137294863Y-116818417D01*
X137301776Y-116852196D01*
X137373204Y-116995053D01*
X137389227Y-117013122D01*
X137401302Y-117034037D01*
X137472731Y-117105466D01*
X137493645Y-117117540D01*
X137511715Y-117133564D01*
X137654573Y-117204992D01*
X137688348Y-117211903D01*
X137721654Y-117220828D01*
X138007368Y-117220828D01*
X138040673Y-117211903D01*
X138074449Y-117204992D01*
X138217308Y-117133564D01*
X138275403Y-117082049D01*
X138299957Y-117008388D01*
X138284391Y-116932319D01*
X138232876Y-116874223D01*
X138159214Y-116849669D01*
X138083145Y-116865235D01*
X137971959Y-116920828D01*
X137757064Y-116920828D01*
X137667650Y-116876121D01*
X137630645Y-116839116D01*
X137603645Y-116785114D01*
X140428797Y-116785114D01*
X140437720Y-116818417D01*
X140444633Y-116852196D01*
X140516061Y-116995053D01*
X140532084Y-117013122D01*
X140544159Y-117034037D01*
X140615588Y-117105466D01*
X140636502Y-117117540D01*
X140654572Y-117133564D01*
X140797430Y-117204992D01*
X140831205Y-117211903D01*
X140864511Y-117220828D01*
X141078797Y-117220828D01*
X141112100Y-117211904D01*
X141145879Y-117204992D01*
X141288736Y-117133564D01*
X141306805Y-117117540D01*
X141327720Y-117105466D01*
X141362358Y-117070828D01*
X141857368Y-117070828D01*
X141877464Y-117145828D01*
X141932368Y-117200732D01*
X142007368Y-117220828D01*
X142077325Y-117202083D01*
X142083145Y-117204993D01*
X142116929Y-117211906D01*
X142150226Y-117220828D01*
X142435940Y-117220828D01*
X142469243Y-117211904D01*
X142503022Y-117204992D01*
X142645879Y-117133564D01*
X142663948Y-117117540D01*
X142684863Y-117105466D01*
X142756292Y-117034037D01*
X142768366Y-117013122D01*
X142784390Y-116995053D01*
X142853645Y-116856542D01*
X143214511Y-116856542D01*
X143223434Y-116889843D01*
X143230347Y-116923624D01*
X143301776Y-117066482D01*
X143307861Y-117073344D01*
X143310763Y-117082049D01*
X143333303Y-117102036D01*
X143353291Y-117124577D01*
X143361995Y-117127478D01*
X143368858Y-117133564D01*
X143511716Y-117204992D01*
X143545491Y-117211903D01*
X143578797Y-117220828D01*
X143793083Y-117220828D01*
X143826386Y-117211904D01*
X143860165Y-117204992D01*
X143911141Y-117179504D01*
X143932369Y-117200732D01*
X144007369Y-117220828D01*
X144082369Y-117200732D01*
X144137273Y-117145828D01*
X144157369Y-117070828D01*
X144157369Y-116070828D01*
X144357369Y-116070828D01*
X144377465Y-116145828D01*
X144432369Y-116200732D01*
X144507369Y-116220828D01*
X144571654Y-116220828D01*
X144571654Y-116856542D01*
X144580577Y-116889843D01*
X144587490Y-116923624D01*
X144658919Y-117066482D01*
X144665004Y-117073344D01*
X144667906Y-117082049D01*
X144690446Y-117102036D01*
X144710434Y-117124577D01*
X144719138Y-117127478D01*
X144726001Y-117133564D01*
X144868859Y-117204992D01*
X144902634Y-117211903D01*
X144935940Y-117220828D01*
X145078797Y-117220828D01*
X145153797Y-117200732D01*
X145208701Y-117145828D01*
X145228797Y-117070828D01*
X145208701Y-116995828D01*
X145153797Y-116940924D01*
X145078797Y-116920828D01*
X144971350Y-116920828D01*
X144904886Y-116887596D01*
X144871654Y-116821132D01*
X144871654Y-116220828D01*
X145078797Y-116220828D01*
X145153797Y-116200732D01*
X145208701Y-116145828D01*
X145228797Y-116070828D01*
X145208701Y-115995828D01*
X145153797Y-115940924D01*
X145078797Y-115920828D01*
X144871654Y-115920828D01*
X144871654Y-115570828D01*
X144851558Y-115495828D01*
X144796654Y-115440924D01*
X144721654Y-115420828D01*
X144646654Y-115440924D01*
X144591750Y-115495828D01*
X144571654Y-115570828D01*
X144571654Y-115920828D01*
X144507369Y-115920828D01*
X144432369Y-115940924D01*
X144377465Y-115995828D01*
X144357369Y-116070828D01*
X144157369Y-116070828D01*
X144137273Y-115995828D01*
X144082369Y-115940924D01*
X144007369Y-115920828D01*
X143932369Y-115940924D01*
X143877465Y-115995828D01*
X143857369Y-116070828D01*
X143857369Y-116865839D01*
X143847085Y-116876122D01*
X143757673Y-116920828D01*
X143614207Y-116920828D01*
X143547743Y-116887596D01*
X143514511Y-116821132D01*
X143514511Y-116070828D01*
X143494415Y-115995828D01*
X143439511Y-115940924D01*
X143364511Y-115920828D01*
X143289511Y-115940924D01*
X143234607Y-115995828D01*
X143214511Y-116070828D01*
X143214511Y-116856542D01*
X142853645Y-116856542D01*
X142855818Y-116852195D01*
X142862729Y-116818419D01*
X142871654Y-116785114D01*
X142871654Y-116356542D01*
X142862729Y-116323236D01*
X142855818Y-116289461D01*
X142784390Y-116146603D01*
X142768366Y-116128533D01*
X142756291Y-116107618D01*
X142684862Y-116036190D01*
X142663947Y-116024115D01*
X142645879Y-116008093D01*
X142503022Y-115936664D01*
X142469241Y-115929751D01*
X142435940Y-115920828D01*
X142157368Y-115920828D01*
X142157368Y-115570828D01*
X142137272Y-115495828D01*
X142082368Y-115440924D01*
X142007368Y-115420828D01*
X141932368Y-115440924D01*
X141877464Y-115495828D01*
X141857368Y-115570828D01*
X141857368Y-117070828D01*
X141362358Y-117070828D01*
X141399149Y-117034037D01*
X141411223Y-117013122D01*
X141427247Y-116995053D01*
X141498675Y-116852195D01*
X141505586Y-116818419D01*
X141514511Y-116785114D01*
X141514511Y-116356542D01*
X141505586Y-116323236D01*
X141498675Y-116289461D01*
X141427247Y-116146603D01*
X141411223Y-116128533D01*
X141399148Y-116107618D01*
X141327719Y-116036190D01*
X141306804Y-116024115D01*
X141288736Y-116008093D01*
X141145879Y-115936664D01*
X141112098Y-115929751D01*
X141078797Y-115920828D01*
X140864511Y-115920828D01*
X140831210Y-115929750D01*
X140797428Y-115936664D01*
X140654572Y-116008093D01*
X140636503Y-116024115D01*
X140615589Y-116036190D01*
X140544160Y-116107618D01*
X140532084Y-116128533D01*
X140516061Y-116146603D01*
X140444633Y-116289460D01*
X140437720Y-116323238D01*
X140428797Y-116356542D01*
X140428797Y-116785114D01*
X137603645Y-116785114D01*
X137585940Y-116749704D01*
X137585940Y-116499400D01*
X138643082Y-116499400D01*
X138663178Y-116574400D01*
X138718082Y-116629304D01*
X138793082Y-116649400D01*
X139935940Y-116649400D01*
X140010940Y-116629304D01*
X140065844Y-116574400D01*
X140085940Y-116499400D01*
X140065844Y-116424400D01*
X140010940Y-116369496D01*
X139935940Y-116349400D01*
X138793082Y-116349400D01*
X138718082Y-116369496D01*
X138663178Y-116424400D01*
X138643082Y-116499400D01*
X137585940Y-116499400D01*
X137585940Y-116391951D01*
X137630645Y-116302540D01*
X137667650Y-116265535D01*
X137757064Y-116220828D01*
X137971958Y-116220828D01*
X138083144Y-116276421D01*
X138159213Y-116291988D01*
X138232875Y-116267434D01*
X138284390Y-116209339D01*
X138299957Y-116133270D01*
X138275403Y-116059608D01*
X138217308Y-116008093D01*
X138074450Y-115936664D01*
X138040669Y-115929751D01*
X138007368Y-115920828D01*
X137721654Y-115920828D01*
X137688353Y-115929750D01*
X137654571Y-115936664D01*
X137511715Y-116008093D01*
X137493646Y-116024115D01*
X137472732Y-116036190D01*
X137401303Y-116107618D01*
X137389227Y-116128533D01*
X137373204Y-116146603D01*
X137301776Y-116289460D01*
X137294863Y-116323238D01*
X137285940Y-116356542D01*
X137285940Y-116785114D01*
X136943083Y-116785114D01*
X136943083Y-116285114D01*
X136934160Y-116251813D01*
X136927247Y-116218031D01*
X136855818Y-116075175D01*
X136849731Y-116068311D01*
X136846831Y-116059609D01*
X136824290Y-116039620D01*
X136804302Y-116017080D01*
X136795599Y-116014179D01*
X136788736Y-116008093D01*
X136645879Y-115936664D01*
X136612098Y-115929751D01*
X136578797Y-115920828D01*
X136293083Y-115920828D01*
X136259781Y-115929751D01*
X136226001Y-115936664D01*
X136083143Y-116008093D01*
X136025048Y-116059608D01*
X136000494Y-116133270D01*
X136016061Y-116209339D01*
X136067576Y-116267434D01*
X136141238Y-116291988D01*
X136217307Y-116276421D01*
X136328493Y-116220828D01*
X136543387Y-116220828D01*
X136609851Y-116254060D01*
X136643083Y-116320524D01*
X136643083Y-116335266D01*
X136614815Y-116349400D01*
X136293083Y-116349400D01*
X136259786Y-116358321D01*
X136226002Y-116365235D01*
X136083144Y-116436664D01*
X136076281Y-116442749D01*
X136067576Y-116445651D01*
X136047584Y-116468195D01*
X136025049Y-116488179D01*
X136022148Y-116496881D01*
X136016061Y-116503746D01*
X135944633Y-116646603D01*
X135937720Y-116680381D01*
X135928797Y-116713685D01*
X135928797Y-116856542D01*
X135585939Y-116856542D01*
X135585939Y-116070828D01*
X135565843Y-115995828D01*
X135510939Y-115940924D01*
X135435939Y-115920828D01*
X135360939Y-115940924D01*
X135306035Y-115995828D01*
X135285939Y-116070828D01*
X135285939Y-117321132D01*
X135252707Y-117387596D01*
X135186244Y-117420828D01*
X135150225Y-117420828D01*
X135075225Y-117440924D01*
X135020321Y-117495828D01*
X135000225Y-117570828D01*
X132357367Y-117570828D01*
X132357367Y-117070828D01*
X132571653Y-117070828D01*
X132579027Y-117098348D01*
X132582422Y-117126637D01*
X132588936Y-117135331D01*
X132591749Y-117145828D01*
X132611896Y-117165975D01*
X132628980Y-117188776D01*
X132638969Y-117193048D01*
X132646653Y-117200732D01*
X132674170Y-117208105D01*
X132700369Y-117219311D01*
X132711158Y-117218016D01*
X132721653Y-117220828D01*
X133507368Y-117220828D01*
X133582368Y-117200732D01*
X133637272Y-117145828D01*
X133657368Y-117070828D01*
X133637272Y-116995828D01*
X133582368Y-116940924D01*
X133507368Y-116920828D01*
X133030273Y-116920828D01*
X133080783Y-116856542D01*
X133857368Y-116856542D01*
X133866292Y-116889847D01*
X133873204Y-116923623D01*
X133944632Y-117066482D01*
X133950719Y-117073346D01*
X133953620Y-117082049D01*
X133976155Y-117102032D01*
X133996147Y-117124577D01*
X134004852Y-117127478D01*
X134011715Y-117133564D01*
X134154573Y-117204993D01*
X134188357Y-117211906D01*
X134221654Y-117220828D01*
X134578796Y-117220828D01*
X134612101Y-117211903D01*
X134645877Y-117204992D01*
X134651695Y-117202082D01*
X134721654Y-117220828D01*
X134796654Y-117200732D01*
X134851558Y-117145828D01*
X134871654Y-117070828D01*
X134871654Y-116285114D01*
X134862731Y-116251813D01*
X134855818Y-116218031D01*
X134784389Y-116075175D01*
X134778302Y-116068311D01*
X134775402Y-116059609D01*
X134752861Y-116039620D01*
X134732873Y-116017080D01*
X134724170Y-116014179D01*
X134717307Y-116008093D01*
X134574450Y-115936664D01*
X134540669Y-115929751D01*
X134507368Y-115920828D01*
X134221654Y-115920828D01*
X134188352Y-115929751D01*
X134154572Y-115936664D01*
X134011714Y-116008093D01*
X133953619Y-116059608D01*
X133929065Y-116133270D01*
X133944632Y-116209339D01*
X133996147Y-116267434D01*
X134069809Y-116291988D01*
X134145878Y-116276421D01*
X134257064Y-116220828D01*
X134471958Y-116220828D01*
X134538422Y-116254060D01*
X134571654Y-116320524D01*
X134571654Y-116335266D01*
X134543386Y-116349400D01*
X134221654Y-116349400D01*
X134188357Y-116358321D01*
X134154573Y-116365235D01*
X134011715Y-116436664D01*
X134004852Y-116442749D01*
X133996147Y-116445651D01*
X133976155Y-116468195D01*
X133953620Y-116488179D01*
X133950719Y-116496881D01*
X133944632Y-116503746D01*
X133873204Y-116646603D01*
X133866291Y-116680381D01*
X133857368Y-116713685D01*
X133857368Y-116856542D01*
X133080783Y-116856542D01*
X133625316Y-116163501D01*
X133629588Y-116153511D01*
X133637272Y-116145828D01*
X133644645Y-116118310D01*
X133655851Y-116092112D01*
X133654556Y-116081322D01*
X133657368Y-116070828D01*
X133649993Y-116043307D01*
X133646599Y-116015019D01*
X133640084Y-116006324D01*
X133637272Y-115995828D01*
X133617124Y-115975680D01*
X133600041Y-115952880D01*
X133590051Y-115948607D01*
X133582368Y-115940924D01*
X133554850Y-115933550D01*
X133528652Y-115922345D01*
X133517862Y-115923639D01*
X133507368Y-115920828D01*
X132721653Y-115920828D01*
X132646653Y-115940924D01*
X132591749Y-115995828D01*
X132571653Y-116070828D01*
X132591749Y-116145828D01*
X132646653Y-116200732D01*
X132721653Y-116220828D01*
X133198748Y-116220828D01*
X132603705Y-116978155D01*
X132599432Y-116988144D01*
X132591749Y-116995828D01*
X132584375Y-117023345D01*
X132573170Y-117049544D01*
X132574464Y-117060333D01*
X132571653Y-117070828D01*
X132357367Y-117070828D01*
X132357367Y-115681081D01*
X135219622Y-115681081D01*
X135238447Y-115713685D01*
X135258445Y-115748323D01*
X135329873Y-115819751D01*
X135329875Y-115819752D01*
X135346974Y-115829624D01*
X135360939Y-115843589D01*
X135380012Y-115848699D01*
X135397115Y-115858574D01*
X135397116Y-115858574D01*
X135416864Y-115858574D01*
X135435939Y-115863685D01*
X135455014Y-115858574D01*
X135474762Y-115858574D01*
X135491864Y-115848700D01*
X135510939Y-115843589D01*
X135524902Y-115829625D01*
X135542004Y-115819752D01*
X135613433Y-115748324D01*
X135613435Y-115748322D01*
X135633432Y-115713685D01*
X135652257Y-115681081D01*
X135652257Y-115603435D01*
X135652257Y-115603434D01*
X135613434Y-115536191D01*
X135542005Y-115464762D01*
X135542004Y-115464761D01*
X135524902Y-115454887D01*
X135510939Y-115440924D01*
X135491864Y-115435812D01*
X135474762Y-115425939D01*
X135474761Y-115425939D01*
X135455014Y-115425939D01*
X135435939Y-115420828D01*
X135416864Y-115425939D01*
X135397115Y-115425939D01*
X135380012Y-115435813D01*
X135360939Y-115440924D01*
X135346974Y-115454888D01*
X135329873Y-115464762D01*
X135329872Y-115464762D01*
X135329872Y-115464763D01*
X135258445Y-115536191D01*
X135219622Y-115603434D01*
X135219622Y-115603435D01*
X135219622Y-115681081D01*
X132357367Y-115681081D01*
X132357367Y-115206542D01*
X146512073Y-115206542D01*
X146512073Y-117935114D01*
G37*
D11*
%TO.P,D3,1,K*%
%TO.N,Net-(D1-K)*%
X143160000Y-106350000D03*
D12*
%TO.P,D3,2,A*%
%TO.N,Net-(D3-A)*%
X143160000Y-107825000D03*
%TD*%
D13*
%TO.P,R11,1*%
%TO.N,/LIGHT_CTRL*%
X131610000Y-101190000D03*
%TO.P,R11,2*%
%TO.N,Net-(Q1-B)*%
X131610000Y-99365000D03*
%TD*%
D14*
%TO.P,D6,1,K*%
%TO.N,Net-(D1-K)*%
X139020000Y-77630000D03*
D15*
%TO.P,D6,2,A*%
%TO.N,Net-(D6-A)*%
X139020000Y-76155000D03*
%TD*%
D13*
%TO.P,R3,1*%
%TO.N,+5V*%
X143200000Y-111885000D03*
%TO.P,R3,2*%
%TO.N,Net-(D3-A)*%
X143200000Y-110060000D03*
%TD*%
D11*
%TO.P,D5,1,K*%
%TO.N,Net-(D1-K)*%
X139140000Y-106370000D03*
D12*
%TO.P,D5,2,A*%
%TO.N,Net-(D5-A)*%
X139140000Y-107845000D03*
%TD*%
D13*
%TO.P,R5,1*%
%TO.N,+5V*%
X139150000Y-111875000D03*
%TO.P,R5,2*%
%TO.N,Net-(D5-A)*%
X139150000Y-110050000D03*
%TD*%
D16*
%TO.P,R9,1*%
%TO.N,+5V*%
X145110000Y-72460000D03*
%TO.P,R9,2*%
%TO.N,Net-(D9-A)*%
X145110000Y-74285000D03*
%TD*%
D13*
%TO.P,R2,1*%
%TO.N,+5V*%
X145210000Y-111865000D03*
%TO.P,R2,2*%
%TO.N,Net-(D2-A)*%
X145210000Y-110040000D03*
%TD*%
D11*
%TO.P,D2,1,K*%
%TO.N,Net-(D1-K)*%
X145160000Y-106290000D03*
D12*
%TO.P,D2,2,A*%
%TO.N,Net-(D2-A)*%
X145160000Y-107765000D03*
%TD*%
D16*
%TO.P,R10,1*%
%TO.N,+5V*%
X147180000Y-72460000D03*
%TO.P,R10,2*%
%TO.N,Net-(D10-A)*%
X147180000Y-74285000D03*
%TD*%
D13*
%TO.P,R1,1*%
%TO.N,+5V*%
X147230000Y-111865000D03*
%TO.P,R1,2*%
%TO.N,Net-(D1-A)*%
X147230000Y-110040000D03*
%TD*%
D16*
%TO.P,R6,1*%
%TO.N,+5V*%
X139000000Y-72490000D03*
%TO.P,R6,2*%
%TO.N,Net-(D6-A)*%
X139000000Y-74315000D03*
%TD*%
D17*
%TO.P,Q1,1,B*%
%TO.N,Net-(Q1-B)*%
X131410000Y-90710000D03*
%TO.P,Q1,2,E*%
%TO.N,Earth*%
X132710000Y-90710000D03*
%TO.P,Q1,3,C*%
%TO.N,Net-(D1-K)*%
X132060000Y-88710000D03*
%TD*%
D13*
%TO.P,R4,1*%
%TO.N,+5V*%
X141200000Y-111875000D03*
%TO.P,R4,2*%
%TO.N,Net-(D4-A)*%
X141200000Y-110050000D03*
%TD*%
D16*
%TO.P,R7,1*%
%TO.N,+5V*%
X141020000Y-72490000D03*
%TO.P,R7,2*%
%TO.N,Net-(D7-A)*%
X141020000Y-74315000D03*
%TD*%
D14*
%TO.P,D7,1,K*%
%TO.N,Net-(D1-K)*%
X140950000Y-77630000D03*
D15*
%TO.P,D7,2,A*%
%TO.N,Net-(D7-A)*%
X140950000Y-76155000D03*
%TD*%
D16*
%TO.P,R8,1*%
%TO.N,+5V*%
X143040000Y-72470000D03*
%TO.P,R8,2*%
%TO.N,Net-(D8-A)*%
X143040000Y-74295000D03*
%TD*%
D14*
%TO.P,D10,1,K*%
%TO.N,Net-(D1-K)*%
X147180000Y-77660000D03*
D15*
%TO.P,D10,2,A*%
%TO.N,Net-(D10-A)*%
X147180000Y-76185000D03*
%TD*%
D14*
%TO.P,D8,1,K*%
%TO.N,Net-(D1-K)*%
X143080000Y-77650000D03*
D15*
%TO.P,D8,2,A*%
%TO.N,Net-(D8-A)*%
X143080000Y-76175000D03*
%TD*%
D14*
%TO.P,D9,1,K*%
%TO.N,Net-(D1-K)*%
X145140000Y-77650000D03*
D15*
%TO.P,D9,2,A*%
%TO.N,Net-(D9-A)*%
X145140000Y-76175000D03*
%TD*%
D11*
%TO.P,D1,1,K*%
%TO.N,Net-(D1-K)*%
X146947500Y-106295000D03*
D12*
%TO.P,D1,2,A*%
%TO.N,Net-(D1-A)*%
X146947500Y-107770000D03*
%TD*%
D11*
%TO.P,D4,1,K*%
%TO.N,Net-(D1-K)*%
X141170000Y-106350000D03*
D12*
%TO.P,D4,2,A*%
%TO.N,Net-(D4-A)*%
X141170000Y-107825000D03*
%TD*%
D18*
%TO.P,U1,1,EN*%
%TO.N,unconnected-(U1-EN-Pad1)*%
X151645000Y-75900000D03*
%TO.P,U1,2,GPIO36*%
%TO.N,unconnected-(U1-GPIO36-Pad2)*%
X151645000Y-78440000D03*
%TO.P,U1,3,GPIO39*%
%TO.N,unconnected-(U1-GPIO39-Pad3)*%
X151645000Y-80980000D03*
%TO.P,U1,4,GPIO34*%
%TO.N,unconnected-(U1-GPIO34-Pad4)*%
X151645000Y-83520000D03*
%TO.P,U1,5,GPIO35*%
%TO.N,unconnected-(U1-GPIO35-Pad5)*%
X151645000Y-86060000D03*
%TO.P,U1,6,GPIO32*%
%TO.N,unconnected-(U1-GPIO32-Pad6)*%
X151645000Y-88600000D03*
%TO.P,U1,7,GPIO33*%
%TO.N,unconnected-(U1-GPIO33-Pad7)*%
X151645000Y-91140000D03*
%TO.P,U1,8,GPIO25*%
%TO.N,unconnected-(U1-GPIO25-Pad8)*%
X151645000Y-93680000D03*
%TO.P,U1,9,GPIO26*%
%TO.N,unconnected-(U1-GPIO26-Pad9)*%
X151645000Y-96220000D03*
%TO.P,U1,10,GPIO27*%
%TO.N,unconnected-(U1-GPIO27-Pad10)*%
X151645000Y-98760000D03*
%TO.P,U1,11,GPIO14*%
%TO.N,unconnected-(U1-GPIO14-Pad11)*%
X151645000Y-101300000D03*
%TO.P,U1,12,GPIO12*%
%TO.N,unconnected-(U1-GPIO12-Pad12)*%
X151645000Y-103840000D03*
%TO.P,U1,13,GPIO13*%
%TO.N,unconnected-(U1-GPIO13-Pad13)*%
X151645000Y-106380000D03*
%TO.P,U1,14,GND*%
%TO.N,Earth*%
X151645000Y-108920000D03*
%TO.P,U1,15,VIN*%
%TO.N,+5V*%
X151645000Y-111460000D03*
%TO.P,U1,16,GPIO23*%
%TO.N,unconnected-(U1-GPIO23-Pad16)*%
X126245000Y-75900000D03*
%TO.P,U1,17,GPIO22*%
%TO.N,unconnected-(U1-GPIO22-Pad17)*%
X126245000Y-78440000D03*
%TO.P,U1,18,GPIO01*%
%TO.N,unconnected-(U1-GPIO01-Pad18)*%
X126245000Y-80980000D03*
%TO.P,U1,19,GPIO03*%
%TO.N,unconnected-(U1-GPIO03-Pad19)*%
X126245000Y-83520000D03*
%TO.P,U1,20,GPIO21*%
%TO.N,unconnected-(U1-GPIO21-Pad20)*%
X126245000Y-86060000D03*
%TO.P,U1,21,GPIO19*%
%TO.N,unconnected-(U1-GPIO19-Pad21)*%
X126245000Y-88600000D03*
%TO.P,U1,22,GPIO18*%
%TO.N,unconnected-(U1-GPIO18-Pad22)*%
X126245000Y-91140000D03*
%TO.P,U1,23,GPIO05*%
%TO.N,unconnected-(U1-GPIO05-Pad23)*%
X126245000Y-93680000D03*
%TO.P,U1,24,GPIO17*%
%TO.N,unconnected-(U1-GPIO17-Pad24)*%
X126245000Y-96220000D03*
%TO.P,U1,25,GPIO16*%
%TO.N,unconnected-(U1-GPIO16-Pad25)*%
X126245000Y-98760000D03*
%TO.P,U1,26,GPIO04*%
%TO.N,/LIGHT_CTRL*%
X126245000Y-101300000D03*
%TO.P,U1,27,GPIO02*%
%TO.N,unconnected-(U1-GPIO02-Pad27)*%
X126245000Y-103840000D03*
%TO.P,U1,28,GPIO15*%
%TO.N,unconnected-(U1-GPIO15-Pad28)*%
X126245000Y-106380000D03*
%TO.P,U1,29,GND*%
%TO.N,Earth*%
X126245000Y-108920000D03*
%TO.P,U1,30,3V3*%
%TO.N,unconnected-(U1-3V3-Pad30)*%
X126245000Y-111460000D03*
%TD*%
D19*
%TO.N,+5V*%
X148792500Y-112927500D02*
X150260000Y-111460000D01*
X150260000Y-111460000D02*
X151645000Y-111460000D01*
%TO.N,Net-(D1-K)*%
X141390000Y-105280000D02*
X141170000Y-105500000D01*
X145140000Y-78110000D02*
X144640000Y-78610000D01*
X143080000Y-78130000D02*
X143080000Y-77650000D01*
X146660000Y-105260000D02*
X145500000Y-105260000D01*
X133645000Y-77630000D02*
X139020000Y-77630000D01*
X147160000Y-78610000D02*
X145640000Y-78610000D01*
X143510000Y-105270000D02*
X143160000Y-105620000D01*
X147160000Y-78610000D02*
X147180000Y-78590000D01*
X144640000Y-78610000D02*
X143560000Y-78610000D01*
X145090000Y-105420000D02*
X145160000Y-105490000D01*
X145160000Y-105490000D02*
X145160000Y-106290000D01*
X140530000Y-78560000D02*
X139350000Y-78560000D01*
X142820000Y-105280000D02*
X141390000Y-105280000D01*
X141390000Y-78580000D02*
X140950000Y-78140000D01*
X144940000Y-105270000D02*
X143510000Y-105270000D01*
X143160000Y-105620000D02*
X142820000Y-105280000D01*
X148130000Y-78610000D02*
X147160000Y-78610000D01*
X143160000Y-105620000D02*
X143160000Y-106350000D01*
X140970000Y-105300000D02*
X139430000Y-105300000D01*
X145140000Y-78110000D02*
X145140000Y-77650000D01*
X140950000Y-78140000D02*
X140950000Y-77630000D01*
X145500000Y-105260000D02*
X145160000Y-105600000D01*
X132035000Y-79240000D02*
X133645000Y-77630000D01*
X139350000Y-78560000D02*
X139020000Y-78230000D01*
X132035000Y-88685000D02*
X132060000Y-88710000D01*
X140950000Y-78140000D02*
X140530000Y-78560000D01*
X146947500Y-105547500D02*
X146660000Y-105260000D01*
X146947500Y-106295000D02*
X146947500Y-105547500D01*
X139020000Y-78230000D02*
X139020000Y-77630000D01*
X139140000Y-105590000D02*
X139140000Y-106370000D01*
X142630000Y-78580000D02*
X141390000Y-78580000D01*
X147180000Y-78590000D02*
X147180000Y-77660000D01*
X148242500Y-78722500D02*
X148130000Y-78610000D01*
X148035000Y-106295000D02*
X148242500Y-106087500D01*
X132035000Y-79240000D02*
X132035000Y-88685000D01*
X145640000Y-78610000D02*
X145140000Y-78110000D01*
X148242500Y-106087500D02*
X148242500Y-78722500D01*
X141170000Y-105500000D02*
X141170000Y-106350000D01*
X145090000Y-105420000D02*
X144940000Y-105270000D01*
X146947500Y-106295000D02*
X148035000Y-106295000D01*
X141170000Y-105500000D02*
X140970000Y-105300000D01*
X143080000Y-78130000D02*
X142630000Y-78580000D01*
X143560000Y-78610000D02*
X143080000Y-78130000D01*
X139430000Y-105300000D02*
X139140000Y-105590000D01*
%TO.N,Net-(D1-A)*%
X146947500Y-109757500D02*
X147230000Y-110040000D01*
X146947500Y-107770000D02*
X146947500Y-109757500D01*
%TO.N,Net-(D2-A)*%
X145160000Y-109990000D02*
X145210000Y-110040000D01*
X145160000Y-107765000D02*
X145160000Y-109990000D01*
%TO.N,Net-(D3-A)*%
X143160000Y-107825000D02*
X143160000Y-110020000D01*
X143160000Y-110020000D02*
X143200000Y-110060000D01*
%TO.N,Net-(D4-A)*%
X141170000Y-110020000D02*
X141200000Y-110050000D01*
X141170000Y-107825000D02*
X141170000Y-110020000D01*
%TO.N,Net-(D5-A)*%
X139140000Y-107845000D02*
X139140000Y-110040000D01*
X139140000Y-110040000D02*
X139150000Y-110050000D01*
%TO.N,Net-(D6-A)*%
X139020000Y-74335000D02*
X139000000Y-74315000D01*
X139020000Y-76155000D02*
X139020000Y-74335000D01*
%TO.N,Net-(D7-A)*%
X141020000Y-74315000D02*
X141020000Y-76085000D01*
X141020000Y-76085000D02*
X140950000Y-76155000D01*
%TO.N,Net-(D8-A)*%
X143040000Y-76135000D02*
X143080000Y-76175000D01*
X143040000Y-74295000D02*
X143040000Y-76135000D01*
%TO.N,Net-(D9-A)*%
X145110000Y-76145000D02*
X145140000Y-76175000D01*
X145110000Y-74285000D02*
X145110000Y-76145000D01*
%TO.N,Net-(D10-A)*%
X147180000Y-74285000D02*
X147180000Y-76185000D01*
%TO.N,Net-(Q1-B)*%
X131410000Y-90710000D02*
X131410000Y-99165000D01*
X131410000Y-99165000D02*
X131610000Y-99365000D01*
%TO.N,+5V*%
X141020000Y-113210000D02*
X139460000Y-113210000D01*
X147450000Y-113170000D02*
X148550000Y-113170000D01*
X147230000Y-112950000D02*
X147000000Y-113180000D01*
X144670000Y-71150000D02*
X145110000Y-71590000D01*
X148550000Y-113170000D02*
X148792500Y-112927500D01*
X148410000Y-71160000D02*
X147600000Y-71160000D01*
%TO.N,unconnected-(U1-3V3-Pad30)*%
X126255000Y-111450000D02*
X126245000Y-111460000D01*
%TO.N,+5V*%
X143200000Y-112970000D02*
X142980000Y-113190000D01*
X141200000Y-113030000D02*
X141200000Y-111875000D01*
X139000000Y-72490000D02*
X139000000Y-71450000D01*
%TO.N,unconnected-(U1-3V3-Pad30)*%
X126660000Y-111875000D02*
X126245000Y-111460000D01*
%TO.N,+5V*%
X146750000Y-71150000D02*
X145340000Y-71150000D01*
X142650000Y-71150000D02*
X143040000Y-71540000D01*
X143200000Y-112970000D02*
X143200000Y-111885000D01*
X141020000Y-71610000D02*
X141480000Y-71150000D01*
X143410000Y-113180000D02*
X143200000Y-112970000D01*
X145340000Y-71150000D02*
X145110000Y-71380000D01*
X141200000Y-113030000D02*
X141020000Y-113210000D01*
X139000000Y-71450000D02*
X139310000Y-71140000D01*
X145210000Y-112870000D02*
X144900000Y-113180000D01*
X141020000Y-72490000D02*
X141020000Y-71610000D01*
X139460000Y-113210000D02*
X139150000Y-112900000D01*
X147230000Y-112950000D02*
X147450000Y-113170000D01*
X145110000Y-71380000D02*
X145110000Y-72460000D01*
X139310000Y-71140000D02*
X140550000Y-71140000D01*
X147600000Y-71160000D02*
X147180000Y-71580000D01*
X141480000Y-71150000D02*
X142650000Y-71150000D01*
X143040000Y-71540000D02*
X143430000Y-71150000D01*
X143040000Y-72470000D02*
X143040000Y-71540000D01*
X145210000Y-112850000D02*
X145210000Y-111865000D01*
X147180000Y-71580000D02*
X146750000Y-71150000D01*
X140550000Y-71140000D02*
X141020000Y-71610000D01*
X148792500Y-112927500D02*
X148792500Y-71542500D01*
X142980000Y-113190000D02*
X141360000Y-113190000D01*
X147230000Y-111865000D02*
X147230000Y-112950000D01*
X144900000Y-113180000D02*
X143410000Y-113180000D01*
X148792500Y-71542500D02*
X148410000Y-71160000D01*
X141360000Y-113190000D02*
X141200000Y-113030000D01*
X143430000Y-71150000D02*
X144670000Y-71150000D01*
X145540000Y-113180000D02*
X145210000Y-112850000D01*
X147180000Y-72460000D02*
X147180000Y-71580000D01*
X139150000Y-112900000D02*
X139150000Y-111875000D01*
X147000000Y-113180000D02*
X145540000Y-113180000D01*
%TO.N,/LIGHT_CTRL*%
X131500000Y-101300000D02*
X131610000Y-101190000D01*
X126245000Y-101300000D02*
X131500000Y-101300000D01*
%TD*%
%TA.AperFunction,Conductor*%
%TO.N,Earth*%
G36*
X153146370Y-69589870D02*
G01*
X153213387Y-69609625D01*
X153259086Y-69662477D01*
X153270238Y-69713631D01*
X153369761Y-121326318D01*
X153350206Y-121393395D01*
X153297490Y-121439252D01*
X153246319Y-121450556D01*
X124584870Y-121579438D01*
X124517742Y-121560055D01*
X124471750Y-121507457D01*
X124460312Y-121455129D01*
X124475916Y-115211251D01*
X132362076Y-115211251D01*
X132362076Y-117930126D01*
X146507278Y-117930126D01*
X146507278Y-115211251D01*
X132362076Y-115211251D01*
X124475916Y-115211251D01*
X124480080Y-113545042D01*
X124485291Y-111460000D01*
X125327474Y-111460000D01*
X125347524Y-111650764D01*
X125347525Y-111650767D01*
X125406795Y-111833185D01*
X125406798Y-111833191D01*
X125502704Y-111999306D01*
X125502709Y-111999313D01*
X125631054Y-112141854D01*
X125631056Y-112141856D01*
X125786235Y-112254600D01*
X125786236Y-112254601D01*
X125961469Y-112332619D01*
X126149092Y-112372500D01*
X126340908Y-112372500D01*
X126528531Y-112332619D01*
X126703763Y-112254601D01*
X126751606Y-112219841D01*
X126779410Y-112204643D01*
X126841897Y-112180262D01*
X126931159Y-112104660D01*
X126991037Y-112004171D01*
X126991037Y-112004166D01*
X126994773Y-111994596D01*
X126994944Y-111994662D01*
X127004681Y-111969191D01*
X127042827Y-111903121D01*
X127083202Y-111833191D01*
X127142476Y-111650764D01*
X127162526Y-111460000D01*
X127142476Y-111269236D01*
X127090420Y-111109023D01*
X127083204Y-111086814D01*
X127083201Y-111086808D01*
X126987295Y-110920693D01*
X126987290Y-110920686D01*
X126858945Y-110778145D01*
X126858943Y-110778143D01*
X126703764Y-110665399D01*
X126703763Y-110665398D01*
X126528530Y-110587380D01*
X126340908Y-110547500D01*
X126149092Y-110547500D01*
X125961469Y-110587380D01*
X125961468Y-110587380D01*
X125786236Y-110665398D01*
X125786235Y-110665399D01*
X125631056Y-110778143D01*
X125631054Y-110778145D01*
X125502709Y-110920686D01*
X125502704Y-110920693D01*
X125406798Y-111086808D01*
X125406795Y-111086814D01*
X125347525Y-111269232D01*
X125347524Y-111269236D01*
X125327474Y-111460000D01*
X124485291Y-111460000D01*
X124491639Y-108920000D01*
X125327976Y-108920000D01*
X125348016Y-109110663D01*
X125407254Y-109292980D01*
X125407257Y-109292987D01*
X125447960Y-109363486D01*
X125860096Y-108951350D01*
X125860051Y-108951898D01*
X125891266Y-109075162D01*
X125960813Y-109181612D01*
X126061157Y-109259713D01*
X126181422Y-109301000D01*
X126217553Y-109301000D01*
X125798871Y-109719679D01*
X125961626Y-109792142D01*
X126149144Y-109831999D01*
X126149145Y-109832000D01*
X126340855Y-109832000D01*
X126340855Y-109831999D01*
X126528373Y-109792142D01*
X126528381Y-109792140D01*
X126691126Y-109719680D01*
X126691126Y-109719679D01*
X126272448Y-109301000D01*
X126276569Y-109301000D01*
X126370421Y-109285339D01*
X126482251Y-109224820D01*
X126568371Y-109131269D01*
X126619448Y-109014823D01*
X126625105Y-108946552D01*
X127042038Y-109363486D01*
X127042039Y-109363485D01*
X127082743Y-109292987D01*
X127141983Y-109110663D01*
X127162023Y-108920000D01*
X127141983Y-108729336D01*
X127082744Y-108547015D01*
X127042038Y-108476512D01*
X126629903Y-108888648D01*
X126629949Y-108888102D01*
X126598734Y-108764838D01*
X126529187Y-108658388D01*
X126428843Y-108580287D01*
X126308578Y-108539000D01*
X126272448Y-108539000D01*
X126691127Y-108120319D01*
X126528373Y-108047857D01*
X126340855Y-108008000D01*
X126149145Y-108008000D01*
X125961627Y-108047857D01*
X125961624Y-108047857D01*
X125798871Y-108120319D01*
X126217553Y-108539000D01*
X126213431Y-108539000D01*
X126119579Y-108554661D01*
X126007749Y-108615180D01*
X125921629Y-108708731D01*
X125870552Y-108825177D01*
X125864894Y-108893446D01*
X125447960Y-108476513D01*
X125407257Y-108547012D01*
X125407254Y-108547019D01*
X125348016Y-108729336D01*
X125327976Y-108920000D01*
X124491639Y-108920000D01*
X124497986Y-106380000D01*
X125327474Y-106380000D01*
X125347524Y-106570764D01*
X125347525Y-106570767D01*
X125406795Y-106753185D01*
X125406798Y-106753191D01*
X125502704Y-106919306D01*
X125502709Y-106919313D01*
X125631054Y-107061854D01*
X125631056Y-107061856D01*
X125786235Y-107174600D01*
X125786236Y-107174601D01*
X125961469Y-107252619D01*
X126149092Y-107292500D01*
X126340908Y-107292500D01*
X126528531Y-107252619D01*
X126703763Y-107174601D01*
X126858945Y-107061855D01*
X126974899Y-106933074D01*
X126987290Y-106919313D01*
X126987295Y-106919306D01*
X127000774Y-106895960D01*
X127083202Y-106753191D01*
X127142476Y-106570764D01*
X127162526Y-106380000D01*
X127142476Y-106189236D01*
X127103887Y-106070473D01*
X127083204Y-106006814D01*
X127083201Y-106006808D01*
X126987295Y-105840693D01*
X126987290Y-105840686D01*
X126858945Y-105698145D01*
X126858943Y-105698143D01*
X126703764Y-105585399D01*
X126703763Y-105585398D01*
X126528530Y-105507380D01*
X126340908Y-105467500D01*
X126149092Y-105467500D01*
X125961469Y-105507380D01*
X125961468Y-105507380D01*
X125786236Y-105585398D01*
X125786235Y-105585399D01*
X125631056Y-105698143D01*
X125631054Y-105698145D01*
X125502709Y-105840686D01*
X125502704Y-105840693D01*
X125406798Y-106006808D01*
X125406795Y-106006814D01*
X125347525Y-106189232D01*
X125347524Y-106189236D01*
X125327474Y-106380000D01*
X124497986Y-106380000D01*
X124504333Y-103840000D01*
X125327474Y-103840000D01*
X125347524Y-104030764D01*
X125347525Y-104030767D01*
X125406795Y-104213185D01*
X125406798Y-104213191D01*
X125502704Y-104379306D01*
X125502709Y-104379313D01*
X125631054Y-104521854D01*
X125631056Y-104521856D01*
X125786235Y-104634600D01*
X125786236Y-104634601D01*
X125961469Y-104712619D01*
X126149092Y-104752500D01*
X126340908Y-104752500D01*
X126528531Y-104712619D01*
X126703763Y-104634601D01*
X126858945Y-104521855D01*
X126941348Y-104430336D01*
X126987290Y-104379313D01*
X126987295Y-104379306D01*
X127083202Y-104213191D01*
X127142476Y-104030764D01*
X127162526Y-103840000D01*
X127142476Y-103649236D01*
X127083202Y-103466809D01*
X126987294Y-103300692D01*
X126987290Y-103300686D01*
X126858945Y-103158145D01*
X126858943Y-103158143D01*
X126703764Y-103045399D01*
X126703763Y-103045398D01*
X126528530Y-102967380D01*
X126340908Y-102927500D01*
X126149092Y-102927500D01*
X125961469Y-102967380D01*
X125961468Y-102967380D01*
X125786236Y-103045398D01*
X125786235Y-103045399D01*
X125631056Y-103158143D01*
X125631054Y-103158145D01*
X125502709Y-103300686D01*
X125502704Y-103300693D01*
X125406798Y-103466808D01*
X125406795Y-103466814D01*
X125347525Y-103649232D01*
X125347524Y-103649236D01*
X125327474Y-103840000D01*
X124504333Y-103840000D01*
X124510681Y-101300000D01*
X125327474Y-101300000D01*
X125347524Y-101490764D01*
X125347525Y-101490767D01*
X125406795Y-101673185D01*
X125406798Y-101673191D01*
X125502704Y-101839306D01*
X125502709Y-101839313D01*
X125631054Y-101981854D01*
X125631056Y-101981856D01*
X125786235Y-102094600D01*
X125786236Y-102094601D01*
X125961469Y-102172619D01*
X126149092Y-102212500D01*
X126340908Y-102212500D01*
X126528531Y-102172619D01*
X126703763Y-102094601D01*
X126858945Y-101981855D01*
X126974967Y-101852999D01*
X126987290Y-101839313D01*
X126987295Y-101839306D01*
X127060507Y-101712500D01*
X127111074Y-101664284D01*
X127167894Y-101650500D01*
X130740246Y-101650500D01*
X130807285Y-101670185D01*
X130827928Y-101686819D01*
X130831949Y-101690840D01*
X130831950Y-101690842D01*
X130921658Y-101780550D01*
X131034694Y-101838145D01*
X131034698Y-101838147D01*
X131128475Y-101852999D01*
X131128481Y-101853000D01*
X132091518Y-101852999D01*
X132185304Y-101838146D01*
X132298342Y-101780550D01*
X132388050Y-101690842D01*
X132445646Y-101577804D01*
X132445646Y-101577802D01*
X132445647Y-101577801D01*
X132460499Y-101484024D01*
X132460500Y-101484019D01*
X132460499Y-100895982D01*
X132445646Y-100802196D01*
X132388050Y-100689158D01*
X132388046Y-100689154D01*
X132388045Y-100689152D01*
X132298347Y-100599454D01*
X132298344Y-100599452D01*
X132298342Y-100599450D01*
X132221517Y-100560305D01*
X132185301Y-100541852D01*
X132091524Y-100527000D01*
X131128482Y-100527000D01*
X131047519Y-100539823D01*
X131034696Y-100541854D01*
X130921658Y-100599450D01*
X130921657Y-100599451D01*
X130921652Y-100599454D01*
X130831954Y-100689152D01*
X130831951Y-100689157D01*
X130774352Y-100802198D01*
X130767590Y-100844898D01*
X130737661Y-100908033D01*
X130678349Y-100944964D01*
X130645117Y-100949500D01*
X127167894Y-100949500D01*
X127100855Y-100929815D01*
X127060507Y-100887500D01*
X126987295Y-100760693D01*
X126987290Y-100760686D01*
X126858945Y-100618145D01*
X126858943Y-100618143D01*
X126703764Y-100505399D01*
X126703763Y-100505398D01*
X126528530Y-100427380D01*
X126340908Y-100387500D01*
X126149092Y-100387500D01*
X125961469Y-100427380D01*
X125961468Y-100427380D01*
X125786236Y-100505398D01*
X125786235Y-100505399D01*
X125631056Y-100618143D01*
X125631054Y-100618145D01*
X125502709Y-100760686D01*
X125502704Y-100760693D01*
X125406798Y-100926808D01*
X125406795Y-100926814D01*
X125347525Y-101109232D01*
X125347524Y-101109236D01*
X125327474Y-101300000D01*
X124510681Y-101300000D01*
X124517028Y-98760000D01*
X125327474Y-98760000D01*
X125347524Y-98950764D01*
X125347525Y-98950767D01*
X125406795Y-99133185D01*
X125406798Y-99133191D01*
X125502704Y-99299306D01*
X125502709Y-99299313D01*
X125631054Y-99441854D01*
X125631056Y-99441856D01*
X125786235Y-99554600D01*
X125786236Y-99554601D01*
X125961469Y-99632619D01*
X126149092Y-99672500D01*
X126340908Y-99672500D01*
X126404340Y-99659017D01*
X130759500Y-99659017D01*
X130770292Y-99727157D01*
X130774354Y-99752804D01*
X130831950Y-99865842D01*
X130831952Y-99865844D01*
X130831954Y-99865847D01*
X130921652Y-99955545D01*
X130921654Y-99955546D01*
X130921658Y-99955550D01*
X131034694Y-100013145D01*
X131034698Y-100013147D01*
X131128475Y-100027999D01*
X131128481Y-100028000D01*
X132091518Y-100027999D01*
X132185304Y-100013146D01*
X132298342Y-99955550D01*
X132388050Y-99865842D01*
X132445646Y-99752804D01*
X132445646Y-99752802D01*
X132445647Y-99752801D01*
X132460499Y-99659024D01*
X132460500Y-99659019D01*
X132460499Y-99070982D01*
X132445646Y-98977196D01*
X132388050Y-98864158D01*
X132388046Y-98864154D01*
X132388045Y-98864152D01*
X132298347Y-98774454D01*
X132298344Y-98774452D01*
X132298342Y-98774450D01*
X132221517Y-98735305D01*
X132185301Y-98716852D01*
X132091524Y-98702000D01*
X132091519Y-98702000D01*
X131884500Y-98702000D01*
X131817461Y-98682315D01*
X131771706Y-98629511D01*
X131760500Y-98578000D01*
X131760500Y-91180682D01*
X131775022Y-91131222D01*
X131772092Y-91130009D01*
X131776763Y-91118726D01*
X131776767Y-91118722D01*
X131785500Y-91074820D01*
X131785500Y-90935000D01*
X132335001Y-90935000D01*
X132335001Y-91074772D01*
X132343703Y-91118526D01*
X132343704Y-91118529D01*
X132376856Y-91168143D01*
X132426473Y-91201296D01*
X132426477Y-91201298D01*
X132470214Y-91209998D01*
X132470229Y-91209999D01*
X132485000Y-91209998D01*
X132485000Y-90935000D01*
X132935000Y-90935000D01*
X132935000Y-91209999D01*
X132949772Y-91209999D01*
X132993526Y-91201296D01*
X132993529Y-91201295D01*
X133043143Y-91168143D01*
X133076296Y-91118526D01*
X133076298Y-91118522D01*
X133084999Y-91074779D01*
X133085000Y-91074777D01*
X133085000Y-90935000D01*
X132935000Y-90935000D01*
X132485000Y-90935000D01*
X132335001Y-90935000D01*
X131785500Y-90935000D01*
X131785500Y-90485000D01*
X132335000Y-90485000D01*
X132485000Y-90485000D01*
X132485000Y-90210000D01*
X132935000Y-90210000D01*
X132935000Y-90485000D01*
X133084999Y-90485000D01*
X133084999Y-90345227D01*
X133076296Y-90301473D01*
X133076295Y-90301470D01*
X133043143Y-90251856D01*
X132993526Y-90218703D01*
X132993522Y-90218701D01*
X132949778Y-90210000D01*
X132935000Y-90210000D01*
X132485000Y-90210000D01*
X132485000Y-90209999D01*
X132470229Y-90210000D01*
X132470226Y-90210000D01*
X132426472Y-90218703D01*
X132426470Y-90218704D01*
X132376856Y-90251856D01*
X132343703Y-90301473D01*
X132343701Y-90301477D01*
X132335000Y-90345220D01*
X132335000Y-90485000D01*
X131785500Y-90485000D01*
X131785500Y-90345180D01*
X131785500Y-90345177D01*
X131776768Y-90301282D01*
X131776767Y-90301281D01*
X131776767Y-90301278D01*
X131743504Y-90251496D01*
X131743503Y-90251495D01*
X131693724Y-90218234D01*
X131693717Y-90218231D01*
X131649822Y-90209500D01*
X131649820Y-90209500D01*
X131170180Y-90209500D01*
X131170178Y-90209500D01*
X131126282Y-90218231D01*
X131126275Y-90218234D01*
X131076496Y-90251495D01*
X131076495Y-90251496D01*
X131043234Y-90301275D01*
X131043231Y-90301282D01*
X131034500Y-90345177D01*
X131034500Y-90345180D01*
X131034500Y-91074820D01*
X131043233Y-91118722D01*
X131043233Y-91118723D01*
X131043234Y-91118724D01*
X131047908Y-91130009D01*
X131044718Y-91131330D01*
X131059480Y-91178456D01*
X131059500Y-91180682D01*
X131059500Y-98628228D01*
X131039815Y-98695267D01*
X130991796Y-98738712D01*
X130921659Y-98774449D01*
X130921652Y-98774454D01*
X130831954Y-98864152D01*
X130831951Y-98864157D01*
X130774352Y-98977198D01*
X130759500Y-99070975D01*
X130759500Y-99659017D01*
X126404340Y-99659017D01*
X126528531Y-99632619D01*
X126703763Y-99554601D01*
X126858945Y-99441855D01*
X126941348Y-99350336D01*
X126987290Y-99299313D01*
X126987295Y-99299306D01*
X127083202Y-99133191D01*
X127142476Y-98950764D01*
X127162526Y-98760000D01*
X127142476Y-98569236D01*
X127083202Y-98386809D01*
X126987294Y-98220692D01*
X126987290Y-98220686D01*
X126858945Y-98078145D01*
X126858943Y-98078143D01*
X126703764Y-97965399D01*
X126703763Y-97965398D01*
X126528530Y-97887380D01*
X126340908Y-97847500D01*
X126149092Y-97847500D01*
X125961469Y-97887380D01*
X125961468Y-97887380D01*
X125786236Y-97965398D01*
X125786235Y-97965399D01*
X125631056Y-98078143D01*
X125631054Y-98078145D01*
X125502709Y-98220686D01*
X125502704Y-98220693D01*
X125406798Y-98386808D01*
X125406795Y-98386814D01*
X125347525Y-98569232D01*
X125347524Y-98569236D01*
X125327474Y-98760000D01*
X124517028Y-98760000D01*
X124523376Y-96220000D01*
X125327474Y-96220000D01*
X125347524Y-96410764D01*
X125347525Y-96410767D01*
X125406795Y-96593185D01*
X125406798Y-96593191D01*
X125502704Y-96759306D01*
X125502709Y-96759313D01*
X125631054Y-96901854D01*
X125631056Y-96901856D01*
X125786235Y-97014600D01*
X125786236Y-97014601D01*
X125961469Y-97092619D01*
X126149092Y-97132500D01*
X126340908Y-97132500D01*
X126528531Y-97092619D01*
X126703763Y-97014601D01*
X126858945Y-96901855D01*
X126941348Y-96810336D01*
X126987290Y-96759313D01*
X126987295Y-96759306D01*
X127083202Y-96593191D01*
X127142476Y-96410764D01*
X127162526Y-96220000D01*
X127142476Y-96029236D01*
X127083202Y-95846809D01*
X126987294Y-95680692D01*
X126987290Y-95680686D01*
X126858945Y-95538145D01*
X126858943Y-95538143D01*
X126703764Y-95425399D01*
X126703763Y-95425398D01*
X126528530Y-95347380D01*
X126340908Y-95307500D01*
X126149092Y-95307500D01*
X125961469Y-95347380D01*
X125961468Y-95347380D01*
X125786236Y-95425398D01*
X125786235Y-95425399D01*
X125631056Y-95538143D01*
X125631054Y-95538145D01*
X125502709Y-95680686D01*
X125502704Y-95680693D01*
X125406798Y-95846808D01*
X125406795Y-95846814D01*
X125347525Y-96029232D01*
X125347524Y-96029236D01*
X125327474Y-96220000D01*
X124523376Y-96220000D01*
X124529723Y-93680000D01*
X125327474Y-93680000D01*
X125347524Y-93870764D01*
X125347525Y-93870767D01*
X125406795Y-94053185D01*
X125406798Y-94053191D01*
X125502704Y-94219306D01*
X125502709Y-94219313D01*
X125631054Y-94361854D01*
X125631056Y-94361856D01*
X125786235Y-94474600D01*
X125786236Y-94474601D01*
X125961469Y-94552619D01*
X126149092Y-94592500D01*
X126340908Y-94592500D01*
X126528531Y-94552619D01*
X126703763Y-94474601D01*
X126858945Y-94361855D01*
X126941348Y-94270336D01*
X126987290Y-94219313D01*
X126987295Y-94219306D01*
X127083202Y-94053191D01*
X127142476Y-93870764D01*
X127162526Y-93680000D01*
X127142476Y-93489236D01*
X127083202Y-93306809D01*
X126987294Y-93140692D01*
X126987290Y-93140686D01*
X126858945Y-92998145D01*
X126858943Y-92998143D01*
X126703764Y-92885399D01*
X126703763Y-92885398D01*
X126528530Y-92807380D01*
X126340908Y-92767500D01*
X126149092Y-92767500D01*
X125961469Y-92807380D01*
X125961468Y-92807380D01*
X125786236Y-92885398D01*
X125786235Y-92885399D01*
X125631056Y-92998143D01*
X125631054Y-92998145D01*
X125502709Y-93140686D01*
X125502704Y-93140693D01*
X125406798Y-93306808D01*
X125406795Y-93306814D01*
X125347525Y-93489232D01*
X125347524Y-93489236D01*
X125327474Y-93680000D01*
X124529723Y-93680000D01*
X124536071Y-91140000D01*
X125327474Y-91140000D01*
X125347524Y-91330764D01*
X125347525Y-91330767D01*
X125406795Y-91513185D01*
X125406798Y-91513191D01*
X125502704Y-91679306D01*
X125502709Y-91679313D01*
X125631054Y-91821854D01*
X125631056Y-91821856D01*
X125786235Y-91934600D01*
X125786236Y-91934601D01*
X125961469Y-92012619D01*
X126149092Y-92052500D01*
X126340908Y-92052500D01*
X126528531Y-92012619D01*
X126703763Y-91934601D01*
X126858945Y-91821855D01*
X126941348Y-91730336D01*
X126987290Y-91679313D01*
X126987295Y-91679306D01*
X127083202Y-91513191D01*
X127142476Y-91330764D01*
X127162526Y-91140000D01*
X127142476Y-90949236D01*
X127083202Y-90766809D01*
X126987294Y-90600692D01*
X126987290Y-90600686D01*
X126858945Y-90458145D01*
X126858943Y-90458143D01*
X126703764Y-90345399D01*
X126703763Y-90345398D01*
X126528530Y-90267380D01*
X126340908Y-90227500D01*
X126149092Y-90227500D01*
X125961469Y-90267380D01*
X125961468Y-90267380D01*
X125786236Y-90345398D01*
X125786235Y-90345399D01*
X125631056Y-90458143D01*
X125631054Y-90458145D01*
X125502709Y-90600686D01*
X125502704Y-90600693D01*
X125406798Y-90766808D01*
X125406795Y-90766814D01*
X125347525Y-90949232D01*
X125347524Y-90949236D01*
X125327474Y-91140000D01*
X124536071Y-91140000D01*
X124542418Y-88600000D01*
X125327474Y-88600000D01*
X125347524Y-88790764D01*
X125347525Y-88790767D01*
X125406795Y-88973185D01*
X125406798Y-88973191D01*
X125502704Y-89139306D01*
X125502709Y-89139313D01*
X125631054Y-89281854D01*
X125631056Y-89281856D01*
X125786235Y-89394600D01*
X125786236Y-89394601D01*
X125961469Y-89472619D01*
X126149092Y-89512500D01*
X126340908Y-89512500D01*
X126528531Y-89472619D01*
X126703763Y-89394601D01*
X126858945Y-89281855D01*
X126961007Y-89168503D01*
X126987290Y-89139313D01*
X126987295Y-89139306D01*
X127024526Y-89074820D01*
X127083202Y-88973191D01*
X127142476Y-88790764D01*
X127155135Y-88670317D01*
X131679957Y-88670317D01*
X131684023Y-88702937D01*
X131684500Y-88710614D01*
X131684500Y-89074820D01*
X131684500Y-89074822D01*
X131684499Y-89074822D01*
X131693231Y-89118717D01*
X131693234Y-89118724D01*
X131706988Y-89139308D01*
X131726496Y-89168504D01*
X131776278Y-89201767D01*
X131776281Y-89201767D01*
X131776282Y-89201768D01*
X131820177Y-89210500D01*
X131820180Y-89210500D01*
X132299822Y-89210500D01*
X132343717Y-89201768D01*
X132343717Y-89201767D01*
X132343722Y-89201767D01*
X132393504Y-89168504D01*
X132426767Y-89118722D01*
X132435500Y-89074820D01*
X132435500Y-88345180D01*
X132435500Y-88345177D01*
X132426768Y-88301282D01*
X132426766Y-88301276D01*
X132406397Y-88270791D01*
X132385520Y-88204114D01*
X132385500Y-88201902D01*
X132385500Y-79436543D01*
X132405185Y-79369504D01*
X132421819Y-79348862D01*
X133753862Y-78016819D01*
X133815185Y-77983334D01*
X133841543Y-77980500D01*
X138199620Y-77980500D01*
X138266659Y-78000185D01*
X138302721Y-78035608D01*
X138304349Y-78038044D01*
X138345447Y-78099552D01*
X138411769Y-78143867D01*
X138411770Y-78143868D01*
X138470247Y-78155499D01*
X138470250Y-78155500D01*
X138470252Y-78155500D01*
X138547200Y-78155500D01*
X138614239Y-78175185D01*
X138659994Y-78227989D01*
X138669509Y-78259097D01*
X138669577Y-78259500D01*
X138673087Y-78280542D01*
X138679427Y-78331393D01*
X138681520Y-78338426D01*
X138683908Y-78345381D01*
X138708295Y-78390444D01*
X138730801Y-78436483D01*
X138735065Y-78442455D01*
X138739580Y-78448256D01*
X138777275Y-78482958D01*
X139067362Y-78773044D01*
X139083486Y-78792899D01*
X139088563Y-78800669D01*
X139088565Y-78800671D01*
X139104280Y-78812902D01*
X139114259Y-78820669D01*
X139114505Y-78820860D01*
X139120268Y-78825950D01*
X139122693Y-78828375D01*
X139122695Y-78828377D01*
X139127959Y-78832135D01*
X139140437Y-78841044D01*
X139180874Y-78872517D01*
X139180878Y-78872518D01*
X139187314Y-78876000D01*
X139187339Y-78876013D01*
X139187371Y-78876030D01*
X139193930Y-78879237D01*
X139193933Y-78879239D01*
X139243037Y-78893858D01*
X139291512Y-78910500D01*
X139291514Y-78910500D01*
X139298754Y-78911708D01*
X139306046Y-78912617D01*
X139357231Y-78910500D01*
X140480789Y-78910500D01*
X140506234Y-78913138D01*
X140515315Y-78915043D01*
X140531005Y-78913087D01*
X140547939Y-78910977D01*
X140555615Y-78910500D01*
X140559035Y-78910500D01*
X140559040Y-78910500D01*
X140562608Y-78909904D01*
X140580539Y-78906913D01*
X140607958Y-78903494D01*
X140631393Y-78900573D01*
X140631402Y-78900568D01*
X140638451Y-78898470D01*
X140645377Y-78896092D01*
X140645381Y-78896092D01*
X140690444Y-78871704D01*
X140736484Y-78849198D01*
X140736487Y-78849194D01*
X140742453Y-78844935D01*
X140748254Y-78840419D01*
X140748258Y-78840418D01*
X140782957Y-78802724D01*
X140862322Y-78723359D01*
X140923640Y-78689877D01*
X140993332Y-78694861D01*
X141037680Y-78723362D01*
X141107362Y-78793044D01*
X141123486Y-78812899D01*
X141128563Y-78820669D01*
X141154508Y-78840862D01*
X141160260Y-78845942D01*
X141162693Y-78848375D01*
X141180438Y-78861044D01*
X141220874Y-78892517D01*
X141220876Y-78892517D01*
X141227310Y-78895999D01*
X141227344Y-78896016D01*
X141227390Y-78896041D01*
X141233932Y-78899239D01*
X141233933Y-78899239D01*
X141233934Y-78899240D01*
X141248078Y-78903451D01*
X141283045Y-78913862D01*
X141327842Y-78929240D01*
X141331512Y-78930500D01*
X141331515Y-78930500D01*
X141338625Y-78931687D01*
X141338731Y-78931700D01*
X141338855Y-78931720D01*
X141346046Y-78932617D01*
X141397231Y-78930500D01*
X142580789Y-78930500D01*
X142606234Y-78933138D01*
X142615315Y-78935043D01*
X142631005Y-78933087D01*
X142647939Y-78930977D01*
X142655615Y-78930500D01*
X142659035Y-78930500D01*
X142659040Y-78930500D01*
X142662608Y-78929904D01*
X142680539Y-78926913D01*
X142707958Y-78923494D01*
X142731393Y-78920573D01*
X142731402Y-78920568D01*
X142738451Y-78918470D01*
X142745377Y-78916092D01*
X142745381Y-78916092D01*
X142790444Y-78891704D01*
X142836484Y-78869198D01*
X142836487Y-78869194D01*
X142842453Y-78864935D01*
X142848254Y-78860419D01*
X142848258Y-78860418D01*
X142882957Y-78822724D01*
X142992322Y-78713358D01*
X143053640Y-78679877D01*
X143123332Y-78684861D01*
X143167680Y-78713362D01*
X143277362Y-78823044D01*
X143293489Y-78842902D01*
X143298563Y-78850669D01*
X143298565Y-78850671D01*
X143301202Y-78852723D01*
X143322369Y-78869198D01*
X143324505Y-78870860D01*
X143330268Y-78875950D01*
X143332694Y-78878376D01*
X143350441Y-78891047D01*
X143390874Y-78922517D01*
X143390875Y-78922517D01*
X143390876Y-78922518D01*
X143397318Y-78926004D01*
X143403929Y-78929236D01*
X143403934Y-78929240D01*
X143453052Y-78943863D01*
X143501512Y-78960500D01*
X143501513Y-78960500D01*
X143508748Y-78961707D01*
X143508769Y-78961710D01*
X143508801Y-78961715D01*
X143516046Y-78962618D01*
X143516046Y-78962617D01*
X143516047Y-78962618D01*
X143567256Y-78960500D01*
X144590789Y-78960500D01*
X144616234Y-78963138D01*
X144625315Y-78965043D01*
X144641005Y-78963087D01*
X144657939Y-78960977D01*
X144665615Y-78960500D01*
X144669035Y-78960500D01*
X144669040Y-78960500D01*
X144672608Y-78959904D01*
X144690539Y-78956913D01*
X144717958Y-78953494D01*
X144741393Y-78950573D01*
X144741402Y-78950568D01*
X144748451Y-78948470D01*
X144755377Y-78946092D01*
X144755381Y-78946092D01*
X144800444Y-78921704D01*
X144846484Y-78899198D01*
X144846489Y-78899192D01*
X144852446Y-78894939D01*
X144858250Y-78890421D01*
X144858258Y-78890418D01*
X144877791Y-78869199D01*
X144892957Y-78852724D01*
X144972636Y-78773044D01*
X145052321Y-78693358D01*
X145113640Y-78659876D01*
X145183332Y-78664860D01*
X145227678Y-78693359D01*
X145257681Y-78723362D01*
X145357360Y-78823041D01*
X145373484Y-78842896D01*
X145378563Y-78850669D01*
X145402371Y-78869199D01*
X145404509Y-78870863D01*
X145410272Y-78875953D01*
X145412693Y-78878374D01*
X145412696Y-78878377D01*
X145430427Y-78891037D01*
X145440966Y-78899239D01*
X145470874Y-78922517D01*
X145470875Y-78922517D01*
X145470876Y-78922518D01*
X145477318Y-78926004D01*
X145483931Y-78929238D01*
X145483934Y-78929240D01*
X145492197Y-78931700D01*
X145533045Y-78943862D01*
X145581506Y-78960498D01*
X145581512Y-78960500D01*
X145581518Y-78960500D01*
X145588768Y-78961710D01*
X145596046Y-78962617D01*
X145647242Y-78960500D01*
X147101512Y-78960500D01*
X147110789Y-78960500D01*
X147136234Y-78963138D01*
X147145315Y-78965043D01*
X147161005Y-78963087D01*
X147177939Y-78960977D01*
X147185615Y-78960500D01*
X147768000Y-78960500D01*
X147835039Y-78980185D01*
X147880794Y-79032989D01*
X147892000Y-79084500D01*
X147892000Y-105820500D01*
X147872315Y-105887539D01*
X147819511Y-105933294D01*
X147768000Y-105944500D01*
X147767880Y-105944500D01*
X147700841Y-105924815D01*
X147664778Y-105889391D01*
X147622052Y-105825447D01*
X147555730Y-105781132D01*
X147555729Y-105781131D01*
X147497252Y-105769500D01*
X147497248Y-105769500D01*
X147422000Y-105769500D01*
X147354961Y-105749815D01*
X147309206Y-105697011D01*
X147298000Y-105645500D01*
X147298000Y-105596706D01*
X147300639Y-105571260D01*
X147302542Y-105562185D01*
X147299619Y-105538733D01*
X147298477Y-105529568D01*
X147298000Y-105521891D01*
X147298000Y-105518463D01*
X147297998Y-105518450D01*
X147294410Y-105496949D01*
X147290739Y-105467500D01*
X147288073Y-105446107D01*
X147288072Y-105446104D01*
X147286018Y-105439204D01*
X147285975Y-105439079D01*
X147285937Y-105438953D01*
X147283592Y-105432118D01*
X147259204Y-105387055D01*
X147236699Y-105341018D01*
X147232419Y-105335024D01*
X147227919Y-105329243D01*
X147190224Y-105294541D01*
X146942637Y-105046955D01*
X146926511Y-105027098D01*
X146921437Y-105019331D01*
X146895487Y-104999133D01*
X146889741Y-104994059D01*
X146887307Y-104991625D01*
X146887306Y-104991624D01*
X146887305Y-104991623D01*
X146874170Y-104982246D01*
X146869561Y-104978955D01*
X146829126Y-104947483D01*
X146829122Y-104947481D01*
X146822648Y-104943977D01*
X146816069Y-104940760D01*
X146766954Y-104926138D01*
X146718486Y-104909498D01*
X146711269Y-104908294D01*
X146703953Y-104907382D01*
X146654725Y-104909419D01*
X146652769Y-104909500D01*
X145549211Y-104909500D01*
X145523765Y-104906861D01*
X145514685Y-104904957D01*
X145514684Y-104904957D01*
X145514682Y-104904957D01*
X145482061Y-104909023D01*
X145474385Y-104909500D01*
X145470958Y-104909500D01*
X145449456Y-104913088D01*
X145398606Y-104919427D01*
X145391560Y-104921524D01*
X145384618Y-104923908D01*
X145339546Y-104948300D01*
X145293514Y-104970803D01*
X145287530Y-104975075D01*
X145285792Y-104976428D01*
X145285443Y-104976565D01*
X145285352Y-104976631D01*
X145285351Y-104976630D01*
X145282886Y-104978390D01*
X145276758Y-104982246D01*
X145273477Y-104984052D01*
X145272226Y-104981780D01*
X145220798Y-105002071D01*
X145152258Y-104988505D01*
X145133470Y-104976431D01*
X145109126Y-104957483D01*
X145109124Y-104957482D01*
X145102648Y-104953977D01*
X145096069Y-104950760D01*
X145046954Y-104936138D01*
X144998486Y-104919498D01*
X144991269Y-104918294D01*
X144983953Y-104917382D01*
X144934725Y-104919419D01*
X144932769Y-104919500D01*
X143559211Y-104919500D01*
X143533765Y-104916861D01*
X143524685Y-104914957D01*
X143524684Y-104914957D01*
X143524682Y-104914957D01*
X143492061Y-104919023D01*
X143484385Y-104919500D01*
X143480960Y-104919500D01*
X143459457Y-104923087D01*
X143408608Y-104929426D01*
X143401566Y-104931522D01*
X143394620Y-104933907D01*
X143349550Y-104958297D01*
X143303513Y-104980803D01*
X143297538Y-104985069D01*
X143291746Y-104989577D01*
X143285120Y-104996775D01*
X143257032Y-105027286D01*
X143254987Y-105029331D01*
X143250825Y-105033492D01*
X143189498Y-105066970D01*
X143119807Y-105061978D01*
X143086993Y-105043655D01*
X143065968Y-105027291D01*
X143055495Y-105019140D01*
X143049741Y-105014059D01*
X143047307Y-105011625D01*
X143047306Y-105011624D01*
X143047305Y-105011623D01*
X143033925Y-105002071D01*
X143029561Y-104998955D01*
X142989126Y-104967483D01*
X142989122Y-104967481D01*
X142982648Y-104963977D01*
X142976069Y-104960760D01*
X142926954Y-104946138D01*
X142878486Y-104929498D01*
X142871269Y-104928294D01*
X142863953Y-104927382D01*
X142814725Y-104929419D01*
X142812769Y-104929500D01*
X141439211Y-104929500D01*
X141413765Y-104926861D01*
X141410317Y-104926138D01*
X141404685Y-104924957D01*
X141404684Y-104924957D01*
X141404682Y-104924957D01*
X141372061Y-104929023D01*
X141364385Y-104929500D01*
X141360960Y-104929500D01*
X141339457Y-104933087D01*
X141288608Y-104939426D01*
X141281570Y-104941521D01*
X141274622Y-104943906D01*
X141229549Y-104968298D01*
X141217996Y-104973945D01*
X141149122Y-104985697D01*
X141128165Y-104981384D01*
X141098983Y-104972696D01*
X141076954Y-104966138D01*
X141057388Y-104959421D01*
X141028485Y-104949498D01*
X141021269Y-104948294D01*
X141013953Y-104947382D01*
X140964725Y-104949419D01*
X140962769Y-104949500D01*
X139479211Y-104949500D01*
X139453765Y-104946861D01*
X139450317Y-104946138D01*
X139444685Y-104944957D01*
X139444684Y-104944957D01*
X139444682Y-104944957D01*
X139412061Y-104949023D01*
X139404385Y-104949500D01*
X139400960Y-104949500D01*
X139379457Y-104953087D01*
X139328608Y-104959426D01*
X139321570Y-104961521D01*
X139314622Y-104963906D01*
X139269555Y-104988295D01*
X139223512Y-105010803D01*
X139217566Y-105015048D01*
X139211742Y-105019581D01*
X139177042Y-105057275D01*
X138926955Y-105307361D01*
X138907106Y-105323482D01*
X138899331Y-105328562D01*
X138879143Y-105354498D01*
X138874067Y-105360248D01*
X138871634Y-105362681D01*
X138871623Y-105362694D01*
X138858954Y-105380438D01*
X138827483Y-105420872D01*
X138823975Y-105427353D01*
X138820760Y-105433932D01*
X138806138Y-105483045D01*
X138789498Y-105531516D01*
X138788294Y-105538733D01*
X138787382Y-105546046D01*
X138789500Y-105597230D01*
X138789500Y-105720500D01*
X138769815Y-105787539D01*
X138717011Y-105833294D01*
X138665500Y-105844500D01*
X138590247Y-105844500D01*
X138531770Y-105856131D01*
X138531769Y-105856132D01*
X138465447Y-105900447D01*
X138421132Y-105966769D01*
X138421131Y-105966770D01*
X138409500Y-106025247D01*
X138409500Y-106714752D01*
X138421131Y-106773229D01*
X138421132Y-106773230D01*
X138465448Y-106839553D01*
X138465840Y-106839945D01*
X138466420Y-106841007D01*
X138472233Y-106849707D01*
X138471454Y-106850227D01*
X138499325Y-106901268D01*
X138494341Y-106970960D01*
X138477874Y-106996592D01*
X138479860Y-106997919D01*
X138473075Y-107008073D01*
X138473074Y-107008074D01*
X138472829Y-107008441D01*
X138422718Y-107083437D01*
X138422717Y-107083441D01*
X138409500Y-107149887D01*
X138409500Y-108540112D01*
X138422717Y-108606558D01*
X138422718Y-108606562D01*
X138439427Y-108631570D01*
X138473074Y-108681926D01*
X138548437Y-108732281D01*
X138548441Y-108732282D01*
X138614887Y-108745499D01*
X138614890Y-108745500D01*
X138614892Y-108745500D01*
X138665500Y-108745500D01*
X138732539Y-108765185D01*
X138778294Y-108817989D01*
X138789500Y-108869500D01*
X138789500Y-109263000D01*
X138769815Y-109330039D01*
X138717011Y-109375794D01*
X138673231Y-109385330D01*
X138673333Y-109386619D01*
X138668488Y-109387000D01*
X138668482Y-109387001D01*
X138574696Y-109401854D01*
X138461658Y-109459450D01*
X138461657Y-109459451D01*
X138461652Y-109459454D01*
X138371954Y-109549152D01*
X138371951Y-109549157D01*
X138371950Y-109549158D01*
X138366855Y-109559158D01*
X138314352Y-109662198D01*
X138299500Y-109755975D01*
X138299500Y-110344017D01*
X138310292Y-110412157D01*
X138314354Y-110437804D01*
X138371950Y-110550842D01*
X138371952Y-110550844D01*
X138371954Y-110550847D01*
X138461652Y-110640545D01*
X138461654Y-110640546D01*
X138461658Y-110640550D01*
X138555072Y-110688147D01*
X138574698Y-110698147D01*
X138668475Y-110712999D01*
X138668481Y-110713000D01*
X139631518Y-110712999D01*
X139725304Y-110698146D01*
X139838342Y-110640550D01*
X139928050Y-110550842D01*
X139985646Y-110437804D01*
X139985646Y-110437802D01*
X139985647Y-110437801D01*
X140000499Y-110344024D01*
X140000500Y-110344019D01*
X140000499Y-109755982D01*
X139985646Y-109662196D01*
X139928050Y-109549158D01*
X139928046Y-109549154D01*
X139928045Y-109549152D01*
X139838347Y-109459454D01*
X139838344Y-109459452D01*
X139838342Y-109459450D01*
X139761517Y-109420305D01*
X139725301Y-109401852D01*
X139631524Y-109387000D01*
X139631519Y-109387000D01*
X139614500Y-109387000D01*
X139547461Y-109367315D01*
X139501706Y-109314511D01*
X139490500Y-109263000D01*
X139490500Y-108869500D01*
X139510185Y-108802461D01*
X139562989Y-108756706D01*
X139614500Y-108745500D01*
X139665110Y-108745500D01*
X139665111Y-108745499D01*
X139731563Y-108732281D01*
X139806926Y-108681926D01*
X139857281Y-108606563D01*
X139870500Y-108540108D01*
X139870500Y-107149892D01*
X139870500Y-107149889D01*
X139870499Y-107149887D01*
X139857282Y-107083441D01*
X139857281Y-107083437D01*
X139806926Y-107008074D01*
X139806924Y-107008073D01*
X139800140Y-106997919D01*
X139803454Y-106995704D01*
X139780674Y-106953984D01*
X139785658Y-106884292D01*
X139807850Y-106849762D01*
X139807767Y-106849707D01*
X139810903Y-106845012D01*
X139814164Y-106839940D01*
X139814549Y-106839553D01*
X139814552Y-106839552D01*
X139858867Y-106773231D01*
X139858867Y-106773229D01*
X139858868Y-106773229D01*
X139870499Y-106714752D01*
X139870500Y-106714750D01*
X139870500Y-106025249D01*
X139870499Y-106025247D01*
X139858868Y-105966770D01*
X139858867Y-105966769D01*
X139814552Y-105900448D01*
X139784619Y-105880447D01*
X139780360Y-105877601D01*
X139735557Y-105823989D01*
X139726850Y-105754664D01*
X139757005Y-105691637D01*
X139816449Y-105654918D01*
X139849253Y-105650500D01*
X140430816Y-105650500D01*
X140497855Y-105670185D01*
X140543610Y-105722989D01*
X140553554Y-105792147D01*
X140524529Y-105855703D01*
X140499706Y-105877603D01*
X140495447Y-105880448D01*
X140451132Y-105946769D01*
X140451131Y-105946770D01*
X140439500Y-106005247D01*
X140439500Y-106694752D01*
X140451131Y-106753229D01*
X140451132Y-106753230D01*
X140495448Y-106819553D01*
X140495840Y-106819945D01*
X140496420Y-106821007D01*
X140502233Y-106829707D01*
X140501454Y-106830227D01*
X140529325Y-106881268D01*
X140524341Y-106950960D01*
X140507874Y-106976592D01*
X140509860Y-106977919D01*
X140503075Y-106988073D01*
X140503074Y-106988074D01*
X140484937Y-107015216D01*
X140452718Y-107063437D01*
X140452717Y-107063441D01*
X140439500Y-107129887D01*
X140439500Y-108520112D01*
X140452717Y-108586558D01*
X140452718Y-108586562D01*
X140452719Y-108586563D01*
X140503074Y-108661926D01*
X140573124Y-108708731D01*
X140578437Y-108712281D01*
X140578441Y-108712282D01*
X140644887Y-108725499D01*
X140644890Y-108725500D01*
X140644892Y-108725500D01*
X140695500Y-108725500D01*
X140762539Y-108745185D01*
X140808294Y-108797989D01*
X140819500Y-108849500D01*
X140819500Y-109265094D01*
X140799815Y-109332133D01*
X140747011Y-109377888D01*
X140714898Y-109387567D01*
X140624699Y-109401852D01*
X140586627Y-109421251D01*
X140511658Y-109459450D01*
X140511657Y-109459451D01*
X140511652Y-109459454D01*
X140421954Y-109549152D01*
X140421951Y-109549157D01*
X140421950Y-109549158D01*
X140416855Y-109559158D01*
X140364352Y-109662198D01*
X140349500Y-109755975D01*
X140349500Y-110344017D01*
X140360292Y-110412157D01*
X140364354Y-110437804D01*
X140421950Y-110550842D01*
X140421952Y-110550844D01*
X140421954Y-110550847D01*
X140511652Y-110640545D01*
X140511654Y-110640546D01*
X140511658Y-110640550D01*
X140605072Y-110688147D01*
X140624698Y-110698147D01*
X140718475Y-110712999D01*
X140718481Y-110713000D01*
X141681518Y-110712999D01*
X141775304Y-110698146D01*
X141888342Y-110640550D01*
X141978050Y-110550842D01*
X142035646Y-110437804D01*
X142035646Y-110437802D01*
X142035647Y-110437801D01*
X142050499Y-110344024D01*
X142050500Y-110344019D01*
X142050499Y-109755982D01*
X142035646Y-109662196D01*
X141978050Y-109549158D01*
X141978046Y-109549154D01*
X141978045Y-109549152D01*
X141888347Y-109459454D01*
X141888344Y-109459452D01*
X141888342Y-109459450D01*
X141811517Y-109420305D01*
X141775301Y-109401852D01*
X141681524Y-109387000D01*
X141681519Y-109387000D01*
X141644500Y-109387000D01*
X141577461Y-109367315D01*
X141531706Y-109314511D01*
X141520500Y-109263000D01*
X141520500Y-108849500D01*
X141540185Y-108782461D01*
X141592989Y-108736706D01*
X141644500Y-108725500D01*
X141695110Y-108725500D01*
X141695111Y-108725499D01*
X141761563Y-108712281D01*
X141836926Y-108661926D01*
X141887281Y-108586563D01*
X141900500Y-108520108D01*
X141900500Y-107129892D01*
X141900500Y-107129889D01*
X141900499Y-107129887D01*
X141887282Y-107063441D01*
X141887281Y-107063437D01*
X141886223Y-107061854D01*
X141836926Y-106988074D01*
X141836924Y-106988073D01*
X141830140Y-106977919D01*
X141833454Y-106975704D01*
X141810674Y-106933984D01*
X141815658Y-106864292D01*
X141837850Y-106829762D01*
X141837767Y-106829707D01*
X141840903Y-106825012D01*
X141844164Y-106819940D01*
X141844549Y-106819553D01*
X141844552Y-106819552D01*
X141888867Y-106753231D01*
X141888867Y-106753229D01*
X141888868Y-106753229D01*
X141899807Y-106698230D01*
X141900500Y-106694748D01*
X141900500Y-106005252D01*
X141900500Y-106005249D01*
X141900499Y-106005247D01*
X141888868Y-105946770D01*
X141888867Y-105946769D01*
X141844552Y-105880448D01*
X141810361Y-105857602D01*
X141765557Y-105803989D01*
X141756850Y-105734664D01*
X141787005Y-105671637D01*
X141846449Y-105634918D01*
X141879253Y-105630500D01*
X142450747Y-105630500D01*
X142517786Y-105650185D01*
X142563541Y-105702989D01*
X142573485Y-105772147D01*
X142544460Y-105835703D01*
X142519639Y-105857602D01*
X142485447Y-105880448D01*
X142441132Y-105946769D01*
X142441131Y-105946770D01*
X142429500Y-106005247D01*
X142429500Y-106694752D01*
X142441131Y-106753229D01*
X142441132Y-106753230D01*
X142485448Y-106819553D01*
X142485840Y-106819945D01*
X142486420Y-106821007D01*
X142492233Y-106829707D01*
X142491454Y-106830227D01*
X142519325Y-106881268D01*
X142514341Y-106950960D01*
X142497874Y-106976592D01*
X142499860Y-106977919D01*
X142493075Y-106988073D01*
X142493074Y-106988074D01*
X142474937Y-107015216D01*
X142442718Y-107063437D01*
X142442717Y-107063441D01*
X142429500Y-107129887D01*
X142429500Y-108520112D01*
X142442717Y-108586558D01*
X142442718Y-108586562D01*
X142442719Y-108586563D01*
X142493074Y-108661926D01*
X142563124Y-108708731D01*
X142568437Y-108712281D01*
X142568441Y-108712282D01*
X142634887Y-108725499D01*
X142634890Y-108725500D01*
X142634892Y-108725500D01*
X142685500Y-108725500D01*
X142752539Y-108745185D01*
X142798294Y-108797989D01*
X142809500Y-108849500D01*
X142809500Y-109276678D01*
X142789815Y-109343717D01*
X142737011Y-109389472D01*
X142704898Y-109399151D01*
X142624699Y-109411852D01*
X142606253Y-109421251D01*
X142511658Y-109469450D01*
X142511657Y-109469451D01*
X142511652Y-109469454D01*
X142421954Y-109559152D01*
X142421951Y-109559157D01*
X142364352Y-109672198D01*
X142349500Y-109765975D01*
X142349500Y-110354017D01*
X142360292Y-110422157D01*
X142364354Y-110447804D01*
X142421950Y-110560842D01*
X142421952Y-110560844D01*
X142421954Y-110560847D01*
X142511652Y-110650545D01*
X142511654Y-110650546D01*
X142511658Y-110650550D01*
X142624694Y-110708145D01*
X142624698Y-110708147D01*
X142718475Y-110722999D01*
X142718481Y-110723000D01*
X143681518Y-110722999D01*
X143775304Y-110708146D01*
X143888342Y-110650550D01*
X143978050Y-110560842D01*
X144035646Y-110447804D01*
X144035646Y-110447802D01*
X144035647Y-110447801D01*
X144050499Y-110354024D01*
X144050500Y-110354019D01*
X144050499Y-109765982D01*
X144035646Y-109672196D01*
X143978050Y-109559158D01*
X143978046Y-109559154D01*
X143978045Y-109559152D01*
X143888347Y-109469454D01*
X143888344Y-109469452D01*
X143888342Y-109469450D01*
X143793747Y-109421251D01*
X143775301Y-109411852D01*
X143681524Y-109397000D01*
X143681519Y-109397000D01*
X143634500Y-109397000D01*
X143567461Y-109377315D01*
X143521706Y-109324511D01*
X143510500Y-109273000D01*
X143510500Y-108849500D01*
X143530185Y-108782461D01*
X143582989Y-108736706D01*
X143634500Y-108725500D01*
X143685110Y-108725500D01*
X143685111Y-108725499D01*
X143751563Y-108712281D01*
X143826926Y-108661926D01*
X143877281Y-108586563D01*
X143890500Y-108520108D01*
X143890500Y-107129892D01*
X143890500Y-107129889D01*
X143890499Y-107129887D01*
X143877282Y-107063441D01*
X143877281Y-107063437D01*
X143876223Y-107061854D01*
X143826926Y-106988074D01*
X143826924Y-106988073D01*
X143820140Y-106977919D01*
X143823454Y-106975704D01*
X143800674Y-106933984D01*
X143805658Y-106864292D01*
X143827850Y-106829762D01*
X143827767Y-106829707D01*
X143830903Y-106825012D01*
X143834164Y-106819940D01*
X143834549Y-106819553D01*
X143834552Y-106819552D01*
X143878867Y-106753231D01*
X143878867Y-106753229D01*
X143878868Y-106753229D01*
X143889807Y-106698230D01*
X143890500Y-106694748D01*
X143890500Y-106005252D01*
X143890500Y-106005249D01*
X143890499Y-106005247D01*
X143878868Y-105946770D01*
X143878867Y-105946769D01*
X143834552Y-105880447D01*
X143785396Y-105847602D01*
X143740591Y-105793989D01*
X143731884Y-105724664D01*
X143762039Y-105661637D01*
X143821482Y-105624918D01*
X143854287Y-105620500D01*
X144387061Y-105620500D01*
X144454100Y-105640185D01*
X144499855Y-105692989D01*
X144509799Y-105762147D01*
X144490163Y-105813391D01*
X144441132Y-105886769D01*
X144441131Y-105886770D01*
X144429500Y-105945247D01*
X144429500Y-106634752D01*
X144441131Y-106693229D01*
X144441132Y-106693230D01*
X144485448Y-106759553D01*
X144485840Y-106759945D01*
X144486420Y-106761007D01*
X144492233Y-106769707D01*
X144491454Y-106770227D01*
X144519325Y-106821268D01*
X144514341Y-106890960D01*
X144497874Y-106916592D01*
X144499860Y-106917919D01*
X144493075Y-106928073D01*
X144493074Y-106928074D01*
X144486630Y-106937719D01*
X144442718Y-107003437D01*
X144442717Y-107003441D01*
X144429500Y-107069887D01*
X144429500Y-108460112D01*
X144442717Y-108526558D01*
X144442718Y-108526562D01*
X144451772Y-108540112D01*
X144493074Y-108601926D01*
X144568437Y-108652281D01*
X144568441Y-108652282D01*
X144634887Y-108665499D01*
X144634890Y-108665500D01*
X144634892Y-108665500D01*
X144685500Y-108665500D01*
X144752539Y-108685185D01*
X144798294Y-108737989D01*
X144809500Y-108789500D01*
X144809500Y-109258262D01*
X144789815Y-109325301D01*
X144737011Y-109371056D01*
X144704897Y-109380735D01*
X144634700Y-109391852D01*
X144634699Y-109391852D01*
X144579297Y-109420080D01*
X144521658Y-109449450D01*
X144521657Y-109449451D01*
X144521652Y-109449454D01*
X144431954Y-109539152D01*
X144431951Y-109539157D01*
X144431950Y-109539158D01*
X144412751Y-109576837D01*
X144374352Y-109652198D01*
X144359500Y-109745975D01*
X144359500Y-110334017D01*
X144362669Y-110354024D01*
X144374354Y-110427804D01*
X144431950Y-110540842D01*
X144431952Y-110540844D01*
X144431954Y-110540847D01*
X144521652Y-110630545D01*
X144521654Y-110630546D01*
X144521658Y-110630550D01*
X144634694Y-110688145D01*
X144634698Y-110688147D01*
X144728475Y-110702999D01*
X144728481Y-110703000D01*
X145691518Y-110702999D01*
X145785304Y-110688146D01*
X145898342Y-110630550D01*
X145988050Y-110540842D01*
X146045646Y-110427804D01*
X146045646Y-110427802D01*
X146045647Y-110427801D01*
X146056282Y-110360647D01*
X146060500Y-110334019D01*
X146060499Y-109745982D01*
X146045646Y-109652196D01*
X145988050Y-109539158D01*
X145988046Y-109539154D01*
X145988045Y-109539152D01*
X145898347Y-109449454D01*
X145898344Y-109449452D01*
X145898342Y-109449450D01*
X145804930Y-109401854D01*
X145785301Y-109391852D01*
X145691524Y-109377000D01*
X145691519Y-109377000D01*
X145634500Y-109377000D01*
X145567461Y-109357315D01*
X145521706Y-109304511D01*
X145510500Y-109253000D01*
X145510500Y-108789500D01*
X145530185Y-108722461D01*
X145582989Y-108676706D01*
X145634500Y-108665500D01*
X145685110Y-108665500D01*
X145685111Y-108665499D01*
X145751563Y-108652281D01*
X145826926Y-108601926D01*
X145877281Y-108526563D01*
X145890500Y-108460108D01*
X145890500Y-107069892D01*
X145890500Y-107069889D01*
X145890499Y-107069887D01*
X145877282Y-107003441D01*
X145877281Y-107003437D01*
X145859344Y-106976592D01*
X145826926Y-106928074D01*
X145826924Y-106928073D01*
X145820140Y-106917919D01*
X145823454Y-106915704D01*
X145800674Y-106873984D01*
X145805658Y-106804292D01*
X145827850Y-106769762D01*
X145827767Y-106769707D01*
X145830903Y-106765012D01*
X145834164Y-106759940D01*
X145834549Y-106759553D01*
X145834552Y-106759552D01*
X145878867Y-106693231D01*
X145878867Y-106693229D01*
X145878868Y-106693229D01*
X145890499Y-106634752D01*
X145890500Y-106634750D01*
X145890500Y-105945249D01*
X145890499Y-105945247D01*
X145878868Y-105886770D01*
X145878867Y-105886769D01*
X145827767Y-105810293D01*
X145829252Y-105809300D01*
X145802801Y-105760858D01*
X145807785Y-105691166D01*
X145849657Y-105635233D01*
X145915121Y-105610816D01*
X145923967Y-105610500D01*
X146188533Y-105610500D01*
X146255572Y-105630185D01*
X146301327Y-105682989D01*
X146311271Y-105752147D01*
X146282246Y-105815703D01*
X146276214Y-105822181D01*
X146272948Y-105825446D01*
X146228632Y-105891769D01*
X146228631Y-105891770D01*
X146217000Y-105950247D01*
X146217000Y-106639752D01*
X146228631Y-106698229D01*
X146228632Y-106698230D01*
X146272948Y-106764553D01*
X146273340Y-106764945D01*
X146273920Y-106766007D01*
X146279733Y-106774707D01*
X146278954Y-106775227D01*
X146306825Y-106826268D01*
X146301841Y-106895960D01*
X146285374Y-106921592D01*
X146287360Y-106922919D01*
X146280575Y-106933073D01*
X146280574Y-106933074D01*
X146272940Y-106944500D01*
X146230218Y-107008437D01*
X146230217Y-107008441D01*
X146217000Y-107074887D01*
X146217000Y-108465112D01*
X146230217Y-108531558D01*
X146230218Y-108531562D01*
X146240546Y-108547019D01*
X146280574Y-108606926D01*
X146348454Y-108652281D01*
X146355937Y-108657281D01*
X146355941Y-108657282D01*
X146422387Y-108670499D01*
X146422390Y-108670500D01*
X146422392Y-108670500D01*
X146473000Y-108670500D01*
X146540039Y-108690185D01*
X146585794Y-108742989D01*
X146597000Y-108794500D01*
X146597000Y-109346060D01*
X146577315Y-109413099D01*
X146545886Y-109446378D01*
X146541654Y-109449452D01*
X146451954Y-109539152D01*
X146451951Y-109539157D01*
X146451950Y-109539158D01*
X146432751Y-109576837D01*
X146394352Y-109652198D01*
X146379500Y-109745975D01*
X146379500Y-110334017D01*
X146382669Y-110354024D01*
X146394354Y-110427804D01*
X146451950Y-110540842D01*
X146451952Y-110540844D01*
X146451954Y-110540847D01*
X146541652Y-110630545D01*
X146541654Y-110630546D01*
X146541658Y-110630550D01*
X146654694Y-110688145D01*
X146654698Y-110688147D01*
X146748475Y-110702999D01*
X146748481Y-110703000D01*
X147711518Y-110702999D01*
X147805304Y-110688146D01*
X147918342Y-110630550D01*
X148008050Y-110540842D01*
X148065646Y-110427804D01*
X148065646Y-110427802D01*
X148065647Y-110427801D01*
X148076282Y-110360647D01*
X148080500Y-110334019D01*
X148080499Y-109745982D01*
X148065646Y-109652196D01*
X148008050Y-109539158D01*
X148008046Y-109539154D01*
X148008045Y-109539152D01*
X147918347Y-109449454D01*
X147918344Y-109449452D01*
X147918342Y-109449450D01*
X147824930Y-109401854D01*
X147805301Y-109391852D01*
X147711524Y-109377000D01*
X147711519Y-109377000D01*
X147422000Y-109377000D01*
X147354961Y-109357315D01*
X147309206Y-109304511D01*
X147298000Y-109253000D01*
X147298000Y-108794500D01*
X147317685Y-108727461D01*
X147370489Y-108681706D01*
X147422000Y-108670500D01*
X147472610Y-108670500D01*
X147472611Y-108670499D01*
X147539063Y-108657281D01*
X147614426Y-108606926D01*
X147664781Y-108531563D01*
X147678000Y-108465108D01*
X147678000Y-107074892D01*
X147678000Y-107074889D01*
X147677999Y-107074887D01*
X147664782Y-107008441D01*
X147664781Y-107008437D01*
X147657753Y-106997919D01*
X147614426Y-106933074D01*
X147614424Y-106933073D01*
X147607640Y-106922919D01*
X147610954Y-106920704D01*
X147588174Y-106878984D01*
X147593158Y-106809292D01*
X147615350Y-106774762D01*
X147615267Y-106774707D01*
X147618404Y-106770012D01*
X147621664Y-106764940D01*
X147622049Y-106764553D01*
X147622052Y-106764552D01*
X147664778Y-106700608D01*
X147718390Y-106655804D01*
X147767880Y-106645500D01*
X147985789Y-106645500D01*
X148011234Y-106648138D01*
X148020315Y-106650043D01*
X148036005Y-106648087D01*
X148052939Y-106645977D01*
X148060615Y-106645500D01*
X148064035Y-106645500D01*
X148064040Y-106645500D01*
X148067608Y-106644904D01*
X148085539Y-106641913D01*
X148112958Y-106638494D01*
X148136393Y-106635573D01*
X148136402Y-106635568D01*
X148143451Y-106633470D01*
X148150377Y-106631092D01*
X148150381Y-106631092D01*
X148195444Y-106606704D01*
X148241484Y-106584198D01*
X148241486Y-106584195D01*
X148245942Y-106581015D01*
X148311939Y-106558077D01*
X148379861Y-106574462D01*
X148428142Y-106624966D01*
X148442000Y-106681929D01*
X148442000Y-112695500D01*
X148422315Y-112762539D01*
X148369511Y-112808294D01*
X148318000Y-112819500D01*
X147704500Y-112819500D01*
X147637461Y-112799815D01*
X147591706Y-112747011D01*
X147580500Y-112695500D01*
X147580500Y-112651999D01*
X147600185Y-112584960D01*
X147652989Y-112539205D01*
X147704500Y-112527999D01*
X147711517Y-112527999D01*
X147711518Y-112527999D01*
X147805304Y-112513146D01*
X147918342Y-112455550D01*
X148008050Y-112365842D01*
X148065646Y-112252804D01*
X148065646Y-112252802D01*
X148065647Y-112252801D01*
X148077136Y-112180260D01*
X148080500Y-112159019D01*
X148080499Y-111570982D01*
X148065646Y-111477196D01*
X148008050Y-111364158D01*
X148008046Y-111364154D01*
X148008045Y-111364152D01*
X147918347Y-111274454D01*
X147918344Y-111274452D01*
X147918342Y-111274450D01*
X147824930Y-111226854D01*
X147805301Y-111216852D01*
X147711524Y-111202000D01*
X146748482Y-111202000D01*
X146667519Y-111214823D01*
X146654696Y-111216854D01*
X146541658Y-111274450D01*
X146541657Y-111274451D01*
X146541652Y-111274454D01*
X146451954Y-111364152D01*
X146451951Y-111364157D01*
X146451950Y-111364158D01*
X146432751Y-111401837D01*
X146394352Y-111477198D01*
X146379500Y-111570975D01*
X146379500Y-112159017D01*
X146382669Y-112179024D01*
X146394354Y-112252804D01*
X146451950Y-112365842D01*
X146451952Y-112365844D01*
X146451954Y-112365847D01*
X146541652Y-112455545D01*
X146541654Y-112455546D01*
X146541658Y-112455550D01*
X146654694Y-112513145D01*
X146654698Y-112513147D01*
X146748473Y-112527999D01*
X146748475Y-112527999D01*
X146748481Y-112528000D01*
X146755493Y-112527999D01*
X146822531Y-112547678D01*
X146868290Y-112600478D01*
X146879500Y-112651999D01*
X146879500Y-112705500D01*
X146859815Y-112772539D01*
X146807011Y-112818294D01*
X146755500Y-112829500D01*
X145736544Y-112829500D01*
X145669505Y-112809815D01*
X145648863Y-112793181D01*
X145596819Y-112741137D01*
X145563334Y-112679814D01*
X145560500Y-112653456D01*
X145560500Y-112651999D01*
X145580185Y-112584960D01*
X145632989Y-112539205D01*
X145684500Y-112527999D01*
X145691517Y-112527999D01*
X145691518Y-112527999D01*
X145785304Y-112513146D01*
X145898342Y-112455550D01*
X145988050Y-112365842D01*
X146045646Y-112252804D01*
X146045646Y-112252802D01*
X146045647Y-112252801D01*
X146057136Y-112180260D01*
X146060500Y-112159019D01*
X146060499Y-111570982D01*
X146045646Y-111477196D01*
X145988050Y-111364158D01*
X145988046Y-111364154D01*
X145988045Y-111364152D01*
X145898347Y-111274454D01*
X145898344Y-111274452D01*
X145898342Y-111274450D01*
X145804930Y-111226854D01*
X145785301Y-111216852D01*
X145691524Y-111202000D01*
X144728482Y-111202000D01*
X144647519Y-111214823D01*
X144634696Y-111216854D01*
X144521658Y-111274450D01*
X144521657Y-111274451D01*
X144521652Y-111274454D01*
X144431954Y-111364152D01*
X144431951Y-111364157D01*
X144431950Y-111364158D01*
X144412751Y-111401837D01*
X144374352Y-111477198D01*
X144359500Y-111570975D01*
X144359500Y-112159017D01*
X144362669Y-112179024D01*
X144374354Y-112252804D01*
X144431950Y-112365842D01*
X144431952Y-112365844D01*
X144431954Y-112365847D01*
X144521652Y-112455545D01*
X144521654Y-112455546D01*
X144521658Y-112455550D01*
X144634694Y-112513145D01*
X144634698Y-112513147D01*
X144728473Y-112527999D01*
X144728475Y-112527999D01*
X144728481Y-112528000D01*
X144735493Y-112527999D01*
X144802531Y-112547678D01*
X144848290Y-112600478D01*
X144859500Y-112651999D01*
X144859500Y-112673456D01*
X144839815Y-112740495D01*
X144823181Y-112761137D01*
X144791137Y-112793181D01*
X144729814Y-112826666D01*
X144703456Y-112829500D01*
X143674500Y-112829500D01*
X143607461Y-112809815D01*
X143561706Y-112757011D01*
X143550500Y-112705500D01*
X143550500Y-112671999D01*
X143570185Y-112604960D01*
X143622989Y-112559205D01*
X143674500Y-112547999D01*
X143681517Y-112547999D01*
X143681518Y-112547999D01*
X143775304Y-112533146D01*
X143888342Y-112475550D01*
X143978050Y-112385842D01*
X144035646Y-112272804D01*
X144035646Y-112272802D01*
X144035647Y-112272801D01*
X144050499Y-112179024D01*
X144050500Y-112179019D01*
X144050499Y-111590982D01*
X144035646Y-111497196D01*
X143978050Y-111384158D01*
X143978046Y-111384154D01*
X143978045Y-111384152D01*
X143888347Y-111294454D01*
X143888344Y-111294452D01*
X143888342Y-111294450D01*
X143811517Y-111255305D01*
X143775301Y-111236852D01*
X143681524Y-111222000D01*
X142718482Y-111222000D01*
X142637519Y-111234823D01*
X142624696Y-111236854D01*
X142511658Y-111294450D01*
X142511657Y-111294451D01*
X142511652Y-111294454D01*
X142421954Y-111384152D01*
X142421951Y-111384157D01*
X142364352Y-111497198D01*
X142349500Y-111590975D01*
X142349500Y-112179017D01*
X142355966Y-112219841D01*
X142364354Y-112272804D01*
X142421950Y-112385842D01*
X142421952Y-112385844D01*
X142421954Y-112385847D01*
X142511652Y-112475545D01*
X142511654Y-112475546D01*
X142511658Y-112475550D01*
X142624694Y-112533145D01*
X142624698Y-112533147D01*
X142718473Y-112547999D01*
X142718475Y-112547999D01*
X142718481Y-112548000D01*
X142725493Y-112547999D01*
X142792531Y-112567678D01*
X142838290Y-112620478D01*
X142849500Y-112671999D01*
X142849500Y-112715500D01*
X142829815Y-112782539D01*
X142777011Y-112828294D01*
X142725500Y-112839500D01*
X141674500Y-112839500D01*
X141607461Y-112819815D01*
X141561706Y-112767011D01*
X141550500Y-112715500D01*
X141550500Y-112661999D01*
X141570185Y-112594960D01*
X141622989Y-112549205D01*
X141674500Y-112537999D01*
X141681517Y-112537999D01*
X141681518Y-112537999D01*
X141775304Y-112523146D01*
X141888342Y-112465550D01*
X141978050Y-112375842D01*
X142035646Y-112262804D01*
X142035646Y-112262802D01*
X142035647Y-112262801D01*
X142048719Y-112180262D01*
X142050500Y-112169019D01*
X142050499Y-111580982D01*
X142035646Y-111487196D01*
X141978050Y-111374158D01*
X141978046Y-111374154D01*
X141978045Y-111374152D01*
X141888347Y-111284454D01*
X141888344Y-111284452D01*
X141888342Y-111284450D01*
X141794930Y-111236854D01*
X141775301Y-111226852D01*
X141681524Y-111212000D01*
X140718482Y-111212000D01*
X140637519Y-111224823D01*
X140624696Y-111226854D01*
X140511658Y-111284450D01*
X140511657Y-111284451D01*
X140511652Y-111284454D01*
X140421954Y-111374152D01*
X140421951Y-111374157D01*
X140421950Y-111374158D01*
X140416855Y-111384158D01*
X140364352Y-111487198D01*
X140349500Y-111580975D01*
X140349500Y-112169017D01*
X140357550Y-112219841D01*
X140364354Y-112262804D01*
X140421950Y-112375842D01*
X140421952Y-112375844D01*
X140421954Y-112375847D01*
X140511652Y-112465545D01*
X140511654Y-112465546D01*
X140511658Y-112465550D01*
X140605072Y-112513147D01*
X140624698Y-112523147D01*
X140718473Y-112537999D01*
X140718475Y-112537999D01*
X140718481Y-112538000D01*
X140725493Y-112537999D01*
X140792531Y-112557678D01*
X140838290Y-112610478D01*
X140849500Y-112661999D01*
X140849500Y-112735500D01*
X140829815Y-112802539D01*
X140777011Y-112848294D01*
X140725500Y-112859500D01*
X139656544Y-112859500D01*
X139589505Y-112839815D01*
X139568863Y-112823181D01*
X139536819Y-112791137D01*
X139503334Y-112729814D01*
X139500500Y-112703456D01*
X139500500Y-112661999D01*
X139520185Y-112594960D01*
X139572989Y-112549205D01*
X139624500Y-112537999D01*
X139631517Y-112537999D01*
X139631518Y-112537999D01*
X139725304Y-112523146D01*
X139838342Y-112465550D01*
X139928050Y-112375842D01*
X139985646Y-112262804D01*
X139985646Y-112262802D01*
X139985647Y-112262801D01*
X139998719Y-112180262D01*
X140000500Y-112169019D01*
X140000499Y-111580982D01*
X139985646Y-111487196D01*
X139928050Y-111374158D01*
X139928046Y-111374154D01*
X139928045Y-111374152D01*
X139838347Y-111284454D01*
X139838344Y-111284452D01*
X139838342Y-111284450D01*
X139744930Y-111236854D01*
X139725301Y-111226852D01*
X139631524Y-111212000D01*
X138668482Y-111212000D01*
X138587519Y-111224823D01*
X138574696Y-111226854D01*
X138461658Y-111284450D01*
X138461657Y-111284451D01*
X138461652Y-111284454D01*
X138371954Y-111374152D01*
X138371951Y-111374157D01*
X138371950Y-111374158D01*
X138366855Y-111384158D01*
X138314352Y-111487198D01*
X138299500Y-111580975D01*
X138299500Y-112169017D01*
X138307550Y-112219841D01*
X138314354Y-112262804D01*
X138371950Y-112375842D01*
X138371952Y-112375844D01*
X138371954Y-112375847D01*
X138461652Y-112465545D01*
X138461654Y-112465546D01*
X138461658Y-112465550D01*
X138555072Y-112513147D01*
X138574698Y-112523147D01*
X138668473Y-112537999D01*
X138668475Y-112537999D01*
X138668481Y-112538000D01*
X138675493Y-112537999D01*
X138742531Y-112557678D01*
X138788290Y-112610478D01*
X138799500Y-112661999D01*
X138799500Y-112850788D01*
X138796861Y-112876232D01*
X138794957Y-112885311D01*
X138794957Y-112885317D01*
X138799023Y-112917937D01*
X138799500Y-112925614D01*
X138799500Y-112929038D01*
X138803087Y-112950541D01*
X138809427Y-113001393D01*
X138811520Y-113008426D01*
X138813908Y-113015381D01*
X138838295Y-113060444D01*
X138860801Y-113106483D01*
X138865065Y-113112455D01*
X138869580Y-113118256D01*
X138907275Y-113152958D01*
X139177362Y-113423044D01*
X139193486Y-113442899D01*
X139198563Y-113450669D01*
X139224508Y-113470862D01*
X139230260Y-113475942D01*
X139232693Y-113478375D01*
X139232696Y-113478377D01*
X139232697Y-113478378D01*
X139239733Y-113483401D01*
X139250434Y-113491041D01*
X139290874Y-113522517D01*
X139290876Y-113522517D01*
X139297248Y-113525966D01*
X139297305Y-113525994D01*
X139297378Y-113526033D01*
X139303929Y-113529235D01*
X139303934Y-113529239D01*
X139353033Y-113543856D01*
X139401512Y-113560500D01*
X139401520Y-113560500D01*
X139408705Y-113561699D01*
X139408738Y-113561704D01*
X139408792Y-113561713D01*
X139416046Y-113562617D01*
X139467231Y-113560500D01*
X140970789Y-113560500D01*
X140996234Y-113563138D01*
X141005315Y-113565043D01*
X141021005Y-113563087D01*
X141037939Y-113560977D01*
X141045615Y-113560500D01*
X141049035Y-113560500D01*
X141049040Y-113560500D01*
X141052608Y-113559904D01*
X141070539Y-113556913D01*
X141097958Y-113553494D01*
X141121393Y-113550573D01*
X141121402Y-113550568D01*
X141128451Y-113548470D01*
X141135377Y-113546092D01*
X141135381Y-113546092D01*
X141158347Y-113533662D01*
X141226674Y-113519065D01*
X141257629Y-113525434D01*
X141301512Y-113540500D01*
X141301516Y-113540500D01*
X141308705Y-113541699D01*
X141308738Y-113541704D01*
X141308792Y-113541713D01*
X141316046Y-113542617D01*
X141367231Y-113540500D01*
X142930789Y-113540500D01*
X142956234Y-113543138D01*
X142965315Y-113545043D01*
X142981005Y-113543087D01*
X142997939Y-113540977D01*
X143005615Y-113540500D01*
X143009035Y-113540500D01*
X143009040Y-113540500D01*
X143012608Y-113539904D01*
X143030539Y-113536913D01*
X143057958Y-113533494D01*
X143081393Y-113530573D01*
X143081402Y-113530568D01*
X143088451Y-113528470D01*
X143095377Y-113526092D01*
X143095381Y-113526092D01*
X143136457Y-113503862D01*
X143140428Y-113501713D01*
X143142707Y-113500597D01*
X143145222Y-113499368D01*
X143214088Y-113487592D01*
X143244062Y-113496389D01*
X143244087Y-113496308D01*
X143253933Y-113499239D01*
X143253934Y-113499240D01*
X143261428Y-113501471D01*
X143303045Y-113513862D01*
X143347839Y-113529239D01*
X143351512Y-113530500D01*
X143351518Y-113530500D01*
X143358768Y-113531710D01*
X143366046Y-113532617D01*
X143417242Y-113530500D01*
X144850789Y-113530500D01*
X144876234Y-113533138D01*
X144885315Y-113535043D01*
X144901005Y-113533087D01*
X144917939Y-113530977D01*
X144925615Y-113530500D01*
X144929035Y-113530500D01*
X144929040Y-113530500D01*
X144932608Y-113529904D01*
X144950539Y-113526913D01*
X144977958Y-113523494D01*
X145001393Y-113520573D01*
X145001402Y-113520568D01*
X145008451Y-113518470D01*
X145015377Y-113516092D01*
X145015381Y-113516092D01*
X145060444Y-113491704D01*
X145106484Y-113469198D01*
X145106487Y-113469194D01*
X145112453Y-113464935D01*
X145118256Y-113460419D01*
X145118258Y-113460418D01*
X145119381Y-113459198D01*
X145129176Y-113448558D01*
X145189062Y-113412565D01*
X145258900Y-113414664D01*
X145296564Y-113434680D01*
X145304501Y-113440857D01*
X145310267Y-113445949D01*
X145312693Y-113448375D01*
X145312695Y-113448377D01*
X145327853Y-113459199D01*
X145330437Y-113461044D01*
X145370874Y-113492517D01*
X145370878Y-113492518D01*
X145377314Y-113496000D01*
X145377339Y-113496013D01*
X145377371Y-113496030D01*
X145383930Y-113499237D01*
X145383933Y-113499239D01*
X145433037Y-113513858D01*
X145481512Y-113530500D01*
X145481514Y-113530500D01*
X145488754Y-113531708D01*
X145496046Y-113532617D01*
X145547231Y-113530500D01*
X146950789Y-113530500D01*
X146976234Y-113533138D01*
X146985315Y-113535043D01*
X147001005Y-113533087D01*
X147017939Y-113530977D01*
X147025615Y-113530500D01*
X147029035Y-113530500D01*
X147029040Y-113530500D01*
X147032608Y-113529904D01*
X147050539Y-113526913D01*
X147077958Y-113523494D01*
X147101393Y-113520573D01*
X147101402Y-113520568D01*
X147108451Y-113518470D01*
X147115377Y-113516092D01*
X147115381Y-113516092D01*
X147160444Y-113491704D01*
X147175293Y-113484444D01*
X147244166Y-113472685D01*
X147270425Y-113480994D01*
X147271058Y-113479147D01*
X147274833Y-113480440D01*
X147281990Y-113483401D01*
X147284651Y-113484702D01*
X147287344Y-113486016D01*
X147287390Y-113486041D01*
X147293932Y-113489239D01*
X147293933Y-113489239D01*
X147293934Y-113489240D01*
X147308078Y-113493451D01*
X147343045Y-113503862D01*
X147387332Y-113519065D01*
X147391512Y-113520500D01*
X147391515Y-113520500D01*
X147398625Y-113521687D01*
X147398731Y-113521700D01*
X147398855Y-113521720D01*
X147406046Y-113522617D01*
X147457231Y-113520500D01*
X148500789Y-113520500D01*
X148526234Y-113523138D01*
X148535315Y-113525043D01*
X148551005Y-113523087D01*
X148567939Y-113520977D01*
X148575615Y-113520500D01*
X148579035Y-113520500D01*
X148579040Y-113520500D01*
X148582608Y-113519904D01*
X148600539Y-113516913D01*
X148627958Y-113513494D01*
X148651393Y-113510573D01*
X148651402Y-113510568D01*
X148658451Y-113508470D01*
X148665377Y-113506092D01*
X148665381Y-113506092D01*
X148710444Y-113481704D01*
X148756484Y-113459198D01*
X148756487Y-113459194D01*
X148762453Y-113454935D01*
X148768254Y-113450419D01*
X148768258Y-113450418D01*
X148802958Y-113412723D01*
X148981544Y-113234135D01*
X148981550Y-113234132D01*
X148998983Y-113216698D01*
X148998984Y-113216698D01*
X149005546Y-113210135D01*
X149025404Y-113194009D01*
X149033169Y-113188937D01*
X149053366Y-113162986D01*
X149058441Y-113157239D01*
X150368863Y-111846819D01*
X150430186Y-111813334D01*
X150456544Y-111810500D01*
X150722106Y-111810500D01*
X150789145Y-111830185D01*
X150829493Y-111872500D01*
X150902704Y-111999306D01*
X150902709Y-111999313D01*
X151031054Y-112141854D01*
X151031056Y-112141856D01*
X151186235Y-112254600D01*
X151186236Y-112254601D01*
X151361469Y-112332619D01*
X151549092Y-112372500D01*
X151740908Y-112372500D01*
X151928531Y-112332619D01*
X152103763Y-112254601D01*
X152258945Y-112141855D01*
X152341348Y-112050336D01*
X152387290Y-111999313D01*
X152387295Y-111999306D01*
X152404682Y-111969191D01*
X152483202Y-111833191D01*
X152542476Y-111650764D01*
X152562526Y-111460000D01*
X152542476Y-111269236D01*
X152490420Y-111109023D01*
X152483204Y-111086814D01*
X152483201Y-111086808D01*
X152387295Y-110920693D01*
X152387290Y-110920686D01*
X152258945Y-110778145D01*
X152258943Y-110778143D01*
X152103764Y-110665399D01*
X152103763Y-110665398D01*
X151928530Y-110587380D01*
X151740908Y-110547500D01*
X151549092Y-110547500D01*
X151361469Y-110587380D01*
X151361468Y-110587380D01*
X151186236Y-110665398D01*
X151186235Y-110665399D01*
X151031056Y-110778143D01*
X151031054Y-110778145D01*
X150902709Y-110920686D01*
X150902704Y-110920693D01*
X150829493Y-111047500D01*
X150778926Y-111095716D01*
X150722106Y-111109500D01*
X150309206Y-111109500D01*
X150283761Y-111106861D01*
X150274685Y-111104958D01*
X150274682Y-111104958D01*
X150242068Y-111109023D01*
X150234392Y-111109500D01*
X150230960Y-111109500D01*
X150216619Y-111111892D01*
X150209448Y-111113089D01*
X150192621Y-111115186D01*
X150158607Y-111119427D01*
X150158606Y-111119427D01*
X150158601Y-111119428D01*
X150151575Y-111121519D01*
X150144623Y-111123906D01*
X150099555Y-111148295D01*
X150053512Y-111170803D01*
X150047566Y-111175048D01*
X150041742Y-111179581D01*
X150007042Y-111217275D01*
X149354681Y-111869636D01*
X149293358Y-111903121D01*
X149223666Y-111898137D01*
X149167733Y-111856265D01*
X149143316Y-111790801D01*
X149143000Y-111781955D01*
X149143000Y-108920000D01*
X150727976Y-108920000D01*
X150748016Y-109110663D01*
X150807254Y-109292980D01*
X150807257Y-109292987D01*
X150847960Y-109363486D01*
X151260096Y-108951350D01*
X151260051Y-108951898D01*
X151291266Y-109075162D01*
X151360813Y-109181612D01*
X151461157Y-109259713D01*
X151581422Y-109301000D01*
X151617553Y-109301000D01*
X151198871Y-109719679D01*
X151361626Y-109792142D01*
X151549144Y-109831999D01*
X151549145Y-109832000D01*
X151740855Y-109832000D01*
X151740855Y-109831999D01*
X151928373Y-109792142D01*
X151928381Y-109792140D01*
X152091126Y-109719680D01*
X152091126Y-109719679D01*
X151672448Y-109301000D01*
X151676569Y-109301000D01*
X151770421Y-109285339D01*
X151882251Y-109224820D01*
X151968371Y-109131269D01*
X152019448Y-109014823D01*
X152025105Y-108946552D01*
X152442038Y-109363486D01*
X152442039Y-109363485D01*
X152482743Y-109292987D01*
X152541983Y-109110663D01*
X152562023Y-108920000D01*
X152541983Y-108729336D01*
X152482744Y-108547015D01*
X152442038Y-108476512D01*
X152029903Y-108888648D01*
X152029949Y-108888102D01*
X151998734Y-108764838D01*
X151929187Y-108658388D01*
X151828843Y-108580287D01*
X151708578Y-108539000D01*
X151672448Y-108539000D01*
X152091127Y-108120319D01*
X151928373Y-108047857D01*
X151740855Y-108008000D01*
X151549145Y-108008000D01*
X151361627Y-108047857D01*
X151361624Y-108047857D01*
X151198871Y-108120319D01*
X151617553Y-108539000D01*
X151613431Y-108539000D01*
X151519579Y-108554661D01*
X151407749Y-108615180D01*
X151321629Y-108708731D01*
X151270552Y-108825177D01*
X151264894Y-108893446D01*
X150847960Y-108476513D01*
X150807257Y-108547012D01*
X150807254Y-108547019D01*
X150748016Y-108729336D01*
X150727976Y-108920000D01*
X149143000Y-108920000D01*
X149143000Y-106380000D01*
X150727474Y-106380000D01*
X150747524Y-106570764D01*
X150747525Y-106570767D01*
X150806795Y-106753185D01*
X150806798Y-106753191D01*
X150902704Y-106919306D01*
X150902709Y-106919313D01*
X151031054Y-107061854D01*
X151031056Y-107061856D01*
X151186235Y-107174600D01*
X151186236Y-107174601D01*
X151361469Y-107252619D01*
X151549092Y-107292500D01*
X151740908Y-107292500D01*
X151928531Y-107252619D01*
X152103763Y-107174601D01*
X152258945Y-107061855D01*
X152374899Y-106933074D01*
X152387290Y-106919313D01*
X152387295Y-106919306D01*
X152400774Y-106895960D01*
X152483202Y-106753191D01*
X152542476Y-106570764D01*
X152562526Y-106380000D01*
X152542476Y-106189236D01*
X152503887Y-106070473D01*
X152483204Y-106006814D01*
X152483201Y-106006808D01*
X152387295Y-105840693D01*
X152387290Y-105840686D01*
X152258945Y-105698145D01*
X152258943Y-105698143D01*
X152103764Y-105585399D01*
X152103763Y-105585398D01*
X151928530Y-105507380D01*
X151740908Y-105467500D01*
X151549092Y-105467500D01*
X151361469Y-105507380D01*
X151361468Y-105507380D01*
X151186236Y-105585398D01*
X151186235Y-105585399D01*
X151031056Y-105698143D01*
X151031054Y-105698145D01*
X150902709Y-105840686D01*
X150902704Y-105840693D01*
X150806798Y-106006808D01*
X150806795Y-106006814D01*
X150747525Y-106189232D01*
X150747524Y-106189236D01*
X150727474Y-106380000D01*
X149143000Y-106380000D01*
X149143000Y-103840000D01*
X150727474Y-103840000D01*
X150747524Y-104030764D01*
X150747525Y-104030767D01*
X150806795Y-104213185D01*
X150806798Y-104213191D01*
X150902704Y-104379306D01*
X150902709Y-104379313D01*
X151031054Y-104521854D01*
X151031056Y-104521856D01*
X151186235Y-104634600D01*
X151186236Y-104634601D01*
X151361469Y-104712619D01*
X151549092Y-104752500D01*
X151740908Y-104752500D01*
X151928531Y-104712619D01*
X152103763Y-104634601D01*
X152258945Y-104521855D01*
X152341348Y-104430336D01*
X152387290Y-104379313D01*
X152387295Y-104379306D01*
X152483202Y-104213191D01*
X152542476Y-104030764D01*
X152562526Y-103840000D01*
X152542476Y-103649236D01*
X152483202Y-103466809D01*
X152387294Y-103300692D01*
X152387290Y-103300686D01*
X152258945Y-103158145D01*
X152258943Y-103158143D01*
X152103764Y-103045399D01*
X152103763Y-103045398D01*
X151928530Y-102967380D01*
X151740908Y-102927500D01*
X151549092Y-102927500D01*
X151361469Y-102967380D01*
X151361468Y-102967380D01*
X151186236Y-103045398D01*
X151186235Y-103045399D01*
X151031056Y-103158143D01*
X151031054Y-103158145D01*
X150902709Y-103300686D01*
X150902704Y-103300693D01*
X150806798Y-103466808D01*
X150806795Y-103466814D01*
X150747525Y-103649232D01*
X150747524Y-103649236D01*
X150727474Y-103840000D01*
X149143000Y-103840000D01*
X149143000Y-101300000D01*
X150727474Y-101300000D01*
X150747524Y-101490764D01*
X150747525Y-101490767D01*
X150806795Y-101673185D01*
X150806798Y-101673191D01*
X150902704Y-101839306D01*
X150902709Y-101839313D01*
X151031054Y-101981854D01*
X151031056Y-101981856D01*
X151186235Y-102094600D01*
X151186236Y-102094601D01*
X151361469Y-102172619D01*
X151549092Y-102212500D01*
X151740908Y-102212500D01*
X151928531Y-102172619D01*
X152103763Y-102094601D01*
X152258945Y-101981855D01*
X152374967Y-101852999D01*
X152387290Y-101839313D01*
X152387295Y-101839306D01*
X152421219Y-101780548D01*
X152483202Y-101673191D01*
X152542476Y-101490764D01*
X152562526Y-101300000D01*
X152542476Y-101109236D01*
X152483202Y-100926809D01*
X152411257Y-100802197D01*
X152387295Y-100760693D01*
X152387290Y-100760686D01*
X152258945Y-100618145D01*
X152258943Y-100618143D01*
X152103764Y-100505399D01*
X152103763Y-100505398D01*
X151928530Y-100427380D01*
X151740908Y-100387500D01*
X151549092Y-100387500D01*
X151361469Y-100427380D01*
X151361468Y-100427380D01*
X151186236Y-100505398D01*
X151186235Y-100505399D01*
X151031056Y-100618143D01*
X151031054Y-100618145D01*
X150902709Y-100760686D01*
X150902704Y-100760693D01*
X150806798Y-100926808D01*
X150806795Y-100926814D01*
X150747525Y-101109232D01*
X150747524Y-101109236D01*
X150727474Y-101300000D01*
X149143000Y-101300000D01*
X149143000Y-98760000D01*
X150727474Y-98760000D01*
X150747524Y-98950764D01*
X150747525Y-98950767D01*
X150806795Y-99133185D01*
X150806798Y-99133191D01*
X150902704Y-99299306D01*
X150902709Y-99299313D01*
X151031054Y-99441854D01*
X151031056Y-99441856D01*
X151186235Y-99554600D01*
X151186236Y-99554601D01*
X151361469Y-99632619D01*
X151549092Y-99672500D01*
X151740908Y-99672500D01*
X151928531Y-99632619D01*
X152103763Y-99554601D01*
X152258945Y-99441855D01*
X152341348Y-99350336D01*
X152387290Y-99299313D01*
X152387295Y-99299306D01*
X152483202Y-99133191D01*
X152542476Y-98950764D01*
X152562526Y-98760000D01*
X152542476Y-98569236D01*
X152483202Y-98386809D01*
X152387294Y-98220692D01*
X152387290Y-98220686D01*
X152258945Y-98078145D01*
X152258943Y-98078143D01*
X152103764Y-97965399D01*
X152103763Y-97965398D01*
X151928530Y-97887380D01*
X151740908Y-97847500D01*
X151549092Y-97847500D01*
X151361469Y-97887380D01*
X151361468Y-97887380D01*
X151186236Y-97965398D01*
X151186235Y-97965399D01*
X151031056Y-98078143D01*
X151031054Y-98078145D01*
X150902709Y-98220686D01*
X150902704Y-98220693D01*
X150806798Y-98386808D01*
X150806795Y-98386814D01*
X150747525Y-98569232D01*
X150747524Y-98569236D01*
X150727474Y-98760000D01*
X149143000Y-98760000D01*
X149143000Y-96220000D01*
X150727474Y-96220000D01*
X150747524Y-96410764D01*
X150747525Y-96410767D01*
X150806795Y-96593185D01*
X150806798Y-96593191D01*
X150902704Y-96759306D01*
X150902709Y-96759313D01*
X151031054Y-96901854D01*
X151031056Y-96901856D01*
X151186235Y-97014600D01*
X151186236Y-97014601D01*
X151361469Y-97092619D01*
X151549092Y-97132500D01*
X151740908Y-97132500D01*
X151928531Y-97092619D01*
X152103763Y-97014601D01*
X152258945Y-96901855D01*
X152341348Y-96810336D01*
X152387290Y-96759313D01*
X152387295Y-96759306D01*
X152483202Y-96593191D01*
X152542476Y-96410764D01*
X152562526Y-96220000D01*
X152542476Y-96029236D01*
X152483202Y-95846809D01*
X152387294Y-95680692D01*
X152387290Y-95680686D01*
X152258945Y-95538145D01*
X152258943Y-95538143D01*
X152103764Y-95425399D01*
X152103763Y-95425398D01*
X151928530Y-95347380D01*
X151740908Y-95307500D01*
X151549092Y-95307500D01*
X151361469Y-95347380D01*
X151361468Y-95347380D01*
X151186236Y-95425398D01*
X151186235Y-95425399D01*
X151031056Y-95538143D01*
X151031054Y-95538145D01*
X150902709Y-95680686D01*
X150902704Y-95680693D01*
X150806798Y-95846808D01*
X150806795Y-95846814D01*
X150747525Y-96029232D01*
X150747524Y-96029236D01*
X150727474Y-96220000D01*
X149143000Y-96220000D01*
X149143000Y-93680000D01*
X150727474Y-93680000D01*
X150747524Y-93870764D01*
X150747525Y-93870767D01*
X150806795Y-94053185D01*
X150806798Y-94053191D01*
X150902704Y-94219306D01*
X150902709Y-94219313D01*
X151031054Y-94361854D01*
X151031056Y-94361856D01*
X151186235Y-94474600D01*
X151186236Y-94474601D01*
X151361469Y-94552619D01*
X151549092Y-94592500D01*
X151740908Y-94592500D01*
X151928531Y-94552619D01*
X152103763Y-94474601D01*
X152258945Y-94361855D01*
X152341348Y-94270336D01*
X152387290Y-94219313D01*
X152387295Y-94219306D01*
X152483202Y-94053191D01*
X152542476Y-93870764D01*
X152562526Y-93680000D01*
X152542476Y-93489236D01*
X152483202Y-93306809D01*
X152387294Y-93140692D01*
X152387290Y-93140686D01*
X152258945Y-92998145D01*
X152258943Y-92998143D01*
X152103764Y-92885399D01*
X152103763Y-92885398D01*
X151928530Y-92807380D01*
X151740908Y-92767500D01*
X151549092Y-92767500D01*
X151361469Y-92807380D01*
X151361468Y-92807380D01*
X151186236Y-92885398D01*
X151186235Y-92885399D01*
X151031056Y-92998143D01*
X151031054Y-92998145D01*
X150902709Y-93140686D01*
X150902704Y-93140693D01*
X150806798Y-93306808D01*
X150806795Y-93306814D01*
X150747525Y-93489232D01*
X150747524Y-93489236D01*
X150727474Y-93680000D01*
X149143000Y-93680000D01*
X149143000Y-91140000D01*
X150727474Y-91140000D01*
X150747524Y-91330764D01*
X150747525Y-91330767D01*
X150806795Y-91513185D01*
X150806798Y-91513191D01*
X150902704Y-91679306D01*
X150902709Y-91679313D01*
X151031054Y-91821854D01*
X151031056Y-91821856D01*
X151186235Y-91934600D01*
X151186236Y-91934601D01*
X151361469Y-92012619D01*
X151549092Y-92052500D01*
X151740908Y-92052500D01*
X151928531Y-92012619D01*
X152103763Y-91934601D01*
X152258945Y-91821855D01*
X152341348Y-91730336D01*
X152387290Y-91679313D01*
X152387295Y-91679306D01*
X152483202Y-91513191D01*
X152542476Y-91330764D01*
X152562526Y-91140000D01*
X152542476Y-90949236D01*
X152483202Y-90766809D01*
X152387294Y-90600692D01*
X152387290Y-90600686D01*
X152258945Y-90458145D01*
X152258943Y-90458143D01*
X152103764Y-90345399D01*
X152103763Y-90345398D01*
X151928530Y-90267380D01*
X151740908Y-90227500D01*
X151549092Y-90227500D01*
X151361469Y-90267380D01*
X151361468Y-90267380D01*
X151186236Y-90345398D01*
X151186235Y-90345399D01*
X151031056Y-90458143D01*
X151031054Y-90458145D01*
X150902709Y-90600686D01*
X150902704Y-90600693D01*
X150806798Y-90766808D01*
X150806795Y-90766814D01*
X150747525Y-90949232D01*
X150747524Y-90949236D01*
X150727474Y-91140000D01*
X149143000Y-91140000D01*
X149143000Y-88600000D01*
X150727474Y-88600000D01*
X150747524Y-88790764D01*
X150747525Y-88790767D01*
X150806795Y-88973185D01*
X150806798Y-88973191D01*
X150902704Y-89139306D01*
X150902709Y-89139313D01*
X151031054Y-89281854D01*
X151031056Y-89281856D01*
X151186235Y-89394600D01*
X151186236Y-89394601D01*
X151361469Y-89472619D01*
X151549092Y-89512500D01*
X151740908Y-89512500D01*
X151928531Y-89472619D01*
X152103763Y-89394601D01*
X152258945Y-89281855D01*
X152361007Y-89168503D01*
X152387290Y-89139313D01*
X152387295Y-89139306D01*
X152424526Y-89074820D01*
X152483202Y-88973191D01*
X152542476Y-88790764D01*
X152562526Y-88600000D01*
X152542476Y-88409236D01*
X152497493Y-88270791D01*
X152483204Y-88226814D01*
X152483201Y-88226808D01*
X152387295Y-88060693D01*
X152387290Y-88060686D01*
X152258945Y-87918145D01*
X152258943Y-87918143D01*
X152103764Y-87805399D01*
X152103763Y-87805398D01*
X151928530Y-87727380D01*
X151740908Y-87687500D01*
X151549092Y-87687500D01*
X151361469Y-87727380D01*
X151361468Y-87727380D01*
X151186236Y-87805398D01*
X151186235Y-87805399D01*
X151031056Y-87918143D01*
X151031054Y-87918145D01*
X150902709Y-88060686D01*
X150902704Y-88060693D01*
X150806798Y-88226808D01*
X150806795Y-88226814D01*
X150747525Y-88409232D01*
X150747524Y-88409236D01*
X150727474Y-88600000D01*
X149143000Y-88600000D01*
X149143000Y-86060000D01*
X150727474Y-86060000D01*
X150747524Y-86250764D01*
X150747525Y-86250767D01*
X150806795Y-86433185D01*
X150806798Y-86433191D01*
X150902704Y-86599306D01*
X150902709Y-86599313D01*
X151031054Y-86741854D01*
X151031056Y-86741856D01*
X151186235Y-86854600D01*
X151186236Y-86854601D01*
X151361469Y-86932619D01*
X151549092Y-86972500D01*
X151740908Y-86972500D01*
X151928531Y-86932619D01*
X152103763Y-86854601D01*
X152258945Y-86741855D01*
X152341348Y-86650336D01*
X152387290Y-86599313D01*
X152387295Y-86599306D01*
X152483202Y-86433191D01*
X152542476Y-86250764D01*
X152562526Y-86060000D01*
X152542476Y-85869236D01*
X152483202Y-85686809D01*
X152387294Y-85520692D01*
X152387290Y-85520686D01*
X152258945Y-85378145D01*
X152258943Y-85378143D01*
X152103764Y-85265399D01*
X152103763Y-85265398D01*
X151928530Y-85187380D01*
X151740908Y-85147500D01*
X151549092Y-85147500D01*
X151361469Y-85187380D01*
X151361468Y-85187380D01*
X151186236Y-85265398D01*
X151186235Y-85265399D01*
X151031056Y-85378143D01*
X151031054Y-85378145D01*
X150902709Y-85520686D01*
X150902704Y-85520693D01*
X150806798Y-85686808D01*
X150806795Y-85686814D01*
X150747525Y-85869232D01*
X150747524Y-85869236D01*
X150727474Y-86060000D01*
X149143000Y-86060000D01*
X149143000Y-83520000D01*
X150727474Y-83520000D01*
X150747524Y-83710764D01*
X150747525Y-83710767D01*
X150806795Y-83893185D01*
X150806798Y-83893191D01*
X150902704Y-84059306D01*
X150902709Y-84059313D01*
X151031054Y-84201854D01*
X151031056Y-84201856D01*
X151186235Y-84314600D01*
X151186236Y-84314601D01*
X151361469Y-84392619D01*
X151549092Y-84432500D01*
X151740908Y-84432500D01*
X151928531Y-84392619D01*
X152103763Y-84314601D01*
X152258945Y-84201855D01*
X152341348Y-84110336D01*
X152387290Y-84059313D01*
X152387295Y-84059306D01*
X152483202Y-83893191D01*
X152542476Y-83710764D01*
X152562526Y-83520000D01*
X152542476Y-83329236D01*
X152483202Y-83146809D01*
X152387294Y-82980692D01*
X152387290Y-82980686D01*
X152258945Y-82838145D01*
X152258943Y-82838143D01*
X152103764Y-82725399D01*
X152103763Y-82725398D01*
X151928530Y-82647380D01*
X151740908Y-82607500D01*
X151549092Y-82607500D01*
X151361469Y-82647380D01*
X151361468Y-82647380D01*
X151186236Y-82725398D01*
X151186235Y-82725399D01*
X151031056Y-82838143D01*
X151031054Y-82838145D01*
X150902709Y-82980686D01*
X150902704Y-82980693D01*
X150806798Y-83146808D01*
X150806795Y-83146814D01*
X150747525Y-83329232D01*
X150747524Y-83329236D01*
X150727474Y-83520000D01*
X149143000Y-83520000D01*
X149143000Y-80980000D01*
X150727474Y-80980000D01*
X150747524Y-81170764D01*
X150747525Y-81170767D01*
X150806795Y-81353185D01*
X150806798Y-81353191D01*
X150902704Y-81519306D01*
X150902709Y-81519313D01*
X151031054Y-81661854D01*
X151031056Y-81661856D01*
X151186235Y-81774600D01*
X151186236Y-81774601D01*
X151361469Y-81852619D01*
X151549092Y-81892500D01*
X151740908Y-81892500D01*
X151928531Y-81852619D01*
X152103763Y-81774601D01*
X152258945Y-81661855D01*
X152341348Y-81570336D01*
X152387290Y-81519313D01*
X152387295Y-81519306D01*
X152483202Y-81353191D01*
X152542476Y-81170764D01*
X152562526Y-80980000D01*
X152542476Y-80789236D01*
X152483202Y-80606809D01*
X152387294Y-80440692D01*
X152387290Y-80440686D01*
X152258945Y-80298145D01*
X152258943Y-80298143D01*
X152103764Y-80185399D01*
X152103763Y-80185398D01*
X151928530Y-80107380D01*
X151740908Y-80067500D01*
X151549092Y-80067500D01*
X151361469Y-80107380D01*
X151361468Y-80107380D01*
X151186236Y-80185398D01*
X151186235Y-80185399D01*
X151031056Y-80298143D01*
X151031054Y-80298145D01*
X150902709Y-80440686D01*
X150902704Y-80440693D01*
X150806798Y-80606808D01*
X150806795Y-80606814D01*
X150747525Y-80789232D01*
X150747524Y-80789236D01*
X150727474Y-80980000D01*
X149143000Y-80980000D01*
X149143000Y-78440000D01*
X150727474Y-78440000D01*
X150747524Y-78630764D01*
X150747525Y-78630767D01*
X150806795Y-78813185D01*
X150806798Y-78813191D01*
X150902704Y-78979306D01*
X150902709Y-78979313D01*
X151031054Y-79121854D01*
X151031056Y-79121856D01*
X151186235Y-79234600D01*
X151186236Y-79234601D01*
X151361469Y-79312619D01*
X151549092Y-79352500D01*
X151740908Y-79352500D01*
X151928531Y-79312619D01*
X152103763Y-79234601D01*
X152258945Y-79121855D01*
X152364613Y-79004498D01*
X152387290Y-78979313D01*
X152387295Y-78979306D01*
X152387725Y-78978562D01*
X152483202Y-78813191D01*
X152542476Y-78630764D01*
X152562526Y-78440000D01*
X152542476Y-78249236D01*
X152490040Y-78087853D01*
X152483204Y-78066814D01*
X152483201Y-78066808D01*
X152481134Y-78063228D01*
X152387294Y-77900692D01*
X152387290Y-77900686D01*
X152258945Y-77758145D01*
X152258943Y-77758143D01*
X152103764Y-77645399D01*
X152103763Y-77645398D01*
X151928530Y-77567380D01*
X151740908Y-77527500D01*
X151549092Y-77527500D01*
X151361469Y-77567380D01*
X151361468Y-77567380D01*
X151186236Y-77645398D01*
X151186235Y-77645399D01*
X151031056Y-77758143D01*
X151031054Y-77758145D01*
X150902709Y-77900686D01*
X150902704Y-77900693D01*
X150806798Y-78066808D01*
X150806795Y-78066814D01*
X150750585Y-78239815D01*
X150747524Y-78249236D01*
X150727474Y-78440000D01*
X149143000Y-78440000D01*
X149143000Y-75900000D01*
X150727474Y-75900000D01*
X150747524Y-76090764D01*
X150747525Y-76090767D01*
X150806795Y-76273185D01*
X150806798Y-76273191D01*
X150902704Y-76439306D01*
X150902709Y-76439313D01*
X151031054Y-76581854D01*
X151031056Y-76581856D01*
X151186235Y-76694600D01*
X151186236Y-76694601D01*
X151361469Y-76772619D01*
X151549092Y-76812500D01*
X151740908Y-76812500D01*
X151928531Y-76772619D01*
X152103763Y-76694601D01*
X152258945Y-76581855D01*
X152341348Y-76490336D01*
X152387290Y-76439313D01*
X152387295Y-76439306D01*
X152483202Y-76273191D01*
X152542476Y-76090764D01*
X152562526Y-75900000D01*
X152542476Y-75709236D01*
X152483202Y-75526809D01*
X152417749Y-75413441D01*
X152387295Y-75360693D01*
X152387290Y-75360686D01*
X152258945Y-75218145D01*
X152258943Y-75218143D01*
X152103764Y-75105399D01*
X152103763Y-75105398D01*
X151928530Y-75027380D01*
X151740908Y-74987500D01*
X151549092Y-74987500D01*
X151361469Y-75027380D01*
X151361468Y-75027380D01*
X151186236Y-75105398D01*
X151186235Y-75105399D01*
X151031056Y-75218143D01*
X151031054Y-75218145D01*
X150902709Y-75360686D01*
X150902704Y-75360693D01*
X150806798Y-75526808D01*
X150806795Y-75526814D01*
X150747525Y-75709232D01*
X150747524Y-75709236D01*
X150727474Y-75900000D01*
X149143000Y-75900000D01*
X149143000Y-71591711D01*
X149145639Y-71566264D01*
X149147543Y-71557185D01*
X149145770Y-71542963D01*
X149143477Y-71524561D01*
X149143000Y-71516885D01*
X149143000Y-71513460D01*
X149139412Y-71491958D01*
X149138621Y-71485619D01*
X149133073Y-71441107D01*
X149133071Y-71441103D01*
X149131002Y-71434153D01*
X149130970Y-71434059D01*
X149130946Y-71433978D01*
X149128592Y-71427122D01*
X149128592Y-71427119D01*
X149104202Y-71382050D01*
X149081698Y-71336017D01*
X149081697Y-71336016D01*
X149081697Y-71336015D01*
X149077426Y-71330034D01*
X149072917Y-71324241D01*
X149035213Y-71289531D01*
X148692637Y-70946955D01*
X148676511Y-70927098D01*
X148671437Y-70919331D01*
X148645487Y-70899133D01*
X148639741Y-70894059D01*
X148637307Y-70891625D01*
X148637306Y-70891624D01*
X148637305Y-70891623D01*
X148626700Y-70884052D01*
X148619561Y-70878955D01*
X148579126Y-70847483D01*
X148579122Y-70847481D01*
X148572648Y-70843977D01*
X148566069Y-70840760D01*
X148516954Y-70826138D01*
X148468486Y-70809498D01*
X148461269Y-70808294D01*
X148453953Y-70807382D01*
X148404725Y-70809419D01*
X148402769Y-70809500D01*
X147649211Y-70809500D01*
X147623765Y-70806861D01*
X147620317Y-70806138D01*
X147614685Y-70804957D01*
X147614684Y-70804957D01*
X147614682Y-70804957D01*
X147582061Y-70809023D01*
X147574385Y-70809500D01*
X147570960Y-70809500D01*
X147549457Y-70813087D01*
X147498608Y-70819426D01*
X147491566Y-70821522D01*
X147484620Y-70823907D01*
X147439550Y-70848297D01*
X147393513Y-70870803D01*
X147387538Y-70875069D01*
X147381746Y-70879577D01*
X147347032Y-70917286D01*
X147267681Y-70996637D01*
X147206358Y-71030122D01*
X147136666Y-71025138D01*
X147092319Y-70996637D01*
X147032637Y-70936955D01*
X147016511Y-70917098D01*
X147011437Y-70909331D01*
X146985487Y-70889133D01*
X146979741Y-70884059D01*
X146977307Y-70881625D01*
X146977306Y-70881624D01*
X146977305Y-70881623D01*
X146966700Y-70874052D01*
X146959561Y-70868955D01*
X146919126Y-70837483D01*
X146919122Y-70837481D01*
X146912648Y-70833977D01*
X146906069Y-70830760D01*
X146856954Y-70816138D01*
X146808486Y-70799498D01*
X146801269Y-70798294D01*
X146793953Y-70797382D01*
X146744725Y-70799419D01*
X146742769Y-70799500D01*
X145389206Y-70799500D01*
X145363761Y-70796861D01*
X145354685Y-70794958D01*
X145354682Y-70794958D01*
X145322068Y-70799023D01*
X145314392Y-70799500D01*
X145310960Y-70799500D01*
X145298859Y-70801519D01*
X145289448Y-70803089D01*
X145282895Y-70803906D01*
X145238607Y-70809427D01*
X145238606Y-70809427D01*
X145238601Y-70809428D01*
X145231575Y-70811519D01*
X145224623Y-70813906D01*
X145224619Y-70813907D01*
X145224619Y-70813908D01*
X145206142Y-70823907D01*
X145179555Y-70838295D01*
X145133512Y-70860803D01*
X145127566Y-70865048D01*
X145121740Y-70869582D01*
X145098295Y-70895050D01*
X145038406Y-70931039D01*
X144968568Y-70928936D01*
X144930909Y-70908920D01*
X144905495Y-70889140D01*
X144899741Y-70884059D01*
X144897307Y-70881625D01*
X144897306Y-70881624D01*
X144897305Y-70881623D01*
X144886700Y-70874052D01*
X144879561Y-70868955D01*
X144839126Y-70837483D01*
X144839122Y-70837481D01*
X144832648Y-70833977D01*
X144826069Y-70830760D01*
X144776954Y-70816138D01*
X144728486Y-70799498D01*
X144721269Y-70798294D01*
X144713953Y-70797382D01*
X144664725Y-70799419D01*
X144662769Y-70799500D01*
X143479206Y-70799500D01*
X143453761Y-70796861D01*
X143444685Y-70794958D01*
X143444682Y-70794958D01*
X143412068Y-70799023D01*
X143404392Y-70799500D01*
X143400960Y-70799500D01*
X143388859Y-70801519D01*
X143379448Y-70803089D01*
X143372895Y-70803906D01*
X143328607Y-70809427D01*
X143328606Y-70809427D01*
X143328601Y-70809428D01*
X143321575Y-70811519D01*
X143314623Y-70813906D01*
X143314619Y-70813907D01*
X143314619Y-70813908D01*
X143296142Y-70823907D01*
X143269555Y-70838295D01*
X143223512Y-70860803D01*
X143217566Y-70865048D01*
X143211742Y-70869581D01*
X143202536Y-70879582D01*
X143177042Y-70907275D01*
X143157362Y-70926955D01*
X143127679Y-70956637D01*
X143066356Y-70990121D01*
X142996664Y-70985136D01*
X142952318Y-70956636D01*
X142932637Y-70936955D01*
X142916511Y-70917098D01*
X142911437Y-70909331D01*
X142885487Y-70889133D01*
X142879741Y-70884059D01*
X142877307Y-70881625D01*
X142877306Y-70881624D01*
X142877305Y-70881623D01*
X142866700Y-70874052D01*
X142859561Y-70868955D01*
X142819126Y-70837483D01*
X142819122Y-70837481D01*
X142812648Y-70833977D01*
X142806069Y-70830760D01*
X142756954Y-70816138D01*
X142708486Y-70799498D01*
X142701269Y-70798294D01*
X142693953Y-70797382D01*
X142644725Y-70799419D01*
X142642769Y-70799500D01*
X141529206Y-70799500D01*
X141503761Y-70796861D01*
X141494685Y-70794958D01*
X141494682Y-70794958D01*
X141462068Y-70799023D01*
X141454392Y-70799500D01*
X141450960Y-70799500D01*
X141438859Y-70801519D01*
X141429448Y-70803089D01*
X141422895Y-70803906D01*
X141378607Y-70809427D01*
X141378606Y-70809427D01*
X141378601Y-70809428D01*
X141371575Y-70811519D01*
X141364623Y-70813906D01*
X141364619Y-70813907D01*
X141364619Y-70813908D01*
X141346142Y-70823907D01*
X141319555Y-70838295D01*
X141273512Y-70860803D01*
X141267566Y-70865048D01*
X141261742Y-70869581D01*
X141227042Y-70907275D01*
X141107680Y-71026637D01*
X141046357Y-71060121D01*
X140976665Y-71055137D01*
X140932318Y-71026636D01*
X140832637Y-70926955D01*
X140816511Y-70907098D01*
X140811437Y-70899331D01*
X140785487Y-70879133D01*
X140779741Y-70874059D01*
X140777307Y-70871625D01*
X140777306Y-70871624D01*
X140777305Y-70871623D01*
X140768095Y-70865048D01*
X140759561Y-70858955D01*
X140719126Y-70827483D01*
X140719122Y-70827481D01*
X140712648Y-70823977D01*
X140706069Y-70820760D01*
X140656954Y-70806138D01*
X140608486Y-70789498D01*
X140601269Y-70788294D01*
X140593953Y-70787382D01*
X140544725Y-70789419D01*
X140542769Y-70789500D01*
X139359206Y-70789500D01*
X139333761Y-70786861D01*
X139324685Y-70784958D01*
X139324682Y-70784958D01*
X139292068Y-70789023D01*
X139284392Y-70789500D01*
X139280960Y-70789500D01*
X139266619Y-70791892D01*
X139259448Y-70793089D01*
X139244456Y-70794958D01*
X139208607Y-70799427D01*
X139208606Y-70799427D01*
X139208601Y-70799428D01*
X139201575Y-70801519D01*
X139194623Y-70803906D01*
X139194619Y-70803907D01*
X139194619Y-70803908D01*
X139157662Y-70823908D01*
X139149555Y-70828295D01*
X139103512Y-70850803D01*
X139097566Y-70855048D01*
X139091742Y-70859581D01*
X139057042Y-70897275D01*
X138786955Y-71167361D01*
X138767106Y-71183482D01*
X138759331Y-71188562D01*
X138739143Y-71214498D01*
X138734067Y-71220248D01*
X138731634Y-71222681D01*
X138731623Y-71222694D01*
X138718954Y-71240438D01*
X138687483Y-71280872D01*
X138683975Y-71287353D01*
X138680760Y-71293932D01*
X138666138Y-71343045D01*
X138649498Y-71391516D01*
X138648294Y-71398733D01*
X138647382Y-71406046D01*
X138649500Y-71457230D01*
X138649500Y-71703000D01*
X138629815Y-71770039D01*
X138577011Y-71815794D01*
X138525510Y-71827000D01*
X138518485Y-71827000D01*
X138453224Y-71837336D01*
X138424696Y-71841854D01*
X138311658Y-71899450D01*
X138311657Y-71899451D01*
X138311652Y-71899454D01*
X138221954Y-71989152D01*
X138221951Y-71989157D01*
X138164352Y-72102198D01*
X138149500Y-72195975D01*
X138149500Y-72784017D01*
X138159603Y-72847804D01*
X138164354Y-72877804D01*
X138221950Y-72990842D01*
X138221952Y-72990844D01*
X138221954Y-72990847D01*
X138311652Y-73080545D01*
X138311654Y-73080546D01*
X138311658Y-73080550D01*
X138424694Y-73138145D01*
X138424698Y-73138147D01*
X138518475Y-73152999D01*
X138518481Y-73153000D01*
X139481518Y-73152999D01*
X139575304Y-73138146D01*
X139688342Y-73080550D01*
X139778050Y-72990842D01*
X139835646Y-72877804D01*
X139835646Y-72877802D01*
X139835647Y-72877801D01*
X139850499Y-72784024D01*
X139850500Y-72784019D01*
X139850499Y-72195982D01*
X139835646Y-72102196D01*
X139778050Y-71989158D01*
X139778046Y-71989154D01*
X139778045Y-71989152D01*
X139688347Y-71899454D01*
X139688344Y-71899452D01*
X139688342Y-71899450D01*
X139611517Y-71860305D01*
X139575301Y-71841852D01*
X139481524Y-71827000D01*
X139481519Y-71827000D01*
X139474500Y-71827000D01*
X139407461Y-71807315D01*
X139361706Y-71754511D01*
X139350500Y-71703000D01*
X139350500Y-71646544D01*
X139370185Y-71579505D01*
X139386819Y-71558863D01*
X139418863Y-71526819D01*
X139480186Y-71493334D01*
X139506544Y-71490500D01*
X140353456Y-71490500D01*
X140420495Y-71510185D01*
X140441137Y-71526819D01*
X140541500Y-71627182D01*
X140574985Y-71688505D01*
X140570001Y-71758197D01*
X140528129Y-71814130D01*
X140473218Y-71837336D01*
X140444699Y-71841853D01*
X140444697Y-71841853D01*
X140444696Y-71841854D01*
X140331658Y-71899450D01*
X140331657Y-71899451D01*
X140331652Y-71899454D01*
X140241954Y-71989152D01*
X140241951Y-71989157D01*
X140184352Y-72102198D01*
X140169500Y-72195975D01*
X140169500Y-72784017D01*
X140179603Y-72847804D01*
X140184354Y-72877804D01*
X140241950Y-72990842D01*
X140241952Y-72990844D01*
X140241954Y-72990847D01*
X140331652Y-73080545D01*
X140331654Y-73080546D01*
X140331658Y-73080550D01*
X140444694Y-73138145D01*
X140444698Y-73138147D01*
X140538475Y-73152999D01*
X140538481Y-73153000D01*
X141501518Y-73152999D01*
X141595304Y-73138146D01*
X141708342Y-73080550D01*
X141798050Y-72990842D01*
X141855646Y-72877804D01*
X141855646Y-72877802D01*
X141855647Y-72877801D01*
X141870499Y-72784024D01*
X141870500Y-72784019D01*
X141870499Y-72195982D01*
X141855646Y-72102196D01*
X141798050Y-71989158D01*
X141798046Y-71989154D01*
X141798045Y-71989152D01*
X141708347Y-71899454D01*
X141708344Y-71899452D01*
X141708342Y-71899450D01*
X141631517Y-71860305D01*
X141595301Y-71841852D01*
X141566782Y-71837336D01*
X141503648Y-71807407D01*
X141466716Y-71748096D01*
X141467714Y-71678233D01*
X141498495Y-71627186D01*
X141588865Y-71536816D01*
X141650187Y-71503334D01*
X141676544Y-71500500D01*
X142453456Y-71500500D01*
X142520495Y-71520185D01*
X142541137Y-71536819D01*
X142604664Y-71600346D01*
X142638149Y-71661669D01*
X142633165Y-71731361D01*
X142591293Y-71787294D01*
X142536380Y-71810500D01*
X142464700Y-71821852D01*
X142464699Y-71821852D01*
X142454596Y-71827000D01*
X142351658Y-71879450D01*
X142351657Y-71879451D01*
X142351652Y-71879454D01*
X142261954Y-71969152D01*
X142261951Y-71969157D01*
X142261950Y-71969158D01*
X142242751Y-72006837D01*
X142204352Y-72082198D01*
X142189500Y-72175975D01*
X142189500Y-72764017D01*
X142192669Y-72784024D01*
X142204354Y-72857804D01*
X142261950Y-72970842D01*
X142261952Y-72970844D01*
X142261954Y-72970847D01*
X142351652Y-73060545D01*
X142351654Y-73060546D01*
X142351658Y-73060550D01*
X142445072Y-73108147D01*
X142464698Y-73118147D01*
X142558475Y-73132999D01*
X142558481Y-73133000D01*
X143521518Y-73132999D01*
X143615304Y-73118146D01*
X143728342Y-73060550D01*
X143818050Y-72970842D01*
X143875646Y-72857804D01*
X143875646Y-72857802D01*
X143875647Y-72857801D01*
X143886282Y-72790647D01*
X143890500Y-72764019D01*
X143890499Y-72175982D01*
X143875646Y-72082196D01*
X143818050Y-71969158D01*
X143818046Y-71969154D01*
X143818045Y-71969152D01*
X143728347Y-71879454D01*
X143728344Y-71879452D01*
X143728342Y-71879450D01*
X143615304Y-71821854D01*
X143615302Y-71821853D01*
X143615301Y-71821853D01*
X143543618Y-71810499D01*
X143480484Y-71780569D01*
X143443553Y-71721258D01*
X143444551Y-71651395D01*
X143475332Y-71600349D01*
X143538865Y-71536816D01*
X143600187Y-71503334D01*
X143626544Y-71500500D01*
X144473456Y-71500500D01*
X144540495Y-71520185D01*
X144561137Y-71536819D01*
X144622867Y-71598549D01*
X144656352Y-71659872D01*
X144651368Y-71729564D01*
X144609496Y-71785497D01*
X144554586Y-71808703D01*
X144534699Y-71811853D01*
X144534697Y-71811853D01*
X144534696Y-71811854D01*
X144421658Y-71869450D01*
X144421657Y-71869451D01*
X144421652Y-71869454D01*
X144331954Y-71959152D01*
X144331951Y-71959157D01*
X144331950Y-71959158D01*
X144326855Y-71969158D01*
X144274352Y-72072198D01*
X144259500Y-72165975D01*
X144259500Y-72754017D01*
X144264252Y-72784017D01*
X144274354Y-72847804D01*
X144331950Y-72960842D01*
X144331952Y-72960844D01*
X144331954Y-72960847D01*
X144421652Y-73050545D01*
X144421654Y-73050546D01*
X144421658Y-73050550D01*
X144534694Y-73108145D01*
X144534698Y-73108147D01*
X144628475Y-73122999D01*
X144628481Y-73123000D01*
X145591518Y-73122999D01*
X145685304Y-73108146D01*
X145798342Y-73050550D01*
X145888050Y-72960842D01*
X145945646Y-72847804D01*
X145945646Y-72847802D01*
X145945647Y-72847801D01*
X145960499Y-72754024D01*
X145960500Y-72754019D01*
X145960499Y-72165982D01*
X145945646Y-72072196D01*
X145888050Y-71959158D01*
X145888046Y-71959154D01*
X145888045Y-71959152D01*
X145798347Y-71869454D01*
X145798344Y-71869452D01*
X145798342Y-71869450D01*
X145704928Y-71821853D01*
X145685301Y-71811852D01*
X145591524Y-71797000D01*
X145591519Y-71797000D01*
X145584500Y-71797000D01*
X145517461Y-71777315D01*
X145471706Y-71724511D01*
X145460500Y-71673000D01*
X145460500Y-71639211D01*
X145463140Y-71613761D01*
X145466225Y-71599050D01*
X145499250Y-71537478D01*
X145560320Y-71503535D01*
X145587585Y-71500500D01*
X146553456Y-71500500D01*
X146620495Y-71520185D01*
X146641137Y-71536819D01*
X146701500Y-71597182D01*
X146734985Y-71658505D01*
X146730001Y-71728197D01*
X146688129Y-71784130D01*
X146633218Y-71807336D01*
X146604699Y-71811853D01*
X146604697Y-71811853D01*
X146604696Y-71811854D01*
X146491658Y-71869450D01*
X146491657Y-71869451D01*
X146491652Y-71869454D01*
X146401954Y-71959152D01*
X146401951Y-71959157D01*
X146401950Y-71959158D01*
X146396855Y-71969158D01*
X146344352Y-72072198D01*
X146329500Y-72165975D01*
X146329500Y-72754017D01*
X146334252Y-72784017D01*
X146344354Y-72847804D01*
X146401950Y-72960842D01*
X146401952Y-72960844D01*
X146401954Y-72960847D01*
X146491652Y-73050545D01*
X146491654Y-73050546D01*
X146491658Y-73050550D01*
X146604694Y-73108145D01*
X146604698Y-73108147D01*
X146698475Y-73122999D01*
X146698481Y-73123000D01*
X147661518Y-73122999D01*
X147755304Y-73108146D01*
X147868342Y-73050550D01*
X147958050Y-72960842D01*
X148015646Y-72847804D01*
X148015646Y-72847802D01*
X148015647Y-72847801D01*
X148030499Y-72754024D01*
X148030500Y-72754019D01*
X148030499Y-72165982D01*
X148015646Y-72072196D01*
X147958050Y-71959158D01*
X147958046Y-71959154D01*
X147958045Y-71959152D01*
X147868347Y-71869454D01*
X147868344Y-71869452D01*
X147868342Y-71869450D01*
X147774928Y-71821853D01*
X147755301Y-71811852D01*
X147726782Y-71807336D01*
X147663648Y-71777407D01*
X147626716Y-71718096D01*
X147627714Y-71648233D01*
X147658498Y-71597183D01*
X147708864Y-71546818D01*
X147770187Y-71513334D01*
X147796544Y-71510500D01*
X148213456Y-71510500D01*
X148280495Y-71530185D01*
X148301137Y-71546819D01*
X148405681Y-71651363D01*
X148439166Y-71712686D01*
X148442000Y-71739044D01*
X148442000Y-78170888D01*
X148422315Y-78237927D01*
X148369511Y-78283682D01*
X148300353Y-78293626D01*
X148282619Y-78289733D01*
X148259301Y-78282791D01*
X148236954Y-78276138D01*
X148217388Y-78269421D01*
X148188485Y-78259498D01*
X148181269Y-78258294D01*
X148173953Y-78257382D01*
X148124725Y-78259419D01*
X148122769Y-78259500D01*
X147999712Y-78259500D01*
X147932673Y-78239815D01*
X147886918Y-78187011D01*
X147876974Y-78117853D01*
X147896609Y-78066609D01*
X147898867Y-78063231D01*
X147910500Y-78004748D01*
X147910500Y-77315252D01*
X147910500Y-77315249D01*
X147910499Y-77315247D01*
X147898868Y-77256770D01*
X147898867Y-77256769D01*
X147854551Y-77190446D01*
X147854159Y-77190054D01*
X147853577Y-77188988D01*
X147847767Y-77180293D01*
X147848545Y-77179773D01*
X147820674Y-77128731D01*
X147825658Y-77059039D01*
X147842133Y-77033413D01*
X147840140Y-77032081D01*
X147846924Y-77021926D01*
X147846926Y-77021926D01*
X147897281Y-76946563D01*
X147910500Y-76880108D01*
X147910500Y-75489892D01*
X147910500Y-75489889D01*
X147910499Y-75489887D01*
X147897282Y-75423441D01*
X147897281Y-75423437D01*
X147890599Y-75413437D01*
X147846926Y-75348074D01*
X147771563Y-75297719D01*
X147771562Y-75297718D01*
X147771558Y-75297717D01*
X147705111Y-75284500D01*
X147705108Y-75284500D01*
X147654500Y-75284500D01*
X147587461Y-75264815D01*
X147541706Y-75212011D01*
X147530500Y-75160500D01*
X147530500Y-75071999D01*
X147550185Y-75004960D01*
X147602989Y-74959205D01*
X147654500Y-74947999D01*
X147661517Y-74947999D01*
X147661518Y-74947999D01*
X147755304Y-74933146D01*
X147868342Y-74875550D01*
X147958050Y-74785842D01*
X148015646Y-74672804D01*
X148015646Y-74672802D01*
X148015647Y-74672801D01*
X148030499Y-74579024D01*
X148030500Y-74579019D01*
X148030499Y-73990982D01*
X148015646Y-73897196D01*
X147958050Y-73784158D01*
X147958046Y-73784154D01*
X147958045Y-73784152D01*
X147868347Y-73694454D01*
X147868344Y-73694452D01*
X147868342Y-73694450D01*
X147774930Y-73646854D01*
X147755301Y-73636852D01*
X147661524Y-73622000D01*
X146698482Y-73622000D01*
X146617519Y-73634823D01*
X146604696Y-73636854D01*
X146491658Y-73694450D01*
X146491657Y-73694451D01*
X146491652Y-73694454D01*
X146401954Y-73784152D01*
X146401951Y-73784157D01*
X146401950Y-73784158D01*
X146396855Y-73794158D01*
X146344352Y-73897198D01*
X146329500Y-73990975D01*
X146329500Y-74579017D01*
X146334252Y-74609017D01*
X146344354Y-74672804D01*
X146401950Y-74785842D01*
X146401952Y-74785844D01*
X146401954Y-74785847D01*
X146491652Y-74875545D01*
X146491654Y-74875546D01*
X146491658Y-74875550D01*
X146604694Y-74933145D01*
X146604698Y-74933147D01*
X146698473Y-74947999D01*
X146698475Y-74947999D01*
X146698481Y-74948000D01*
X146705493Y-74947999D01*
X146772531Y-74967678D01*
X146818290Y-75020478D01*
X146829500Y-75071999D01*
X146829500Y-75160500D01*
X146809815Y-75227539D01*
X146757011Y-75273294D01*
X146705500Y-75284500D01*
X146654889Y-75284500D01*
X146588441Y-75297717D01*
X146588437Y-75297718D01*
X146513074Y-75348074D01*
X146462718Y-75423437D01*
X146462717Y-75423441D01*
X146449500Y-75489887D01*
X146449500Y-76880112D01*
X146462717Y-76946558D01*
X146462718Y-76946562D01*
X146462719Y-76946563D01*
X146513074Y-77021926D01*
X146513075Y-77021926D01*
X146519860Y-77032081D01*
X146516544Y-77034296D01*
X146539325Y-77076015D01*
X146534341Y-77145707D01*
X146512150Y-77180237D01*
X146512233Y-77180293D01*
X146509136Y-77184927D01*
X146505845Y-77190049D01*
X146505450Y-77190443D01*
X146461132Y-77256769D01*
X146461131Y-77256770D01*
X146449500Y-77315247D01*
X146449500Y-78004752D01*
X146461131Y-78063228D01*
X146461132Y-78063230D01*
X146461133Y-78063231D01*
X146463390Y-78066609D01*
X146484268Y-78133285D01*
X146465784Y-78200666D01*
X146413806Y-78247356D01*
X146360288Y-78259500D01*
X145953030Y-78259500D01*
X145885991Y-78239815D01*
X145840236Y-78187011D01*
X145830292Y-78117853D01*
X145849929Y-78066608D01*
X145858867Y-78053231D01*
X145858868Y-78053229D01*
X145868511Y-78004748D01*
X145870500Y-77994748D01*
X145870500Y-77305252D01*
X145870500Y-77305249D01*
X145870499Y-77305247D01*
X145858868Y-77246770D01*
X145858867Y-77246769D01*
X145814551Y-77180446D01*
X145814159Y-77180054D01*
X145813577Y-77178988D01*
X145807767Y-77170293D01*
X145808545Y-77169773D01*
X145780674Y-77118731D01*
X145785658Y-77049039D01*
X145802133Y-77023413D01*
X145800140Y-77022081D01*
X145806924Y-77011926D01*
X145806926Y-77011926D01*
X145857281Y-76936563D01*
X145870500Y-76870108D01*
X145870500Y-75479892D01*
X145870500Y-75479889D01*
X145870499Y-75479887D01*
X145857282Y-75413441D01*
X145857281Y-75413437D01*
X145843920Y-75393441D01*
X145806926Y-75338074D01*
X145756570Y-75304427D01*
X145731562Y-75287718D01*
X145731558Y-75287717D01*
X145665111Y-75274500D01*
X145665108Y-75274500D01*
X145584500Y-75274500D01*
X145517461Y-75254815D01*
X145471706Y-75202011D01*
X145460500Y-75150500D01*
X145460500Y-75071999D01*
X145480185Y-75004960D01*
X145532989Y-74959205D01*
X145584500Y-74947999D01*
X145591517Y-74947999D01*
X145591518Y-74947999D01*
X145685304Y-74933146D01*
X145798342Y-74875550D01*
X145888050Y-74785842D01*
X145945646Y-74672804D01*
X145945646Y-74672802D01*
X145945647Y-74672801D01*
X145960499Y-74579024D01*
X145960500Y-74579019D01*
X145960499Y-73990982D01*
X145945646Y-73897196D01*
X145888050Y-73784158D01*
X145888046Y-73784154D01*
X145888045Y-73784152D01*
X145798347Y-73694454D01*
X145798344Y-73694452D01*
X145798342Y-73694450D01*
X145704930Y-73646854D01*
X145685301Y-73636852D01*
X145591524Y-73622000D01*
X144628482Y-73622000D01*
X144547519Y-73634823D01*
X144534696Y-73636854D01*
X144421658Y-73694450D01*
X144421657Y-73694451D01*
X144421652Y-73694454D01*
X144331954Y-73784152D01*
X144331951Y-73784157D01*
X144331950Y-73784158D01*
X144326855Y-73794158D01*
X144274352Y-73897198D01*
X144259500Y-73990975D01*
X144259500Y-74579017D01*
X144264252Y-74609017D01*
X144274354Y-74672804D01*
X144331950Y-74785842D01*
X144331952Y-74785844D01*
X144331954Y-74785847D01*
X144421652Y-74875545D01*
X144421654Y-74875546D01*
X144421658Y-74875550D01*
X144534694Y-74933145D01*
X144534698Y-74933147D01*
X144628473Y-74947999D01*
X144628475Y-74947999D01*
X144628481Y-74948000D01*
X144635493Y-74947999D01*
X144702531Y-74967678D01*
X144748290Y-75020478D01*
X144759500Y-75071999D01*
X144759500Y-75150500D01*
X144739815Y-75217539D01*
X144687011Y-75263294D01*
X144635500Y-75274500D01*
X144614889Y-75274500D01*
X144548441Y-75287717D01*
X144548437Y-75287718D01*
X144473074Y-75338074D01*
X144422718Y-75413437D01*
X144422717Y-75413441D01*
X144409500Y-75479887D01*
X144409500Y-76870112D01*
X144422717Y-76936558D01*
X144422718Y-76936562D01*
X144439872Y-76962235D01*
X144473074Y-77011926D01*
X144473075Y-77011926D01*
X144479860Y-77022081D01*
X144476544Y-77024296D01*
X144499325Y-77066015D01*
X144494341Y-77135707D01*
X144472150Y-77170237D01*
X144472233Y-77170293D01*
X144469136Y-77174927D01*
X144465845Y-77180049D01*
X144465450Y-77180443D01*
X144421132Y-77246769D01*
X144421131Y-77246770D01*
X144409500Y-77305247D01*
X144409500Y-77994752D01*
X144421131Y-78053229D01*
X144421132Y-78053231D01*
X144430071Y-78066608D01*
X144450950Y-78133285D01*
X144432466Y-78200666D01*
X144380488Y-78247356D01*
X144326970Y-78259500D01*
X143893030Y-78259500D01*
X143825991Y-78239815D01*
X143780236Y-78187011D01*
X143770292Y-78117853D01*
X143789929Y-78066608D01*
X143798867Y-78053231D01*
X143798868Y-78053229D01*
X143808511Y-78004748D01*
X143810500Y-77994748D01*
X143810500Y-77305252D01*
X143810500Y-77305249D01*
X143810499Y-77305247D01*
X143798868Y-77246770D01*
X143798867Y-77246769D01*
X143754551Y-77180446D01*
X143754159Y-77180054D01*
X143753577Y-77178988D01*
X143747767Y-77170293D01*
X143748545Y-77169773D01*
X143720674Y-77118731D01*
X143725658Y-77049039D01*
X143742133Y-77023413D01*
X143740140Y-77022081D01*
X143746924Y-77011926D01*
X143746926Y-77011926D01*
X143797281Y-76936563D01*
X143810500Y-76870108D01*
X143810500Y-75479892D01*
X143810500Y-75479889D01*
X143810499Y-75479887D01*
X143797282Y-75413441D01*
X143797281Y-75413437D01*
X143783920Y-75393441D01*
X143746926Y-75338074D01*
X143696570Y-75304427D01*
X143671562Y-75287718D01*
X143671558Y-75287717D01*
X143605111Y-75274500D01*
X143605108Y-75274500D01*
X143514500Y-75274500D01*
X143447461Y-75254815D01*
X143401706Y-75202011D01*
X143390500Y-75150500D01*
X143390500Y-75081999D01*
X143410185Y-75014960D01*
X143462989Y-74969205D01*
X143514500Y-74957999D01*
X143521517Y-74957999D01*
X143521518Y-74957999D01*
X143615304Y-74943146D01*
X143728342Y-74885550D01*
X143818050Y-74795842D01*
X143875646Y-74682804D01*
X143875646Y-74682802D01*
X143875647Y-74682801D01*
X143886282Y-74615647D01*
X143890500Y-74589019D01*
X143890499Y-74000982D01*
X143875646Y-73907196D01*
X143818050Y-73794158D01*
X143818046Y-73794154D01*
X143818045Y-73794152D01*
X143728347Y-73704454D01*
X143728344Y-73704452D01*
X143728342Y-73704450D01*
X143625404Y-73652000D01*
X143615301Y-73646852D01*
X143521524Y-73632000D01*
X142558482Y-73632000D01*
X142477519Y-73644823D01*
X142464696Y-73646854D01*
X142351658Y-73704450D01*
X142351657Y-73704451D01*
X142351652Y-73704454D01*
X142261954Y-73794152D01*
X142261951Y-73794157D01*
X142261950Y-73794158D01*
X142242751Y-73831837D01*
X142204352Y-73907198D01*
X142189500Y-74000975D01*
X142189500Y-74589017D01*
X142192669Y-74609024D01*
X142204354Y-74682804D01*
X142261950Y-74795842D01*
X142261952Y-74795844D01*
X142261954Y-74795847D01*
X142351652Y-74885545D01*
X142351654Y-74885546D01*
X142351658Y-74885550D01*
X142445072Y-74933147D01*
X142464698Y-74943147D01*
X142558473Y-74957999D01*
X142558475Y-74957999D01*
X142558481Y-74958000D01*
X142565493Y-74957999D01*
X142632531Y-74977678D01*
X142678290Y-75030478D01*
X142689500Y-75081999D01*
X142689500Y-75150500D01*
X142669815Y-75217539D01*
X142617011Y-75263294D01*
X142565500Y-75274500D01*
X142554889Y-75274500D01*
X142488441Y-75287717D01*
X142488437Y-75287718D01*
X142413074Y-75338074D01*
X142362718Y-75413437D01*
X142362717Y-75413441D01*
X142349500Y-75479887D01*
X142349500Y-76870112D01*
X142362717Y-76936558D01*
X142362718Y-76936562D01*
X142379872Y-76962235D01*
X142413074Y-77011926D01*
X142413075Y-77011926D01*
X142419860Y-77022081D01*
X142416544Y-77024296D01*
X142439325Y-77066015D01*
X142434341Y-77135707D01*
X142412150Y-77170237D01*
X142412233Y-77170293D01*
X142409136Y-77174927D01*
X142405845Y-77180049D01*
X142405450Y-77180443D01*
X142361132Y-77246769D01*
X142361131Y-77246770D01*
X142349500Y-77305247D01*
X142349500Y-77994752D01*
X142361131Y-78053226D01*
X142363127Y-78058044D01*
X142370597Y-78127513D01*
X142339325Y-78189993D01*
X142279237Y-78225647D01*
X142248567Y-78229500D01*
X141769712Y-78229500D01*
X141702673Y-78209815D01*
X141656918Y-78157011D01*
X141646974Y-78087853D01*
X141666609Y-78036609D01*
X141668867Y-78033231D01*
X141680500Y-77974748D01*
X141680500Y-77285252D01*
X141680500Y-77285249D01*
X141680499Y-77285247D01*
X141668868Y-77226770D01*
X141668867Y-77226769D01*
X141624551Y-77160446D01*
X141624159Y-77160054D01*
X141623577Y-77158988D01*
X141617767Y-77150293D01*
X141618545Y-77149773D01*
X141590674Y-77098731D01*
X141595658Y-77029039D01*
X141612133Y-77003413D01*
X141610140Y-77002081D01*
X141616924Y-76991926D01*
X141616926Y-76991926D01*
X141667281Y-76916563D01*
X141680500Y-76850108D01*
X141680500Y-75459892D01*
X141680500Y-75459889D01*
X141680499Y-75459887D01*
X141667282Y-75393441D01*
X141667281Y-75393437D01*
X141616926Y-75318074D01*
X141541563Y-75267719D01*
X141541562Y-75267718D01*
X141541560Y-75267717D01*
X141470307Y-75253544D01*
X141408397Y-75221158D01*
X141373823Y-75160442D01*
X141370500Y-75131927D01*
X141370500Y-75101999D01*
X141390185Y-75034960D01*
X141442989Y-74989205D01*
X141494500Y-74977999D01*
X141501517Y-74977999D01*
X141501518Y-74977999D01*
X141595304Y-74963146D01*
X141708342Y-74905550D01*
X141798050Y-74815842D01*
X141855646Y-74702804D01*
X141855646Y-74702802D01*
X141855647Y-74702801D01*
X141870499Y-74609024D01*
X141870500Y-74609019D01*
X141870499Y-74020982D01*
X141855646Y-73927196D01*
X141798050Y-73814158D01*
X141798046Y-73814154D01*
X141798045Y-73814152D01*
X141708347Y-73724454D01*
X141708344Y-73724452D01*
X141708342Y-73724450D01*
X141631517Y-73685305D01*
X141595301Y-73666852D01*
X141501524Y-73652000D01*
X140538482Y-73652000D01*
X140457519Y-73664823D01*
X140444696Y-73666854D01*
X140331658Y-73724450D01*
X140331657Y-73724451D01*
X140331652Y-73724454D01*
X140241954Y-73814152D01*
X140241951Y-73814157D01*
X140184352Y-73927198D01*
X140169500Y-74020975D01*
X140169500Y-74609017D01*
X140179603Y-74672804D01*
X140184354Y-74702804D01*
X140241950Y-74815842D01*
X140241952Y-74815844D01*
X140241954Y-74815847D01*
X140331652Y-74905545D01*
X140331654Y-74905546D01*
X140331658Y-74905550D01*
X140444694Y-74963145D01*
X140444698Y-74963147D01*
X140538473Y-74977999D01*
X140538475Y-74977999D01*
X140538481Y-74978000D01*
X140545493Y-74977999D01*
X140612531Y-74997678D01*
X140658290Y-75050478D01*
X140669500Y-75101999D01*
X140669500Y-75130500D01*
X140649815Y-75197539D01*
X140597011Y-75243294D01*
X140545500Y-75254500D01*
X140424889Y-75254500D01*
X140358441Y-75267717D01*
X140358437Y-75267718D01*
X140283074Y-75318074D01*
X140232718Y-75393437D01*
X140232717Y-75393441D01*
X140219500Y-75459887D01*
X140219500Y-76850112D01*
X140232717Y-76916558D01*
X140232718Y-76916562D01*
X140232719Y-76916563D01*
X140283074Y-76991926D01*
X140283075Y-76991926D01*
X140289860Y-77002081D01*
X140286544Y-77004296D01*
X140309325Y-77046015D01*
X140304341Y-77115707D01*
X140282150Y-77150237D01*
X140282233Y-77150293D01*
X140279136Y-77154927D01*
X140275845Y-77160049D01*
X140275450Y-77160443D01*
X140231132Y-77226769D01*
X140231131Y-77226770D01*
X140219500Y-77285247D01*
X140219500Y-77974752D01*
X140231131Y-78033226D01*
X140233127Y-78038044D01*
X140240597Y-78107513D01*
X140209325Y-78169993D01*
X140149237Y-78205647D01*
X140118567Y-78209500D01*
X139851433Y-78209500D01*
X139784394Y-78189815D01*
X139738639Y-78137011D01*
X139728695Y-78067853D01*
X139736873Y-78038044D01*
X139738864Y-78033235D01*
X139738867Y-78033231D01*
X139750500Y-77974748D01*
X139750500Y-77285252D01*
X139750500Y-77285249D01*
X139750499Y-77285247D01*
X139738868Y-77226770D01*
X139738867Y-77226769D01*
X139694551Y-77160446D01*
X139694159Y-77160054D01*
X139693577Y-77158988D01*
X139687767Y-77150293D01*
X139688545Y-77149773D01*
X139660674Y-77098731D01*
X139665658Y-77029039D01*
X139682133Y-77003413D01*
X139680140Y-77002081D01*
X139686924Y-76991926D01*
X139686926Y-76991926D01*
X139737281Y-76916563D01*
X139750500Y-76850108D01*
X139750500Y-75459892D01*
X139750500Y-75459889D01*
X139750499Y-75459887D01*
X139737282Y-75393441D01*
X139737281Y-75393437D01*
X139686926Y-75318074D01*
X139611563Y-75267719D01*
X139611562Y-75267718D01*
X139611558Y-75267717D01*
X139545111Y-75254500D01*
X139545108Y-75254500D01*
X139494500Y-75254500D01*
X139427461Y-75234815D01*
X139381706Y-75182011D01*
X139370500Y-75130500D01*
X139370500Y-75101361D01*
X139390185Y-75034322D01*
X139442989Y-74988567D01*
X139476869Y-74979791D01*
X139476706Y-74978761D01*
X139481517Y-74977999D01*
X139481518Y-74977999D01*
X139575304Y-74963146D01*
X139688342Y-74905550D01*
X139778050Y-74815842D01*
X139835646Y-74702804D01*
X139835646Y-74702802D01*
X139835647Y-74702801D01*
X139850499Y-74609024D01*
X139850500Y-74609019D01*
X139850499Y-74020982D01*
X139835646Y-73927196D01*
X139778050Y-73814158D01*
X139778046Y-73814154D01*
X139778045Y-73814152D01*
X139688347Y-73724454D01*
X139688344Y-73724452D01*
X139688342Y-73724450D01*
X139611517Y-73685305D01*
X139575301Y-73666852D01*
X139481524Y-73652000D01*
X138518482Y-73652000D01*
X138437519Y-73664823D01*
X138424696Y-73666854D01*
X138311658Y-73724450D01*
X138311657Y-73724451D01*
X138311652Y-73724454D01*
X138221954Y-73814152D01*
X138221951Y-73814157D01*
X138164352Y-73927198D01*
X138149500Y-74020975D01*
X138149500Y-74609017D01*
X138159603Y-74672804D01*
X138164354Y-74702804D01*
X138221950Y-74815842D01*
X138221952Y-74815844D01*
X138221954Y-74815847D01*
X138311652Y-74905545D01*
X138311654Y-74905546D01*
X138311658Y-74905550D01*
X138424694Y-74963145D01*
X138424698Y-74963147D01*
X138518474Y-74977999D01*
X138518475Y-74977999D01*
X138518481Y-74978000D01*
X138545498Y-74977999D01*
X138612536Y-74997681D01*
X138658293Y-75050484D01*
X138669500Y-75101999D01*
X138669500Y-75130500D01*
X138649815Y-75197539D01*
X138597011Y-75243294D01*
X138545500Y-75254500D01*
X138494889Y-75254500D01*
X138428441Y-75267717D01*
X138428437Y-75267718D01*
X138353074Y-75318074D01*
X138302718Y-75393437D01*
X138302717Y-75393441D01*
X138289500Y-75459887D01*
X138289500Y-76850112D01*
X138302717Y-76916558D01*
X138302718Y-76916562D01*
X138302719Y-76916563D01*
X138353074Y-76991926D01*
X138353075Y-76991926D01*
X138359860Y-77002081D01*
X138356544Y-77004296D01*
X138379325Y-77046015D01*
X138374341Y-77115707D01*
X138352150Y-77150237D01*
X138352233Y-77150293D01*
X138349135Y-77154928D01*
X138345845Y-77160049D01*
X138345450Y-77160443D01*
X138302722Y-77224391D01*
X138249110Y-77269196D01*
X138199620Y-77279500D01*
X133694211Y-77279500D01*
X133668765Y-77276861D01*
X133659685Y-77274957D01*
X133659684Y-77274957D01*
X133659682Y-77274957D01*
X133627061Y-77279023D01*
X133619385Y-77279500D01*
X133615960Y-77279500D01*
X133594457Y-77283087D01*
X133543608Y-77289426D01*
X133536570Y-77291521D01*
X133529622Y-77293906D01*
X133484555Y-77318295D01*
X133438512Y-77340803D01*
X133432566Y-77345048D01*
X133426742Y-77349581D01*
X133392042Y-77387275D01*
X131821955Y-78957361D01*
X131802106Y-78973482D01*
X131794331Y-78978562D01*
X131774143Y-79004498D01*
X131769067Y-79010248D01*
X131766634Y-79012681D01*
X131766623Y-79012694D01*
X131753954Y-79030438D01*
X131722483Y-79070872D01*
X131718975Y-79077353D01*
X131715760Y-79083932D01*
X131701138Y-79133045D01*
X131684498Y-79181516D01*
X131683294Y-79188733D01*
X131682382Y-79196046D01*
X131684500Y-79247230D01*
X131684500Y-88635788D01*
X131681861Y-88661232D01*
X131679957Y-88670311D01*
X131679957Y-88670317D01*
X127155135Y-88670317D01*
X127162526Y-88600000D01*
X127142476Y-88409236D01*
X127097493Y-88270791D01*
X127083204Y-88226814D01*
X127083201Y-88226808D01*
X126987295Y-88060693D01*
X126987290Y-88060686D01*
X126858945Y-87918145D01*
X126858943Y-87918143D01*
X126703764Y-87805399D01*
X126703763Y-87805398D01*
X126528530Y-87727380D01*
X126340908Y-87687500D01*
X126149092Y-87687500D01*
X125961469Y-87727380D01*
X125961468Y-87727380D01*
X125786236Y-87805398D01*
X125786235Y-87805399D01*
X125631056Y-87918143D01*
X125631054Y-87918145D01*
X125502709Y-88060686D01*
X125502704Y-88060693D01*
X125406798Y-88226808D01*
X125406795Y-88226814D01*
X125347525Y-88409232D01*
X125347524Y-88409236D01*
X125327474Y-88600000D01*
X124542418Y-88600000D01*
X124548766Y-86060000D01*
X125327474Y-86060000D01*
X125347524Y-86250764D01*
X125347525Y-86250767D01*
X125406795Y-86433185D01*
X125406798Y-86433191D01*
X125502704Y-86599306D01*
X125502709Y-86599313D01*
X125631054Y-86741854D01*
X125631056Y-86741856D01*
X125786235Y-86854600D01*
X125786236Y-86854601D01*
X125961469Y-86932619D01*
X126149092Y-86972500D01*
X126340908Y-86972500D01*
X126528531Y-86932619D01*
X126703763Y-86854601D01*
X126858945Y-86741855D01*
X126941348Y-86650336D01*
X126987290Y-86599313D01*
X126987295Y-86599306D01*
X127083202Y-86433191D01*
X127142476Y-86250764D01*
X127162526Y-86060000D01*
X127142476Y-85869236D01*
X127083202Y-85686809D01*
X126987294Y-85520692D01*
X126987290Y-85520686D01*
X126858945Y-85378145D01*
X126858943Y-85378143D01*
X126703764Y-85265399D01*
X126703763Y-85265398D01*
X126528530Y-85187380D01*
X126340908Y-85147500D01*
X126149092Y-85147500D01*
X125961469Y-85187380D01*
X125961468Y-85187380D01*
X125786236Y-85265398D01*
X125786235Y-85265399D01*
X125631056Y-85378143D01*
X125631054Y-85378145D01*
X125502709Y-85520686D01*
X125502704Y-85520693D01*
X125406798Y-85686808D01*
X125406795Y-85686814D01*
X125347525Y-85869232D01*
X125347524Y-85869236D01*
X125327474Y-86060000D01*
X124548766Y-86060000D01*
X124555113Y-83520000D01*
X125327474Y-83520000D01*
X125347524Y-83710764D01*
X125347525Y-83710767D01*
X125406795Y-83893185D01*
X125406798Y-83893191D01*
X125502704Y-84059306D01*
X125502709Y-84059313D01*
X125631054Y-84201854D01*
X125631056Y-84201856D01*
X125786235Y-84314600D01*
X125786236Y-84314601D01*
X125961469Y-84392619D01*
X126149092Y-84432500D01*
X126340908Y-84432500D01*
X126528531Y-84392619D01*
X126703763Y-84314601D01*
X126858945Y-84201855D01*
X126941348Y-84110336D01*
X126987290Y-84059313D01*
X126987295Y-84059306D01*
X127083202Y-83893191D01*
X127142476Y-83710764D01*
X127162526Y-83520000D01*
X127142476Y-83329236D01*
X127083202Y-83146809D01*
X126987294Y-82980692D01*
X126987290Y-82980686D01*
X126858945Y-82838145D01*
X126858943Y-82838143D01*
X126703764Y-82725399D01*
X126703763Y-82725398D01*
X126528530Y-82647380D01*
X126340908Y-82607500D01*
X126149092Y-82607500D01*
X125961469Y-82647380D01*
X125961468Y-82647380D01*
X125786236Y-82725398D01*
X125786235Y-82725399D01*
X125631056Y-82838143D01*
X125631054Y-82838145D01*
X125502709Y-82980686D01*
X125502704Y-82980693D01*
X125406798Y-83146808D01*
X125406795Y-83146814D01*
X125347525Y-83329232D01*
X125347524Y-83329236D01*
X125327474Y-83520000D01*
X124555113Y-83520000D01*
X124561461Y-80980000D01*
X125327474Y-80980000D01*
X125347524Y-81170764D01*
X125347525Y-81170767D01*
X125406795Y-81353185D01*
X125406798Y-81353191D01*
X125502704Y-81519306D01*
X125502709Y-81519313D01*
X125631054Y-81661854D01*
X125631056Y-81661856D01*
X125786235Y-81774600D01*
X125786236Y-81774601D01*
X125961469Y-81852619D01*
X126149092Y-81892500D01*
X126340908Y-81892500D01*
X126528531Y-81852619D01*
X126703763Y-81774601D01*
X126858945Y-81661855D01*
X126941348Y-81570336D01*
X126987290Y-81519313D01*
X126987295Y-81519306D01*
X127083202Y-81353191D01*
X127142476Y-81170764D01*
X127162526Y-80980000D01*
X127142476Y-80789236D01*
X127083202Y-80606809D01*
X126987294Y-80440692D01*
X126987290Y-80440686D01*
X126858945Y-80298145D01*
X126858943Y-80298143D01*
X126703764Y-80185399D01*
X126703763Y-80185398D01*
X126528530Y-80107380D01*
X126340908Y-80067500D01*
X126149092Y-80067500D01*
X125961469Y-80107380D01*
X125961468Y-80107380D01*
X125786236Y-80185398D01*
X125786235Y-80185399D01*
X125631056Y-80298143D01*
X125631054Y-80298145D01*
X125502709Y-80440686D01*
X125502704Y-80440693D01*
X125406798Y-80606808D01*
X125406795Y-80606814D01*
X125347525Y-80789232D01*
X125347524Y-80789236D01*
X125327474Y-80980000D01*
X124561461Y-80980000D01*
X124567808Y-78440000D01*
X125327474Y-78440000D01*
X125347524Y-78630764D01*
X125347525Y-78630767D01*
X125406795Y-78813185D01*
X125406798Y-78813191D01*
X125502704Y-78979306D01*
X125502709Y-78979313D01*
X125631054Y-79121854D01*
X125631056Y-79121856D01*
X125786235Y-79234600D01*
X125786236Y-79234601D01*
X125961469Y-79312619D01*
X126149092Y-79352500D01*
X126340908Y-79352500D01*
X126528531Y-79312619D01*
X126703763Y-79234601D01*
X126858945Y-79121855D01*
X126964613Y-79004498D01*
X126987290Y-78979313D01*
X126987295Y-78979306D01*
X126987725Y-78978562D01*
X127083202Y-78813191D01*
X127142476Y-78630764D01*
X127162526Y-78440000D01*
X127142476Y-78249236D01*
X127090040Y-78087853D01*
X127083204Y-78066814D01*
X127083201Y-78066808D01*
X127081134Y-78063228D01*
X126987294Y-77900692D01*
X126987290Y-77900686D01*
X126858945Y-77758145D01*
X126858943Y-77758143D01*
X126703764Y-77645399D01*
X126703763Y-77645398D01*
X126528530Y-77567380D01*
X126340908Y-77527500D01*
X126149092Y-77527500D01*
X125961469Y-77567380D01*
X125961468Y-77567380D01*
X125786236Y-77645398D01*
X125786235Y-77645399D01*
X125631056Y-77758143D01*
X125631054Y-77758145D01*
X125502709Y-77900686D01*
X125502704Y-77900693D01*
X125406798Y-78066808D01*
X125406795Y-78066814D01*
X125350585Y-78239815D01*
X125347524Y-78249236D01*
X125327474Y-78440000D01*
X124567808Y-78440000D01*
X124574156Y-75900000D01*
X125327474Y-75900000D01*
X125347524Y-76090764D01*
X125347525Y-76090767D01*
X125406795Y-76273185D01*
X125406798Y-76273191D01*
X125502704Y-76439306D01*
X125502709Y-76439313D01*
X125631054Y-76581854D01*
X125631056Y-76581856D01*
X125786235Y-76694600D01*
X125786236Y-76694601D01*
X125961469Y-76772619D01*
X126149092Y-76812500D01*
X126340908Y-76812500D01*
X126528531Y-76772619D01*
X126703763Y-76694601D01*
X126858945Y-76581855D01*
X126941348Y-76490336D01*
X126987290Y-76439313D01*
X126987295Y-76439306D01*
X127083202Y-76273191D01*
X127142476Y-76090764D01*
X127162526Y-75900000D01*
X127142476Y-75709236D01*
X127083202Y-75526809D01*
X127017749Y-75413441D01*
X126987295Y-75360693D01*
X126987290Y-75360686D01*
X126858945Y-75218145D01*
X126858943Y-75218143D01*
X126703764Y-75105399D01*
X126703763Y-75105398D01*
X126528530Y-75027380D01*
X126340908Y-74987500D01*
X126149092Y-74987500D01*
X125961469Y-75027380D01*
X125961468Y-75027380D01*
X125786236Y-75105398D01*
X125786235Y-75105399D01*
X125631056Y-75218143D01*
X125631054Y-75218145D01*
X125502709Y-75360686D01*
X125502704Y-75360693D01*
X125406798Y-75526808D01*
X125406795Y-75526814D01*
X125347525Y-75709232D01*
X125347524Y-75709236D01*
X125327474Y-75900000D01*
X124574156Y-75900000D01*
X124589690Y-69683817D01*
X124609542Y-69616829D01*
X124662461Y-69571206D01*
X124713817Y-69560129D01*
X153146370Y-69589870D01*
G37*
%TD.AperFunction*%
%TD*%
M02*
