%TF.GenerationSoftware,KiCad,Pcbnew,7.0.8-7.0.8~ubuntu22.04.1*%
%TF.CreationDate,2023-12-23T17:01:05+01:00*%
%TF.ProjectId,Smart_Light,536d6172-745f-44c6-9967-68742e6b6963,rev?*%
%TF.SameCoordinates,Original*%
%TF.FileFunction,Legend,Bot*%
%TF.FilePolarity,Positive*%
%FSLAX46Y46*%
G04 Gerber Fmt 4.6, Leading zero omitted, Abs format (unit mm)*
G04 Created by KiCad (PCBNEW 7.0.8-7.0.8~ubuntu22.04.1) date 2023-12-23 17:01:05*
%MOMM*%
%LPD*%
G01*
G04 APERTURE LIST*
%ADD10C,0.100000*%
G04 APERTURE END LIST*
D10*
X139706904Y-70277419D02*
X139706904Y-71086942D01*
X139706904Y-71086942D02*
X139659285Y-71182180D01*
X139659285Y-71182180D02*
X139611666Y-71229800D01*
X139611666Y-71229800D02*
X139516428Y-71277419D01*
X139516428Y-71277419D02*
X139325952Y-71277419D01*
X139325952Y-71277419D02*
X139230714Y-71229800D01*
X139230714Y-71229800D02*
X139183095Y-71182180D01*
X139183095Y-71182180D02*
X139135476Y-71086942D01*
X139135476Y-71086942D02*
X139135476Y-70277419D01*
X138135476Y-71277419D02*
X138706904Y-71277419D01*
X138421190Y-71277419D02*
X138421190Y-70277419D01*
X138421190Y-70277419D02*
X138516428Y-70420276D01*
X138516428Y-70420276D02*
X138611666Y-70515514D01*
X138611666Y-70515514D02*
X138706904Y-70563133D01*
%TO.C,U1*%
X153145000Y-119360000D02*
X153145000Y-71760000D01*
X151145000Y-69760000D02*
X126745000Y-69760000D01*
X126745000Y-121360000D02*
X151145000Y-121360000D01*
X124745000Y-71760000D02*
X124745000Y-119360000D01*
X151145000Y-121360000D02*
G75*
G03*
X153145000Y-119360000I1J1999999D01*
G01*
X153145000Y-71760000D02*
G75*
G03*
X151145000Y-69760000I-1999999J1D01*
G01*
X124745000Y-119360000D02*
G75*
G03*
X126745000Y-121360000I2000000J0D01*
G01*
X126745000Y-69760000D02*
G75*
G03*
X124745000Y-71760000I0J-2000000D01*
G01*
X152145000Y-118810000D02*
G75*
G03*
X152145000Y-118810000I-1500000J0D01*
G01*
X152145000Y-72310000D02*
G75*
G03*
X152145000Y-72310000I-1500000J0D01*
G01*
X128745000Y-118810000D02*
G75*
G03*
X128745000Y-118810000I-1500000J0D01*
G01*
X128745000Y-72310000D02*
G75*
G03*
X128745000Y-72310000I-1500000J0D01*
G01*
%TD*%
M02*
