%TF.GenerationSoftware,KiCad,Pcbnew,7.0.8-7.0.8~ubuntu22.04.1*%
%TF.CreationDate,2023-12-23T17:01:05+01:00*%
%TF.ProjectId,Smart_Light,536d6172-745f-44c6-9967-68742e6b6963,rev?*%
%TF.SameCoordinates,Original*%
%TF.FileFunction,Copper,L2,Bot*%
%TF.FilePolarity,Positive*%
%FSLAX46Y46*%
G04 Gerber Fmt 4.6, Leading zero omitted, Abs format (unit mm)*
G04 Created by KiCad (PCBNEW 7.0.8-7.0.8~ubuntu22.04.1) date 2023-12-23 17:01:05*
%MOMM*%
%LPD*%
G01*
G04 APERTURE LIST*
%TA.AperFunction,ComponentPad*%
%ADD10C,1.524000*%
%TD*%
G04 APERTURE END LIST*
D10*
%TO.P,U1,1,EN*%
%TO.N,unconnected-(U1-EN-Pad1)*%
X151645000Y-75900000D03*
%TO.P,U1,2,GPIO36*%
%TO.N,unconnected-(U1-GPIO36-Pad2)*%
X151645000Y-78440000D03*
%TO.P,U1,3,GPIO39*%
%TO.N,unconnected-(U1-GPIO39-Pad3)*%
X151645000Y-80980000D03*
%TO.P,U1,4,GPIO34*%
%TO.N,unconnected-(U1-GPIO34-Pad4)*%
X151645000Y-83520000D03*
%TO.P,U1,5,GPIO35*%
%TO.N,unconnected-(U1-GPIO35-Pad5)*%
X151645000Y-86060000D03*
%TO.P,U1,6,GPIO32*%
%TO.N,unconnected-(U1-GPIO32-Pad6)*%
X151645000Y-88600000D03*
%TO.P,U1,7,GPIO33*%
%TO.N,unconnected-(U1-GPIO33-Pad7)*%
X151645000Y-91140000D03*
%TO.P,U1,8,GPIO25*%
%TO.N,unconnected-(U1-GPIO25-Pad8)*%
X151645000Y-93680000D03*
%TO.P,U1,9,GPIO26*%
%TO.N,unconnected-(U1-GPIO26-Pad9)*%
X151645000Y-96220000D03*
%TO.P,U1,10,GPIO27*%
%TO.N,unconnected-(U1-GPIO27-Pad10)*%
X151645000Y-98760000D03*
%TO.P,U1,11,GPIO14*%
%TO.N,unconnected-(U1-GPIO14-Pad11)*%
X151645000Y-101300000D03*
%TO.P,U1,12,GPIO12*%
%TO.N,unconnected-(U1-GPIO12-Pad12)*%
X151645000Y-103840000D03*
%TO.P,U1,13,GPIO13*%
%TO.N,unconnected-(U1-GPIO13-Pad13)*%
X151645000Y-106380000D03*
%TO.P,U1,14,GND*%
%TO.N,Earth*%
X151645000Y-108920000D03*
%TO.P,U1,15,VIN*%
%TO.N,+5V*%
X151645000Y-111460000D03*
%TO.P,U1,16,GPIO23*%
%TO.N,unconnected-(U1-GPIO23-Pad16)*%
X126245000Y-75900000D03*
%TO.P,U1,17,GPIO22*%
%TO.N,unconnected-(U1-GPIO22-Pad17)*%
X126245000Y-78440000D03*
%TO.P,U1,18,GPIO01*%
%TO.N,unconnected-(U1-GPIO01-Pad18)*%
X126245000Y-80980000D03*
%TO.P,U1,19,GPIO03*%
%TO.N,unconnected-(U1-GPIO03-Pad19)*%
X126245000Y-83520000D03*
%TO.P,U1,20,GPIO21*%
%TO.N,unconnected-(U1-GPIO21-Pad20)*%
X126245000Y-86060000D03*
%TO.P,U1,21,GPIO19*%
%TO.N,unconnected-(U1-GPIO19-Pad21)*%
X126245000Y-88600000D03*
%TO.P,U1,22,GPIO18*%
%TO.N,unconnected-(U1-GPIO18-Pad22)*%
X126245000Y-91140000D03*
%TO.P,U1,23,GPIO05*%
%TO.N,unconnected-(U1-GPIO05-Pad23)*%
X126245000Y-93680000D03*
%TO.P,U1,24,GPIO17*%
%TO.N,unconnected-(U1-GPIO17-Pad24)*%
X126245000Y-96220000D03*
%TO.P,U1,25,GPIO16*%
%TO.N,unconnected-(U1-GPIO16-Pad25)*%
X126245000Y-98760000D03*
%TO.P,U1,26,GPIO04*%
%TO.N,/LIGHT_CTRL*%
X126245000Y-101300000D03*
%TO.P,U1,27,GPIO02*%
%TO.N,unconnected-(U1-GPIO02-Pad27)*%
X126245000Y-103840000D03*
%TO.P,U1,28,GPIO15*%
%TO.N,unconnected-(U1-GPIO15-Pad28)*%
X126245000Y-106380000D03*
%TO.P,U1,29,GND*%
%TO.N,Earth*%
X126245000Y-108920000D03*
%TO.P,U1,30,3V3*%
%TO.N,unconnected-(U1-3V3-Pad30)*%
X126245000Y-111460000D03*
%TD*%
%TA.AperFunction,Conductor*%
%TO.N,Earth*%
G36*
X153146370Y-69589870D02*
G01*
X153213387Y-69609625D01*
X153259086Y-69662477D01*
X153270238Y-69713631D01*
X153369761Y-121326318D01*
X153350206Y-121393395D01*
X153297490Y-121439252D01*
X153246319Y-121450556D01*
X124584870Y-121579438D01*
X124517742Y-121560055D01*
X124471750Y-121507457D01*
X124460312Y-121455129D01*
X124483010Y-112372500D01*
X124485290Y-111460000D01*
X125327474Y-111460000D01*
X125347524Y-111650764D01*
X125347525Y-111650767D01*
X125406795Y-111833185D01*
X125406798Y-111833191D01*
X125502704Y-111999306D01*
X125502709Y-111999313D01*
X125631054Y-112141854D01*
X125631056Y-112141856D01*
X125786235Y-112254600D01*
X125786236Y-112254601D01*
X125961469Y-112332619D01*
X126149092Y-112372500D01*
X126340908Y-112372500D01*
X126528531Y-112332619D01*
X126703763Y-112254601D01*
X126858945Y-112141855D01*
X126941348Y-112050336D01*
X126987290Y-111999313D01*
X126987295Y-111999306D01*
X127083202Y-111833191D01*
X127142476Y-111650764D01*
X127162526Y-111460000D01*
X150727474Y-111460000D01*
X150747524Y-111650764D01*
X150747525Y-111650767D01*
X150806795Y-111833185D01*
X150806798Y-111833191D01*
X150902704Y-111999306D01*
X150902709Y-111999313D01*
X151031054Y-112141854D01*
X151031056Y-112141856D01*
X151186235Y-112254600D01*
X151186236Y-112254601D01*
X151361469Y-112332619D01*
X151549092Y-112372500D01*
X151740908Y-112372500D01*
X151928531Y-112332619D01*
X152103763Y-112254601D01*
X152258945Y-112141855D01*
X152341348Y-112050336D01*
X152387290Y-111999313D01*
X152387295Y-111999306D01*
X152483202Y-111833191D01*
X152542476Y-111650764D01*
X152562526Y-111460000D01*
X152542476Y-111269236D01*
X152483202Y-111086809D01*
X152387294Y-110920692D01*
X152387290Y-110920686D01*
X152258945Y-110778145D01*
X152258943Y-110778143D01*
X152103764Y-110665399D01*
X152103763Y-110665398D01*
X151928530Y-110587380D01*
X151740908Y-110547500D01*
X151549092Y-110547500D01*
X151361469Y-110587380D01*
X151361468Y-110587380D01*
X151186236Y-110665398D01*
X151186235Y-110665399D01*
X151031056Y-110778143D01*
X151031054Y-110778145D01*
X150902709Y-110920686D01*
X150902704Y-110920693D01*
X150806798Y-111086808D01*
X150806795Y-111086814D01*
X150747525Y-111269232D01*
X150747524Y-111269236D01*
X150727474Y-111460000D01*
X127162526Y-111460000D01*
X127142476Y-111269236D01*
X127083202Y-111086809D01*
X126987294Y-110920692D01*
X126987290Y-110920686D01*
X126858945Y-110778145D01*
X126858943Y-110778143D01*
X126703764Y-110665399D01*
X126703763Y-110665398D01*
X126528530Y-110587380D01*
X126340908Y-110547500D01*
X126149092Y-110547500D01*
X125961469Y-110587380D01*
X125961468Y-110587380D01*
X125786236Y-110665398D01*
X125786235Y-110665399D01*
X125631056Y-110778143D01*
X125631054Y-110778145D01*
X125502709Y-110920686D01*
X125502704Y-110920693D01*
X125406798Y-111086808D01*
X125406795Y-111086814D01*
X125347525Y-111269232D01*
X125347524Y-111269236D01*
X125327474Y-111460000D01*
X124485290Y-111460000D01*
X124491638Y-108920000D01*
X125327976Y-108920000D01*
X125348016Y-109110663D01*
X125407254Y-109292980D01*
X125407257Y-109292987D01*
X125447960Y-109363486D01*
X125860096Y-108951350D01*
X125860051Y-108951898D01*
X125891266Y-109075162D01*
X125960813Y-109181612D01*
X126061157Y-109259713D01*
X126181422Y-109301000D01*
X126217553Y-109301000D01*
X125798871Y-109719679D01*
X125961626Y-109792142D01*
X126149144Y-109831999D01*
X126149145Y-109832000D01*
X126340855Y-109832000D01*
X126340855Y-109831999D01*
X126528373Y-109792142D01*
X126528381Y-109792140D01*
X126691126Y-109719680D01*
X126691126Y-109719679D01*
X126272448Y-109301000D01*
X126276569Y-109301000D01*
X126370421Y-109285339D01*
X126482251Y-109224820D01*
X126568371Y-109131269D01*
X126619448Y-109014823D01*
X126625105Y-108946552D01*
X127042038Y-109363486D01*
X127042039Y-109363485D01*
X127082743Y-109292987D01*
X127141983Y-109110663D01*
X127162023Y-108920000D01*
X150727976Y-108920000D01*
X150748016Y-109110663D01*
X150807254Y-109292980D01*
X150807257Y-109292987D01*
X150847960Y-109363486D01*
X151260096Y-108951350D01*
X151260051Y-108951898D01*
X151291266Y-109075162D01*
X151360813Y-109181612D01*
X151461157Y-109259713D01*
X151581422Y-109301000D01*
X151617553Y-109301000D01*
X151198871Y-109719679D01*
X151361626Y-109792142D01*
X151549144Y-109831999D01*
X151549145Y-109832000D01*
X151740855Y-109832000D01*
X151740855Y-109831999D01*
X151928373Y-109792142D01*
X151928381Y-109792140D01*
X152091126Y-109719680D01*
X152091126Y-109719679D01*
X151672448Y-109301000D01*
X151676569Y-109301000D01*
X151770421Y-109285339D01*
X151882251Y-109224820D01*
X151968371Y-109131269D01*
X152019448Y-109014823D01*
X152025105Y-108946552D01*
X152442038Y-109363486D01*
X152442039Y-109363485D01*
X152482743Y-109292987D01*
X152541983Y-109110663D01*
X152562023Y-108920000D01*
X152541983Y-108729336D01*
X152482744Y-108547015D01*
X152442038Y-108476512D01*
X152029903Y-108888648D01*
X152029949Y-108888102D01*
X151998734Y-108764838D01*
X151929187Y-108658388D01*
X151828843Y-108580287D01*
X151708578Y-108539000D01*
X151672448Y-108539000D01*
X152091127Y-108120319D01*
X151928373Y-108047857D01*
X151740855Y-108008000D01*
X151549145Y-108008000D01*
X151361627Y-108047857D01*
X151361624Y-108047857D01*
X151198871Y-108120319D01*
X151617553Y-108539000D01*
X151613431Y-108539000D01*
X151519579Y-108554661D01*
X151407749Y-108615180D01*
X151321629Y-108708731D01*
X151270552Y-108825177D01*
X151264894Y-108893446D01*
X150847960Y-108476513D01*
X150807257Y-108547012D01*
X150807254Y-108547019D01*
X150748016Y-108729336D01*
X150727976Y-108920000D01*
X127162023Y-108920000D01*
X127141983Y-108729336D01*
X127082744Y-108547015D01*
X127042038Y-108476512D01*
X126629903Y-108888648D01*
X126629949Y-108888102D01*
X126598734Y-108764838D01*
X126529187Y-108658388D01*
X126428843Y-108580287D01*
X126308578Y-108539000D01*
X126272448Y-108539000D01*
X126691127Y-108120319D01*
X126528373Y-108047857D01*
X126340855Y-108008000D01*
X126149145Y-108008000D01*
X125961627Y-108047857D01*
X125961624Y-108047857D01*
X125798871Y-108120319D01*
X126217553Y-108539000D01*
X126213431Y-108539000D01*
X126119579Y-108554661D01*
X126007749Y-108615180D01*
X125921629Y-108708731D01*
X125870552Y-108825177D01*
X125864894Y-108893446D01*
X125447960Y-108476513D01*
X125407257Y-108547012D01*
X125407254Y-108547019D01*
X125348016Y-108729336D01*
X125327976Y-108920000D01*
X124491638Y-108920000D01*
X124497985Y-106380000D01*
X125327474Y-106380000D01*
X125347524Y-106570764D01*
X125347525Y-106570767D01*
X125406795Y-106753185D01*
X125406798Y-106753191D01*
X125502704Y-106919306D01*
X125502709Y-106919313D01*
X125631054Y-107061854D01*
X125631056Y-107061856D01*
X125786235Y-107174600D01*
X125786236Y-107174601D01*
X125961469Y-107252619D01*
X126149092Y-107292500D01*
X126340908Y-107292500D01*
X126528531Y-107252619D01*
X126703763Y-107174601D01*
X126858945Y-107061855D01*
X126941348Y-106970336D01*
X126987290Y-106919313D01*
X126987295Y-106919306D01*
X127083202Y-106753191D01*
X127142476Y-106570764D01*
X127162526Y-106380000D01*
X150727474Y-106380000D01*
X150747524Y-106570764D01*
X150747525Y-106570767D01*
X150806795Y-106753185D01*
X150806798Y-106753191D01*
X150902704Y-106919306D01*
X150902709Y-106919313D01*
X151031054Y-107061854D01*
X151031056Y-107061856D01*
X151186235Y-107174600D01*
X151186236Y-107174601D01*
X151361469Y-107252619D01*
X151549092Y-107292500D01*
X151740908Y-107292500D01*
X151928531Y-107252619D01*
X152103763Y-107174601D01*
X152258945Y-107061855D01*
X152341348Y-106970336D01*
X152387290Y-106919313D01*
X152387295Y-106919306D01*
X152483202Y-106753191D01*
X152542476Y-106570764D01*
X152562526Y-106380000D01*
X152542476Y-106189236D01*
X152483202Y-106006809D01*
X152387294Y-105840692D01*
X152387290Y-105840686D01*
X152258945Y-105698145D01*
X152258943Y-105698143D01*
X152103764Y-105585399D01*
X152103763Y-105585398D01*
X151928530Y-105507380D01*
X151740908Y-105467500D01*
X151549092Y-105467500D01*
X151361469Y-105507380D01*
X151361468Y-105507380D01*
X151186236Y-105585398D01*
X151186235Y-105585399D01*
X151031056Y-105698143D01*
X151031054Y-105698145D01*
X150902709Y-105840686D01*
X150902704Y-105840693D01*
X150806798Y-106006808D01*
X150806795Y-106006814D01*
X150747525Y-106189232D01*
X150747524Y-106189236D01*
X150727474Y-106380000D01*
X127162526Y-106380000D01*
X127142476Y-106189236D01*
X127083202Y-106006809D01*
X126987294Y-105840692D01*
X126987290Y-105840686D01*
X126858945Y-105698145D01*
X126858943Y-105698143D01*
X126703764Y-105585399D01*
X126703763Y-105585398D01*
X126528530Y-105507380D01*
X126340908Y-105467500D01*
X126149092Y-105467500D01*
X125961469Y-105507380D01*
X125961468Y-105507380D01*
X125786236Y-105585398D01*
X125786235Y-105585399D01*
X125631056Y-105698143D01*
X125631054Y-105698145D01*
X125502709Y-105840686D01*
X125502704Y-105840693D01*
X125406798Y-106006808D01*
X125406795Y-106006814D01*
X125347525Y-106189232D01*
X125347524Y-106189236D01*
X125327474Y-106380000D01*
X124497985Y-106380000D01*
X124504333Y-103840000D01*
X125327474Y-103840000D01*
X125347524Y-104030764D01*
X125347525Y-104030767D01*
X125406795Y-104213185D01*
X125406798Y-104213191D01*
X125502704Y-104379306D01*
X125502709Y-104379313D01*
X125631054Y-104521854D01*
X125631056Y-104521856D01*
X125786235Y-104634600D01*
X125786236Y-104634601D01*
X125961469Y-104712619D01*
X126149092Y-104752500D01*
X126340908Y-104752500D01*
X126528531Y-104712619D01*
X126703763Y-104634601D01*
X126858945Y-104521855D01*
X126941348Y-104430336D01*
X126987290Y-104379313D01*
X126987295Y-104379306D01*
X127083202Y-104213191D01*
X127142476Y-104030764D01*
X127162526Y-103840000D01*
X150727474Y-103840000D01*
X150747524Y-104030764D01*
X150747525Y-104030767D01*
X150806795Y-104213185D01*
X150806798Y-104213191D01*
X150902704Y-104379306D01*
X150902709Y-104379313D01*
X151031054Y-104521854D01*
X151031056Y-104521856D01*
X151186235Y-104634600D01*
X151186236Y-104634601D01*
X151361469Y-104712619D01*
X151549092Y-104752500D01*
X151740908Y-104752500D01*
X151928531Y-104712619D01*
X152103763Y-104634601D01*
X152258945Y-104521855D01*
X152341348Y-104430336D01*
X152387290Y-104379313D01*
X152387295Y-104379306D01*
X152483202Y-104213191D01*
X152542476Y-104030764D01*
X152562526Y-103840000D01*
X152542476Y-103649236D01*
X152483202Y-103466809D01*
X152387294Y-103300692D01*
X152387290Y-103300686D01*
X152258945Y-103158145D01*
X152258943Y-103158143D01*
X152103764Y-103045399D01*
X152103763Y-103045398D01*
X151928530Y-102967380D01*
X151740908Y-102927500D01*
X151549092Y-102927500D01*
X151361469Y-102967380D01*
X151361468Y-102967380D01*
X151186236Y-103045398D01*
X151186235Y-103045399D01*
X151031056Y-103158143D01*
X151031054Y-103158145D01*
X150902709Y-103300686D01*
X150902704Y-103300693D01*
X150806798Y-103466808D01*
X150806795Y-103466814D01*
X150747525Y-103649232D01*
X150747524Y-103649236D01*
X150727474Y-103840000D01*
X127162526Y-103840000D01*
X127142476Y-103649236D01*
X127083202Y-103466809D01*
X126987294Y-103300692D01*
X126987290Y-103300686D01*
X126858945Y-103158145D01*
X126858943Y-103158143D01*
X126703764Y-103045399D01*
X126703763Y-103045398D01*
X126528530Y-102967380D01*
X126340908Y-102927500D01*
X126149092Y-102927500D01*
X125961469Y-102967380D01*
X125961468Y-102967380D01*
X125786236Y-103045398D01*
X125786235Y-103045399D01*
X125631056Y-103158143D01*
X125631054Y-103158145D01*
X125502709Y-103300686D01*
X125502704Y-103300693D01*
X125406798Y-103466808D01*
X125406795Y-103466814D01*
X125347525Y-103649232D01*
X125347524Y-103649236D01*
X125327474Y-103840000D01*
X124504333Y-103840000D01*
X124510680Y-101300000D01*
X125327474Y-101300000D01*
X125347524Y-101490764D01*
X125347525Y-101490767D01*
X125406795Y-101673185D01*
X125406798Y-101673191D01*
X125502704Y-101839306D01*
X125502709Y-101839313D01*
X125631054Y-101981854D01*
X125631056Y-101981856D01*
X125786235Y-102094600D01*
X125786236Y-102094601D01*
X125961469Y-102172619D01*
X126149092Y-102212500D01*
X126340908Y-102212500D01*
X126528531Y-102172619D01*
X126703763Y-102094601D01*
X126858945Y-101981855D01*
X126941348Y-101890336D01*
X126987290Y-101839313D01*
X126987295Y-101839306D01*
X127083202Y-101673191D01*
X127142476Y-101490764D01*
X127162526Y-101300000D01*
X150727474Y-101300000D01*
X150747524Y-101490764D01*
X150747525Y-101490767D01*
X150806795Y-101673185D01*
X150806798Y-101673191D01*
X150902704Y-101839306D01*
X150902709Y-101839313D01*
X151031054Y-101981854D01*
X151031056Y-101981856D01*
X151186235Y-102094600D01*
X151186236Y-102094601D01*
X151361469Y-102172619D01*
X151549092Y-102212500D01*
X151740908Y-102212500D01*
X151928531Y-102172619D01*
X152103763Y-102094601D01*
X152258945Y-101981855D01*
X152341348Y-101890336D01*
X152387290Y-101839313D01*
X152387295Y-101839306D01*
X152483202Y-101673191D01*
X152542476Y-101490764D01*
X152562526Y-101300000D01*
X152542476Y-101109236D01*
X152483202Y-100926809D01*
X152387294Y-100760692D01*
X152387290Y-100760686D01*
X152258945Y-100618145D01*
X152258943Y-100618143D01*
X152103764Y-100505399D01*
X152103763Y-100505398D01*
X151928530Y-100427380D01*
X151740908Y-100387500D01*
X151549092Y-100387500D01*
X151361469Y-100427380D01*
X151361468Y-100427380D01*
X151186236Y-100505398D01*
X151186235Y-100505399D01*
X151031056Y-100618143D01*
X151031054Y-100618145D01*
X150902709Y-100760686D01*
X150902704Y-100760693D01*
X150806798Y-100926808D01*
X150806795Y-100926814D01*
X150747525Y-101109232D01*
X150747524Y-101109236D01*
X150727474Y-101300000D01*
X127162526Y-101300000D01*
X127142476Y-101109236D01*
X127083202Y-100926809D01*
X126987294Y-100760692D01*
X126987290Y-100760686D01*
X126858945Y-100618145D01*
X126858943Y-100618143D01*
X126703764Y-100505399D01*
X126703763Y-100505398D01*
X126528530Y-100427380D01*
X126340908Y-100387500D01*
X126149092Y-100387500D01*
X125961469Y-100427380D01*
X125961468Y-100427380D01*
X125786236Y-100505398D01*
X125786235Y-100505399D01*
X125631056Y-100618143D01*
X125631054Y-100618145D01*
X125502709Y-100760686D01*
X125502704Y-100760693D01*
X125406798Y-100926808D01*
X125406795Y-100926814D01*
X125347525Y-101109232D01*
X125347524Y-101109236D01*
X125327474Y-101300000D01*
X124510680Y-101300000D01*
X124517028Y-98760000D01*
X125327474Y-98760000D01*
X125347524Y-98950764D01*
X125347525Y-98950767D01*
X125406795Y-99133185D01*
X125406798Y-99133191D01*
X125502704Y-99299306D01*
X125502709Y-99299313D01*
X125631054Y-99441854D01*
X125631056Y-99441856D01*
X125786235Y-99554600D01*
X125786236Y-99554601D01*
X125961469Y-99632619D01*
X126149092Y-99672500D01*
X126340908Y-99672500D01*
X126528531Y-99632619D01*
X126703763Y-99554601D01*
X126858945Y-99441855D01*
X126941348Y-99350336D01*
X126987290Y-99299313D01*
X126987295Y-99299306D01*
X127083202Y-99133191D01*
X127142476Y-98950764D01*
X127162526Y-98760000D01*
X150727474Y-98760000D01*
X150747524Y-98950764D01*
X150747525Y-98950767D01*
X150806795Y-99133185D01*
X150806798Y-99133191D01*
X150902704Y-99299306D01*
X150902709Y-99299313D01*
X151031054Y-99441854D01*
X151031056Y-99441856D01*
X151186235Y-99554600D01*
X151186236Y-99554601D01*
X151361469Y-99632619D01*
X151549092Y-99672500D01*
X151740908Y-99672500D01*
X151928531Y-99632619D01*
X152103763Y-99554601D01*
X152258945Y-99441855D01*
X152341348Y-99350336D01*
X152387290Y-99299313D01*
X152387295Y-99299306D01*
X152483202Y-99133191D01*
X152542476Y-98950764D01*
X152562526Y-98760000D01*
X152542476Y-98569236D01*
X152483202Y-98386809D01*
X152387294Y-98220692D01*
X152387290Y-98220686D01*
X152258945Y-98078145D01*
X152258943Y-98078143D01*
X152103764Y-97965399D01*
X152103763Y-97965398D01*
X151928530Y-97887380D01*
X151740908Y-97847500D01*
X151549092Y-97847500D01*
X151361469Y-97887380D01*
X151361468Y-97887380D01*
X151186236Y-97965398D01*
X151186235Y-97965399D01*
X151031056Y-98078143D01*
X151031054Y-98078145D01*
X150902709Y-98220686D01*
X150902704Y-98220693D01*
X150806798Y-98386808D01*
X150806795Y-98386814D01*
X150747525Y-98569232D01*
X150747524Y-98569236D01*
X150727474Y-98760000D01*
X127162526Y-98760000D01*
X127142476Y-98569236D01*
X127083202Y-98386809D01*
X126987294Y-98220692D01*
X126987290Y-98220686D01*
X126858945Y-98078145D01*
X126858943Y-98078143D01*
X126703764Y-97965399D01*
X126703763Y-97965398D01*
X126528530Y-97887380D01*
X126340908Y-97847500D01*
X126149092Y-97847500D01*
X125961469Y-97887380D01*
X125961468Y-97887380D01*
X125786236Y-97965398D01*
X125786235Y-97965399D01*
X125631056Y-98078143D01*
X125631054Y-98078145D01*
X125502709Y-98220686D01*
X125502704Y-98220693D01*
X125406798Y-98386808D01*
X125406795Y-98386814D01*
X125347525Y-98569232D01*
X125347524Y-98569236D01*
X125327474Y-98760000D01*
X124517028Y-98760000D01*
X124523375Y-96220000D01*
X125327474Y-96220000D01*
X125347524Y-96410764D01*
X125347525Y-96410767D01*
X125406795Y-96593185D01*
X125406798Y-96593191D01*
X125502704Y-96759306D01*
X125502709Y-96759313D01*
X125631054Y-96901854D01*
X125631056Y-96901856D01*
X125786235Y-97014600D01*
X125786236Y-97014601D01*
X125961469Y-97092619D01*
X126149092Y-97132500D01*
X126340908Y-97132500D01*
X126528531Y-97092619D01*
X126703763Y-97014601D01*
X126858945Y-96901855D01*
X126941348Y-96810336D01*
X126987290Y-96759313D01*
X126987295Y-96759306D01*
X127083202Y-96593191D01*
X127142476Y-96410764D01*
X127162526Y-96220000D01*
X150727474Y-96220000D01*
X150747524Y-96410764D01*
X150747525Y-96410767D01*
X150806795Y-96593185D01*
X150806798Y-96593191D01*
X150902704Y-96759306D01*
X150902709Y-96759313D01*
X151031054Y-96901854D01*
X151031056Y-96901856D01*
X151186235Y-97014600D01*
X151186236Y-97014601D01*
X151361469Y-97092619D01*
X151549092Y-97132500D01*
X151740908Y-97132500D01*
X151928531Y-97092619D01*
X152103763Y-97014601D01*
X152258945Y-96901855D01*
X152341348Y-96810336D01*
X152387290Y-96759313D01*
X152387295Y-96759306D01*
X152483202Y-96593191D01*
X152542476Y-96410764D01*
X152562526Y-96220000D01*
X152542476Y-96029236D01*
X152483202Y-95846809D01*
X152387294Y-95680692D01*
X152387290Y-95680686D01*
X152258945Y-95538145D01*
X152258943Y-95538143D01*
X152103764Y-95425399D01*
X152103763Y-95425398D01*
X151928530Y-95347380D01*
X151740908Y-95307500D01*
X151549092Y-95307500D01*
X151361469Y-95347380D01*
X151361468Y-95347380D01*
X151186236Y-95425398D01*
X151186235Y-95425399D01*
X151031056Y-95538143D01*
X151031054Y-95538145D01*
X150902709Y-95680686D01*
X150902704Y-95680693D01*
X150806798Y-95846808D01*
X150806795Y-95846814D01*
X150747525Y-96029232D01*
X150747524Y-96029236D01*
X150727474Y-96220000D01*
X127162526Y-96220000D01*
X127142476Y-96029236D01*
X127083202Y-95846809D01*
X126987294Y-95680692D01*
X126987290Y-95680686D01*
X126858945Y-95538145D01*
X126858943Y-95538143D01*
X126703764Y-95425399D01*
X126703763Y-95425398D01*
X126528530Y-95347380D01*
X126340908Y-95307500D01*
X126149092Y-95307500D01*
X125961469Y-95347380D01*
X125961468Y-95347380D01*
X125786236Y-95425398D01*
X125786235Y-95425399D01*
X125631056Y-95538143D01*
X125631054Y-95538145D01*
X125502709Y-95680686D01*
X125502704Y-95680693D01*
X125406798Y-95846808D01*
X125406795Y-95846814D01*
X125347525Y-96029232D01*
X125347524Y-96029236D01*
X125327474Y-96220000D01*
X124523375Y-96220000D01*
X124529723Y-93680000D01*
X125327474Y-93680000D01*
X125347524Y-93870764D01*
X125347525Y-93870767D01*
X125406795Y-94053185D01*
X125406798Y-94053191D01*
X125502704Y-94219306D01*
X125502709Y-94219313D01*
X125631054Y-94361854D01*
X125631056Y-94361856D01*
X125786235Y-94474600D01*
X125786236Y-94474601D01*
X125961469Y-94552619D01*
X126149092Y-94592500D01*
X126340908Y-94592500D01*
X126528531Y-94552619D01*
X126703763Y-94474601D01*
X126858945Y-94361855D01*
X126941348Y-94270336D01*
X126987290Y-94219313D01*
X126987295Y-94219306D01*
X127083202Y-94053191D01*
X127142476Y-93870764D01*
X127162526Y-93680000D01*
X150727474Y-93680000D01*
X150747524Y-93870764D01*
X150747525Y-93870767D01*
X150806795Y-94053185D01*
X150806798Y-94053191D01*
X150902704Y-94219306D01*
X150902709Y-94219313D01*
X151031054Y-94361854D01*
X151031056Y-94361856D01*
X151186235Y-94474600D01*
X151186236Y-94474601D01*
X151361469Y-94552619D01*
X151549092Y-94592500D01*
X151740908Y-94592500D01*
X151928531Y-94552619D01*
X152103763Y-94474601D01*
X152258945Y-94361855D01*
X152341348Y-94270336D01*
X152387290Y-94219313D01*
X152387295Y-94219306D01*
X152483202Y-94053191D01*
X152542476Y-93870764D01*
X152562526Y-93680000D01*
X152542476Y-93489236D01*
X152483202Y-93306809D01*
X152387294Y-93140692D01*
X152387290Y-93140686D01*
X152258945Y-92998145D01*
X152258943Y-92998143D01*
X152103764Y-92885399D01*
X152103763Y-92885398D01*
X151928530Y-92807380D01*
X151740908Y-92767500D01*
X151549092Y-92767500D01*
X151361469Y-92807380D01*
X151361468Y-92807380D01*
X151186236Y-92885398D01*
X151186235Y-92885399D01*
X151031056Y-92998143D01*
X151031054Y-92998145D01*
X150902709Y-93140686D01*
X150902704Y-93140693D01*
X150806798Y-93306808D01*
X150806795Y-93306814D01*
X150747525Y-93489232D01*
X150747524Y-93489236D01*
X150727474Y-93680000D01*
X127162526Y-93680000D01*
X127142476Y-93489236D01*
X127083202Y-93306809D01*
X126987294Y-93140692D01*
X126987290Y-93140686D01*
X126858945Y-92998145D01*
X126858943Y-92998143D01*
X126703764Y-92885399D01*
X126703763Y-92885398D01*
X126528530Y-92807380D01*
X126340908Y-92767500D01*
X126149092Y-92767500D01*
X125961469Y-92807380D01*
X125961468Y-92807380D01*
X125786236Y-92885398D01*
X125786235Y-92885399D01*
X125631056Y-92998143D01*
X125631054Y-92998145D01*
X125502709Y-93140686D01*
X125502704Y-93140693D01*
X125406798Y-93306808D01*
X125406795Y-93306814D01*
X125347525Y-93489232D01*
X125347524Y-93489236D01*
X125327474Y-93680000D01*
X124529723Y-93680000D01*
X124536070Y-91140000D01*
X125327474Y-91140000D01*
X125347524Y-91330764D01*
X125347525Y-91330767D01*
X125406795Y-91513185D01*
X125406798Y-91513191D01*
X125502704Y-91679306D01*
X125502709Y-91679313D01*
X125631054Y-91821854D01*
X125631056Y-91821856D01*
X125786235Y-91934600D01*
X125786236Y-91934601D01*
X125961469Y-92012619D01*
X126149092Y-92052500D01*
X126340908Y-92052500D01*
X126528531Y-92012619D01*
X126703763Y-91934601D01*
X126858945Y-91821855D01*
X126941348Y-91730336D01*
X126987290Y-91679313D01*
X126987295Y-91679306D01*
X127083202Y-91513191D01*
X127142476Y-91330764D01*
X127162526Y-91140000D01*
X150727474Y-91140000D01*
X150747524Y-91330764D01*
X150747525Y-91330767D01*
X150806795Y-91513185D01*
X150806798Y-91513191D01*
X150902704Y-91679306D01*
X150902709Y-91679313D01*
X151031054Y-91821854D01*
X151031056Y-91821856D01*
X151186235Y-91934600D01*
X151186236Y-91934601D01*
X151361469Y-92012619D01*
X151549092Y-92052500D01*
X151740908Y-92052500D01*
X151928531Y-92012619D01*
X152103763Y-91934601D01*
X152258945Y-91821855D01*
X152341348Y-91730336D01*
X152387290Y-91679313D01*
X152387295Y-91679306D01*
X152483202Y-91513191D01*
X152542476Y-91330764D01*
X152562526Y-91140000D01*
X152542476Y-90949236D01*
X152483202Y-90766809D01*
X152387294Y-90600692D01*
X152387290Y-90600686D01*
X152258945Y-90458145D01*
X152258943Y-90458143D01*
X152103764Y-90345399D01*
X152103763Y-90345398D01*
X151928530Y-90267380D01*
X151740908Y-90227500D01*
X151549092Y-90227500D01*
X151361469Y-90267380D01*
X151361468Y-90267380D01*
X151186236Y-90345398D01*
X151186235Y-90345399D01*
X151031056Y-90458143D01*
X151031054Y-90458145D01*
X150902709Y-90600686D01*
X150902704Y-90600693D01*
X150806798Y-90766808D01*
X150806795Y-90766814D01*
X150747525Y-90949232D01*
X150747524Y-90949236D01*
X150727474Y-91140000D01*
X127162526Y-91140000D01*
X127142476Y-90949236D01*
X127083202Y-90766809D01*
X126987294Y-90600692D01*
X126987290Y-90600686D01*
X126858945Y-90458145D01*
X126858943Y-90458143D01*
X126703764Y-90345399D01*
X126703763Y-90345398D01*
X126528530Y-90267380D01*
X126340908Y-90227500D01*
X126149092Y-90227500D01*
X125961469Y-90267380D01*
X125961468Y-90267380D01*
X125786236Y-90345398D01*
X125786235Y-90345399D01*
X125631056Y-90458143D01*
X125631054Y-90458145D01*
X125502709Y-90600686D01*
X125502704Y-90600693D01*
X125406798Y-90766808D01*
X125406795Y-90766814D01*
X125347525Y-90949232D01*
X125347524Y-90949236D01*
X125327474Y-91140000D01*
X124536070Y-91140000D01*
X124542418Y-88600000D01*
X125327474Y-88600000D01*
X125347524Y-88790764D01*
X125347525Y-88790767D01*
X125406795Y-88973185D01*
X125406798Y-88973191D01*
X125502704Y-89139306D01*
X125502709Y-89139313D01*
X125631054Y-89281854D01*
X125631056Y-89281856D01*
X125786235Y-89394600D01*
X125786236Y-89394601D01*
X125961469Y-89472619D01*
X126149092Y-89512500D01*
X126340908Y-89512500D01*
X126528531Y-89472619D01*
X126703763Y-89394601D01*
X126858945Y-89281855D01*
X126941348Y-89190336D01*
X126987290Y-89139313D01*
X126987295Y-89139306D01*
X127083202Y-88973191D01*
X127142476Y-88790764D01*
X127162526Y-88600000D01*
X150727474Y-88600000D01*
X150747524Y-88790764D01*
X150747525Y-88790767D01*
X150806795Y-88973185D01*
X150806798Y-88973191D01*
X150902704Y-89139306D01*
X150902709Y-89139313D01*
X151031054Y-89281854D01*
X151031056Y-89281856D01*
X151186235Y-89394600D01*
X151186236Y-89394601D01*
X151361469Y-89472619D01*
X151549092Y-89512500D01*
X151740908Y-89512500D01*
X151928531Y-89472619D01*
X152103763Y-89394601D01*
X152258945Y-89281855D01*
X152341348Y-89190336D01*
X152387290Y-89139313D01*
X152387295Y-89139306D01*
X152483202Y-88973191D01*
X152542476Y-88790764D01*
X152562526Y-88600000D01*
X152542476Y-88409236D01*
X152483202Y-88226809D01*
X152387294Y-88060692D01*
X152387290Y-88060686D01*
X152258945Y-87918145D01*
X152258943Y-87918143D01*
X152103764Y-87805399D01*
X152103763Y-87805398D01*
X151928530Y-87727380D01*
X151740908Y-87687500D01*
X151549092Y-87687500D01*
X151361469Y-87727380D01*
X151361468Y-87727380D01*
X151186236Y-87805398D01*
X151186235Y-87805399D01*
X151031056Y-87918143D01*
X151031054Y-87918145D01*
X150902709Y-88060686D01*
X150902704Y-88060693D01*
X150806798Y-88226808D01*
X150806795Y-88226814D01*
X150747525Y-88409232D01*
X150747524Y-88409236D01*
X150727474Y-88600000D01*
X127162526Y-88600000D01*
X127142476Y-88409236D01*
X127083202Y-88226809D01*
X126987294Y-88060692D01*
X126987290Y-88060686D01*
X126858945Y-87918145D01*
X126858943Y-87918143D01*
X126703764Y-87805399D01*
X126703763Y-87805398D01*
X126528530Y-87727380D01*
X126340908Y-87687500D01*
X126149092Y-87687500D01*
X125961469Y-87727380D01*
X125961468Y-87727380D01*
X125786236Y-87805398D01*
X125786235Y-87805399D01*
X125631056Y-87918143D01*
X125631054Y-87918145D01*
X125502709Y-88060686D01*
X125502704Y-88060693D01*
X125406798Y-88226808D01*
X125406795Y-88226814D01*
X125347525Y-88409232D01*
X125347524Y-88409236D01*
X125327474Y-88600000D01*
X124542418Y-88600000D01*
X124548765Y-86060000D01*
X125327474Y-86060000D01*
X125347524Y-86250764D01*
X125347525Y-86250767D01*
X125406795Y-86433185D01*
X125406798Y-86433191D01*
X125502704Y-86599306D01*
X125502709Y-86599313D01*
X125631054Y-86741854D01*
X125631056Y-86741856D01*
X125786235Y-86854600D01*
X125786236Y-86854601D01*
X125961469Y-86932619D01*
X126149092Y-86972500D01*
X126340908Y-86972500D01*
X126528531Y-86932619D01*
X126703763Y-86854601D01*
X126858945Y-86741855D01*
X126941348Y-86650336D01*
X126987290Y-86599313D01*
X126987295Y-86599306D01*
X127083202Y-86433191D01*
X127142476Y-86250764D01*
X127162526Y-86060000D01*
X150727474Y-86060000D01*
X150747524Y-86250764D01*
X150747525Y-86250767D01*
X150806795Y-86433185D01*
X150806798Y-86433191D01*
X150902704Y-86599306D01*
X150902709Y-86599313D01*
X151031054Y-86741854D01*
X151031056Y-86741856D01*
X151186235Y-86854600D01*
X151186236Y-86854601D01*
X151361469Y-86932619D01*
X151549092Y-86972500D01*
X151740908Y-86972500D01*
X151928531Y-86932619D01*
X152103763Y-86854601D01*
X152258945Y-86741855D01*
X152341348Y-86650336D01*
X152387290Y-86599313D01*
X152387295Y-86599306D01*
X152483202Y-86433191D01*
X152542476Y-86250764D01*
X152562526Y-86060000D01*
X152542476Y-85869236D01*
X152483202Y-85686809D01*
X152387294Y-85520692D01*
X152387290Y-85520686D01*
X152258945Y-85378145D01*
X152258943Y-85378143D01*
X152103764Y-85265399D01*
X152103763Y-85265398D01*
X151928530Y-85187380D01*
X151740908Y-85147500D01*
X151549092Y-85147500D01*
X151361469Y-85187380D01*
X151361468Y-85187380D01*
X151186236Y-85265398D01*
X151186235Y-85265399D01*
X151031056Y-85378143D01*
X151031054Y-85378145D01*
X150902709Y-85520686D01*
X150902704Y-85520693D01*
X150806798Y-85686808D01*
X150806795Y-85686814D01*
X150747525Y-85869232D01*
X150747524Y-85869236D01*
X150727474Y-86060000D01*
X127162526Y-86060000D01*
X127142476Y-85869236D01*
X127083202Y-85686809D01*
X126987294Y-85520692D01*
X126987290Y-85520686D01*
X126858945Y-85378145D01*
X126858943Y-85378143D01*
X126703764Y-85265399D01*
X126703763Y-85265398D01*
X126528530Y-85187380D01*
X126340908Y-85147500D01*
X126149092Y-85147500D01*
X125961469Y-85187380D01*
X125961468Y-85187380D01*
X125786236Y-85265398D01*
X125786235Y-85265399D01*
X125631056Y-85378143D01*
X125631054Y-85378145D01*
X125502709Y-85520686D01*
X125502704Y-85520693D01*
X125406798Y-85686808D01*
X125406795Y-85686814D01*
X125347525Y-85869232D01*
X125347524Y-85869236D01*
X125327474Y-86060000D01*
X124548765Y-86060000D01*
X124555113Y-83520000D01*
X125327474Y-83520000D01*
X125347524Y-83710764D01*
X125347525Y-83710767D01*
X125406795Y-83893185D01*
X125406798Y-83893191D01*
X125502704Y-84059306D01*
X125502709Y-84059313D01*
X125631054Y-84201854D01*
X125631056Y-84201856D01*
X125786235Y-84314600D01*
X125786236Y-84314601D01*
X125961469Y-84392619D01*
X126149092Y-84432500D01*
X126340908Y-84432500D01*
X126528531Y-84392619D01*
X126703763Y-84314601D01*
X126858945Y-84201855D01*
X126941348Y-84110336D01*
X126987290Y-84059313D01*
X126987295Y-84059306D01*
X127083202Y-83893191D01*
X127142476Y-83710764D01*
X127162526Y-83520000D01*
X150727474Y-83520000D01*
X150747524Y-83710764D01*
X150747525Y-83710767D01*
X150806795Y-83893185D01*
X150806798Y-83893191D01*
X150902704Y-84059306D01*
X150902709Y-84059313D01*
X151031054Y-84201854D01*
X151031056Y-84201856D01*
X151186235Y-84314600D01*
X151186236Y-84314601D01*
X151361469Y-84392619D01*
X151549092Y-84432500D01*
X151740908Y-84432500D01*
X151928531Y-84392619D01*
X152103763Y-84314601D01*
X152258945Y-84201855D01*
X152341348Y-84110336D01*
X152387290Y-84059313D01*
X152387295Y-84059306D01*
X152483202Y-83893191D01*
X152542476Y-83710764D01*
X152562526Y-83520000D01*
X152542476Y-83329236D01*
X152483202Y-83146809D01*
X152387294Y-82980692D01*
X152387290Y-82980686D01*
X152258945Y-82838145D01*
X152258943Y-82838143D01*
X152103764Y-82725399D01*
X152103763Y-82725398D01*
X151928530Y-82647380D01*
X151740908Y-82607500D01*
X151549092Y-82607500D01*
X151361469Y-82647380D01*
X151361468Y-82647380D01*
X151186236Y-82725398D01*
X151186235Y-82725399D01*
X151031056Y-82838143D01*
X151031054Y-82838145D01*
X150902709Y-82980686D01*
X150902704Y-82980693D01*
X150806798Y-83146808D01*
X150806795Y-83146814D01*
X150747525Y-83329232D01*
X150747524Y-83329236D01*
X150727474Y-83520000D01*
X127162526Y-83520000D01*
X127142476Y-83329236D01*
X127083202Y-83146809D01*
X126987294Y-82980692D01*
X126987290Y-82980686D01*
X126858945Y-82838145D01*
X126858943Y-82838143D01*
X126703764Y-82725399D01*
X126703763Y-82725398D01*
X126528530Y-82647380D01*
X126340908Y-82607500D01*
X126149092Y-82607500D01*
X125961469Y-82647380D01*
X125961468Y-82647380D01*
X125786236Y-82725398D01*
X125786235Y-82725399D01*
X125631056Y-82838143D01*
X125631054Y-82838145D01*
X125502709Y-82980686D01*
X125502704Y-82980693D01*
X125406798Y-83146808D01*
X125406795Y-83146814D01*
X125347525Y-83329232D01*
X125347524Y-83329236D01*
X125327474Y-83520000D01*
X124555113Y-83520000D01*
X124561460Y-80980000D01*
X125327474Y-80980000D01*
X125347524Y-81170764D01*
X125347525Y-81170767D01*
X125406795Y-81353185D01*
X125406798Y-81353191D01*
X125502704Y-81519306D01*
X125502709Y-81519313D01*
X125631054Y-81661854D01*
X125631056Y-81661856D01*
X125786235Y-81774600D01*
X125786236Y-81774601D01*
X125961469Y-81852619D01*
X126149092Y-81892500D01*
X126340908Y-81892500D01*
X126528531Y-81852619D01*
X126703763Y-81774601D01*
X126858945Y-81661855D01*
X126941348Y-81570336D01*
X126987290Y-81519313D01*
X126987295Y-81519306D01*
X127083202Y-81353191D01*
X127142476Y-81170764D01*
X127162526Y-80980000D01*
X150727474Y-80980000D01*
X150747524Y-81170764D01*
X150747525Y-81170767D01*
X150806795Y-81353185D01*
X150806798Y-81353191D01*
X150902704Y-81519306D01*
X150902709Y-81519313D01*
X151031054Y-81661854D01*
X151031056Y-81661856D01*
X151186235Y-81774600D01*
X151186236Y-81774601D01*
X151361469Y-81852619D01*
X151549092Y-81892500D01*
X151740908Y-81892500D01*
X151928531Y-81852619D01*
X152103763Y-81774601D01*
X152258945Y-81661855D01*
X152341348Y-81570336D01*
X152387290Y-81519313D01*
X152387295Y-81519306D01*
X152483202Y-81353191D01*
X152542476Y-81170764D01*
X152562526Y-80980000D01*
X152542476Y-80789236D01*
X152483202Y-80606809D01*
X152387294Y-80440692D01*
X152387290Y-80440686D01*
X152258945Y-80298145D01*
X152258943Y-80298143D01*
X152103764Y-80185399D01*
X152103763Y-80185398D01*
X151928530Y-80107380D01*
X151740908Y-80067500D01*
X151549092Y-80067500D01*
X151361469Y-80107380D01*
X151361468Y-80107380D01*
X151186236Y-80185398D01*
X151186235Y-80185399D01*
X151031056Y-80298143D01*
X151031054Y-80298145D01*
X150902709Y-80440686D01*
X150902704Y-80440693D01*
X150806798Y-80606808D01*
X150806795Y-80606814D01*
X150747525Y-80789232D01*
X150747524Y-80789236D01*
X150727474Y-80980000D01*
X127162526Y-80980000D01*
X127142476Y-80789236D01*
X127083202Y-80606809D01*
X126987294Y-80440692D01*
X126987290Y-80440686D01*
X126858945Y-80298145D01*
X126858943Y-80298143D01*
X126703764Y-80185399D01*
X126703763Y-80185398D01*
X126528530Y-80107380D01*
X126340908Y-80067500D01*
X126149092Y-80067500D01*
X125961469Y-80107380D01*
X125961468Y-80107380D01*
X125786236Y-80185398D01*
X125786235Y-80185399D01*
X125631056Y-80298143D01*
X125631054Y-80298145D01*
X125502709Y-80440686D01*
X125502704Y-80440693D01*
X125406798Y-80606808D01*
X125406795Y-80606814D01*
X125347525Y-80789232D01*
X125347524Y-80789236D01*
X125327474Y-80980000D01*
X124561460Y-80980000D01*
X124567808Y-78440000D01*
X125327474Y-78440000D01*
X125347524Y-78630764D01*
X125347525Y-78630767D01*
X125406795Y-78813185D01*
X125406798Y-78813191D01*
X125502704Y-78979306D01*
X125502709Y-78979313D01*
X125631054Y-79121854D01*
X125631056Y-79121856D01*
X125786235Y-79234600D01*
X125786236Y-79234601D01*
X125961469Y-79312619D01*
X126149092Y-79352500D01*
X126340908Y-79352500D01*
X126528531Y-79312619D01*
X126703763Y-79234601D01*
X126858945Y-79121855D01*
X126941348Y-79030336D01*
X126987290Y-78979313D01*
X126987295Y-78979306D01*
X127083202Y-78813191D01*
X127142476Y-78630764D01*
X127162526Y-78440000D01*
X150727474Y-78440000D01*
X150747524Y-78630764D01*
X150747525Y-78630767D01*
X150806795Y-78813185D01*
X150806798Y-78813191D01*
X150902704Y-78979306D01*
X150902709Y-78979313D01*
X151031054Y-79121854D01*
X151031056Y-79121856D01*
X151186235Y-79234600D01*
X151186236Y-79234601D01*
X151361469Y-79312619D01*
X151549092Y-79352500D01*
X151740908Y-79352500D01*
X151928531Y-79312619D01*
X152103763Y-79234601D01*
X152258945Y-79121855D01*
X152341348Y-79030336D01*
X152387290Y-78979313D01*
X152387295Y-78979306D01*
X152483202Y-78813191D01*
X152542476Y-78630764D01*
X152562526Y-78440000D01*
X152542476Y-78249236D01*
X152483202Y-78066809D01*
X152387294Y-77900692D01*
X152387290Y-77900686D01*
X152258945Y-77758145D01*
X152258943Y-77758143D01*
X152103764Y-77645399D01*
X152103763Y-77645398D01*
X151928530Y-77567380D01*
X151740908Y-77527500D01*
X151549092Y-77527500D01*
X151361469Y-77567380D01*
X151361468Y-77567380D01*
X151186236Y-77645398D01*
X151186235Y-77645399D01*
X151031056Y-77758143D01*
X151031054Y-77758145D01*
X150902709Y-77900686D01*
X150902704Y-77900693D01*
X150806798Y-78066808D01*
X150806795Y-78066814D01*
X150747525Y-78249232D01*
X150747524Y-78249236D01*
X150727474Y-78440000D01*
X127162526Y-78440000D01*
X127142476Y-78249236D01*
X127083202Y-78066809D01*
X126987294Y-77900692D01*
X126987290Y-77900686D01*
X126858945Y-77758145D01*
X126858943Y-77758143D01*
X126703764Y-77645399D01*
X126703763Y-77645398D01*
X126528530Y-77567380D01*
X126340908Y-77527500D01*
X126149092Y-77527500D01*
X125961469Y-77567380D01*
X125961468Y-77567380D01*
X125786236Y-77645398D01*
X125786235Y-77645399D01*
X125631056Y-77758143D01*
X125631054Y-77758145D01*
X125502709Y-77900686D01*
X125502704Y-77900693D01*
X125406798Y-78066808D01*
X125406795Y-78066814D01*
X125347525Y-78249232D01*
X125347524Y-78249236D01*
X125327474Y-78440000D01*
X124567808Y-78440000D01*
X124574156Y-75900000D01*
X125327474Y-75900000D01*
X125347524Y-76090764D01*
X125347525Y-76090767D01*
X125406795Y-76273185D01*
X125406798Y-76273191D01*
X125502704Y-76439306D01*
X125502709Y-76439313D01*
X125631054Y-76581854D01*
X125631056Y-76581856D01*
X125786235Y-76694600D01*
X125786236Y-76694601D01*
X125961469Y-76772619D01*
X126149092Y-76812500D01*
X126340908Y-76812500D01*
X126528531Y-76772619D01*
X126703763Y-76694601D01*
X126858945Y-76581855D01*
X126941348Y-76490336D01*
X126987290Y-76439313D01*
X126987295Y-76439306D01*
X127083202Y-76273191D01*
X127142476Y-76090764D01*
X127162526Y-75900000D01*
X150727474Y-75900000D01*
X150747524Y-76090764D01*
X150747525Y-76090767D01*
X150806795Y-76273185D01*
X150806798Y-76273191D01*
X150902704Y-76439306D01*
X150902709Y-76439313D01*
X151031054Y-76581854D01*
X151031056Y-76581856D01*
X151186235Y-76694600D01*
X151186236Y-76694601D01*
X151361469Y-76772619D01*
X151549092Y-76812500D01*
X151740908Y-76812500D01*
X151928531Y-76772619D01*
X152103763Y-76694601D01*
X152258945Y-76581855D01*
X152341348Y-76490336D01*
X152387290Y-76439313D01*
X152387295Y-76439306D01*
X152483202Y-76273191D01*
X152542476Y-76090764D01*
X152562526Y-75900000D01*
X152542476Y-75709236D01*
X152483202Y-75526809D01*
X152387294Y-75360692D01*
X152387290Y-75360686D01*
X152258945Y-75218145D01*
X152258943Y-75218143D01*
X152103764Y-75105399D01*
X152103763Y-75105398D01*
X151928530Y-75027380D01*
X151740908Y-74987500D01*
X151549092Y-74987500D01*
X151361469Y-75027380D01*
X151361468Y-75027380D01*
X151186236Y-75105398D01*
X151186235Y-75105399D01*
X151031056Y-75218143D01*
X151031054Y-75218145D01*
X150902709Y-75360686D01*
X150902704Y-75360693D01*
X150806798Y-75526808D01*
X150806795Y-75526814D01*
X150747525Y-75709232D01*
X150747524Y-75709236D01*
X150727474Y-75900000D01*
X127162526Y-75900000D01*
X127142476Y-75709236D01*
X127083202Y-75526809D01*
X126987294Y-75360692D01*
X126987290Y-75360686D01*
X126858945Y-75218145D01*
X126858943Y-75218143D01*
X126703764Y-75105399D01*
X126703763Y-75105398D01*
X126528530Y-75027380D01*
X126340908Y-74987500D01*
X126149092Y-74987500D01*
X125961469Y-75027380D01*
X125961468Y-75027380D01*
X125786236Y-75105398D01*
X125786235Y-75105399D01*
X125631056Y-75218143D01*
X125631054Y-75218145D01*
X125502709Y-75360686D01*
X125502704Y-75360693D01*
X125406798Y-75526808D01*
X125406795Y-75526814D01*
X125347525Y-75709232D01*
X125347524Y-75709236D01*
X125327474Y-75900000D01*
X124574156Y-75900000D01*
X124589690Y-69683817D01*
X124609542Y-69616829D01*
X124662461Y-69571206D01*
X124713817Y-69560129D01*
X153146370Y-69589870D01*
G37*
%TD.AperFunction*%
%TD*%
M02*
